
<!-- Generator: Adobe Illustrator 24.3.0, SVG Export Plug-In . SVG Version: 6.00 Build 0)  -->
<svg version="1.1" id="plombier" xmlns="http://www.w3.org/2000/svg" xmlns:xlink="http://www.w3.org/1999/xlink" x="0px" y="0px"
	 viewBox="0 0 111.6 111.6" style="enable-background:new 0 0 111.6 111.6;" xml:space="preserve">
<g id="Groupe_433" transform="translate(-146.9 -277.8)">
	<g id="Ellipse_17">
		<path style="fill:#161615;" d="M202.7,389.4c-30.8,0-55.8-25-55.8-55.8s25-55.8,55.8-55.8s55.8,25,55.8,55.8
			S233.5,389.4,202.7,389.4z M202.7,280.8c-29.1,0-52.8,23.7-52.8,52.8c0,29.1,23.7,52.8,52.8,52.8s52.8-23.7,52.8-52.8
			S231.8,280.8,202.7,280.8z"/>
	</g>
	<g id="Groupe_426">
		<g id="Groupe_425">
			<g id="Tracé_807">
				<path style="fill:#161615;" d="M186.1,304.5l-3.5-5l0.6,5.3l-0.6,0.4l-4.7-2.4l3.5,5l-1.1,0.8l-4.9-7l1.2-0.8l5.3,2.7l-0.7-5.9
					l1.2-0.8l4.9,7L186.1,304.5z"/>
			</g>
			<g id="Tracé_808">
				<path style="fill:#161615;" d="M195.3,299.6l0.4,1.1l-5.6,1.8l-2.6-8.1l5.5-1.7l0.4,1.1l-4.2,1.3l0.7,2.3l3.6-1.1l0.3,1.1
					l-3.6,1.1l0.8,2.5L195.3,299.6z M190.4,292.5h-0.9l0.3-1.5l1.2-0.4L190.4,292.5z"/>
			</g>
			<g id="Tracé_809">
				<path style="fill:#161615;" d="M204.2,292.7l-2.8,0.1l0.4,7.3l-1.4,0.1l-0.4-7.3l-2.8,0.1l-0.1-1.2l7-0.4L204.2,292.7z"/>
			</g>
			<g id="Tracé_810">
				<path style="fill:#161615;" d="M207.1,300.4l1.3-8.4l1.3,0.2l-1.3,8.4L207.1,300.4z"/>
			</g>
			<g id="Tracé_811">
				<path style="fill:#161615;" d="M217.6,302.1l-0.4,1.1l-5.5-2l2.9-8l5.4,2l-0.4,1.1l-4.1-1.5l-0.8,2.3l3.6,1.3l-0.4,1l-3.6-1.3
					l-0.9,2.4L217.6,302.1z"/>
			</g>
			<g id="Tracé_812">
				<path style="fill:#161615;" d="M219.6,304.5l4.9-7l3,2.1c0.3,0.2,0.6,0.5,0.7,0.8c0.2,0.3,0.3,0.6,0.3,1c0,0.3,0,0.7-0.1,1
					s-0.2,0.6-0.4,0.9l-0.6,0.6c-0.2,0.2-0.4,0.3-0.7,0.4c-0.2,0.1-0.5,0.2-0.8,0.2s-0.5,0-0.8-0.1l-0.2,3.8l-1.2-0.9l0.2-3.5
					l-1.6-1.1l-1.7,2.4L219.6,304.5z M223.1,301.9l1.9,1.4c0.1,0.1,0.3,0.2,0.5,0.2s0.4,0,0.5-0.1c0.2-0.1,0.4-0.1,0.5-0.3
					c0.2-0.1,0.3-0.3,0.4-0.4l0.3-0.6c0-0.2,0.1-0.4,0-0.6c0-0.2-0.1-0.4-0.2-0.5c-0.1-0.2-0.2-0.3-0.3-0.4l-1.9-1.3L223.1,301.9z"
					/>
			</g>
		</g>
	</g>
	<g id="Groupe_428">
		<g id="Groupe_427">
			<g id="Tracé_813">
				<path style="fill:#161615;" d="M166.7,355.3l7-4.9l2,2.9c0.2,0.3,0.4,0.6,0.4,1c0.1,0.3,0.1,0.7,0,1s-0.2,0.7-0.4,1
					s-0.4,0.5-0.7,0.7s-0.6,0.4-1,0.4c-0.3,0.1-0.7,0.1-1,0.1c-0.4,0-0.7-0.1-1-0.3c-0.3-0.2-0.6-0.4-0.8-0.7l-1.3-1.9l-2.4,1.7
					L166.7,355.3z M170.9,354l1.3,1.8c0.1,0.2,0.2,0.3,0.4,0.4s0.3,0.1,0.5,0.1s0.4,0,0.6-0.1l0.6-0.3c0.2-0.1,0.3-0.3,0.5-0.5
					c0.1-0.2,0.2-0.3,0.2-0.5v-0.5c0-0.2-0.1-0.3-0.2-0.5l-1.2-1.8L170.9,354z"/>
			</g>
			<g id="Tracé_814">
				<path style="fill:#161615;" d="M173.8,364.1l5.5-6.5l1,0.9l-4.7,5.6l3.5,2.9l-0.8,0.9L173.8,364.1z"/>
			</g>
			<g id="Tracé_815">
				<path style="fill:#161615;" d="M185.3,371.8c-0.5-0.2-1-0.6-1.4-1c-0.3-0.4-0.6-0.9-0.8-1.4s-0.2-1.1-0.2-1.6
					c0-0.6,0.2-1.1,0.4-1.6s0.6-1,1-1.4s0.9-0.7,1.4-0.9c0.5-0.2,1.1-0.3,1.6-0.3c0.6,0,1.1,0.1,1.6,0.4c0.5,0.2,1,0.6,1.4,1
					c0.3,0.4,0.6,0.9,0.8,1.4s0.2,1.1,0.2,1.6c-0.1,1.1-0.5,2.1-1.3,2.9c-0.4,0.4-0.9,0.7-1.4,0.9c-0.5,0.2-1.1,0.3-1.6,0.3
					C186.4,372.2,185.8,372.1,185.3,371.8z M184.6,366.7c-0.2,0.3-0.3,0.7-0.3,1.1s0,0.7,0.1,1.1c0.2,0.7,0.7,1.4,1.4,1.7
					c0.4,0.2,0.8,0.3,1.2,0.2c0.4,0,0.8-0.1,1.1-0.3c0.3-0.2,0.6-0.4,0.9-0.7c0.3-0.3,0.5-0.6,0.6-1c0.2-0.3,0.3-0.7,0.3-1.1
					s0-0.7-0.1-1.1s-0.3-0.7-0.5-1c-0.5-0.6-1.3-1-2.1-0.9c-0.4,0-0.8,0.1-1.1,0.3c-0.3,0.2-0.6,0.4-0.9,0.7
					C185,366,184.8,366.4,184.6,366.7L184.6,366.7z"/>
			</g>
			<g id="Tracé_816">
				<path style="fill:#161615;" d="M201.8,375.6l0.6-6.1l-2.9,4.4l-0.7-0.1l-2.1-4.9l-0.6,6.1l-1.3-0.1l0.8-8.5l1.4,0.1l2.3,5.4
					l3.3-4.9l1.4,0.1l-0.8,8.5H201.8z"/>
			</g>
			<g id="Tracé_817">
				<path style="fill:#161615;" d="M215.3,371.5c0.1,0.3,0.1,0.6,0,0.9s-0.2,0.6-0.4,0.8c-0.2,0.2-0.4,0.5-0.7,0.6
					c-0.3,0.2-0.6,0.3-1,0.4l-4,0.9l-1.9-8.3l4.3-1c0.3-0.1,0.5-0.1,0.8,0c0.2,0.1,0.5,0.2,0.7,0.3c0.2,0.2,0.4,0.4,0.5,0.6
					s0.2,0.5,0.3,0.7c0.1,0.4,0.1,0.8,0,1.2c-0.1,0.4-0.4,0.7-0.7,1c0.5,0,0.9,0.2,1.3,0.5C214.9,370.5,215.2,371,215.3,371.5z
					 M208.9,367.7l0.6,2.4l2.4-0.6c0.2,0,0.3-0.1,0.4-0.2l0.3-0.3c0.1-0.1,0.1-0.3,0.2-0.4v-0.5c-0.1-0.3-0.2-0.6-0.5-0.8
					c-0.3-0.2-0.6-0.2-0.9-0.2L208.9,367.7z M213.9,371.5c-0.1-0.3-0.3-0.6-0.5-0.8c-0.1-0.1-0.2-0.2-0.4-0.2h-0.5l-2.7,0.6l0.6,2.5
					l2.7-0.6c0.2,0,0.3-0.1,0.5-0.2C213.9,372.4,214,372,213.9,371.5L213.9,371.5z"/>
			</g>
			<g id="Tracé_818">
				<path style="fill:#161615;" d="M220.3,371.7l-3.7-7.7l1.2-0.6l3.7,7.7L220.3,371.7z"/>
			</g>
			<g id="Tracé_819">
				<path style="fill:#161615;" d="M230.1,364l0.7,0.9l-4.6,3.6l-5.2-6.8l4.6-3.5l0.7,0.9l-3.5,2.7l1.5,1.9l3-2.3l0.7,0.9l-3,2.3
					l1.6,2.1L230.1,364z"/>
			</g>
			<g id="Tracé_820">
				<path style="fill:#161615;" d="M234.5,361.1l-6.8-5.1l2.2-3c0.2-0.3,0.5-0.5,0.8-0.7s0.6-0.3,1-0.3c0.3,0,0.7,0,1,0.1
					s0.6,0.2,0.9,0.4l0.6,0.6c0.2,0.2,0.3,0.4,0.4,0.7c0.1,0.3,0.1,0.5,0.1,0.8s0,0.5-0.1,0.8l3.8,0.3l-0.9,1.2l-3.5-0.3l-1.2,1.6
					l2.4,1.8L234.5,361.1z M232,357.6l1.4-1.9c0.1-0.1,0.2-0.3,0.2-0.5v-0.5c-0.1-0.2-0.1-0.4-0.3-0.5c-0.1-0.2-0.3-0.3-0.4-0.4
					l-0.6-0.3c-0.2-0.1-0.4-0.1-0.6-0.1c-0.2,0-0.3,0.1-0.5,0.1c-0.2,0.1-0.3,0.2-0.4,0.3l-1.4,1.8L232,357.6z"/>
			</g>
		</g>
	</g>
	<g id="Tracé_821">
		<path style="fill:none;stroke:#161615;stroke-width:3;stroke-miterlimit:10;" d="M202.7,333.6"/>
	</g>
	<g id="Groupe_430">
		<g id="Groupe_429">
			<g id="Tracé_974">
				<path style="fill:#161615;" d="M195.6,332.2v8.2h1.4c-0.1,0.9-0.5,1.7-1.2,2.3c-0.8,0.7-1.8,1.1-2.8,1.1c-2.1,0-3.9-1.8-3.9-3.9
					v-15.7h1.5V316h-14.1v8.2h1.5V340c-0.1,8.3,6.6,15.2,14.9,15.3c8.3,0.1,15.2-6.6,15.3-14.9h1.5v-8.2L195.6,332.2z M180.3,335.1
					v-10.8h6.4v10.8H180.3z M180.3,337.5h6.4v2.5c0,3.5,2.8,6.3,6.2,6.3c0,0,0,0,0.1,0c3.3,0,6-2.6,6.3-5.9h6.5
					c-0.1,7-5.9,12.6-12.9,12.5s-12.6-5.9-12.5-12.9l0,0v-2.5H180.3z M188.6,318.4v3.5h-9.5l0.1-3.5H188.6z M207.3,334.6v3.5h-9.4
					v-3.5H207.3z"/>
			</g>
		</g>
	</g>
	<g id="Groupe_432">
		<g id="Groupe_431">
			<g id="Tracé_823">
				<path style="fill:#040506;" d="M226.4,343L213,329.8c-3.1,1.6-6.3,0.9-9.3-2.1c-4-4-1.9-9.9-1.7-10.2l0,0
					c0.3-0.7,1.2-1.1,1.9-0.8c0.2,0.1,0.3,0.2,0.5,0.3l3.9,3.9h2.1v-2.3l-3.9-3.9c-0.6-0.6-0.6-1.5-0.1-2c0,0,0,0,0.1-0.1
					c0.2-0.1,0.3-0.2,0.5-0.3l0,0c0.3-0.1,6-2.3,10.2,1.7c3.1,3.1,3.9,6.1,2.1,9.3l13.4,13.4c0.7,0.6,0.7,1.6,0.1,2.3l-0.1,0.1l0,0
					l-3.9,3.9C228.2,343.7,227.2,343.7,226.4,343C226.5,343.1,226.4,343,226.4,343z M213.4,326.1l14.2,14.2l2.3-2.3l-14.2-14.2
					l0.6-1c1.6-2.4,1.3-4.3-1.3-6.7c-1.3-1.2-3-1.8-4.7-1.6l2.9,2.9v6.3h-6.3l-2.9-2.9c-0.2,1.7,0.4,3.5,1.6,4.7
					c2.4,2.4,4.4,2.9,6.7,1.3L213.4,326.1z"/>
			</g>
		</g>
	</g>
	<g id="Tracé_824">
		<path style="fill:#161615;" d="M240.3,347.1l-2.8-1c3.9-11.1,2.4-23.6-4.2-33.4l2.5-1.7C242.9,321.6,244.6,335.1,240.3,347.1z"/>
	</g>
	<g id="Tracé_825">
		<path style="fill:#161615;" d="M164.2,346.6c-4-11.7-2.3-24.8,4.5-35.1l2.5,1.7c-6.3,9.5-7.8,21.7-4.1,32.5L164.2,346.6z"/>
	</g>
</g>
</svg>
