
<!-- Generator: Adobe Illustrator 24.3.0, SVG Export Plug-In . SVG Version: 6.00 Build 0)  -->
<svg version="1.1" id="peintre" xmlns="http://www.w3.org/2000/svg" xmlns:xlink="http://www.w3.org/1999/xlink" x="0px" y="0px"
	 viewBox="0 0 111.6 111.6" style="enable-background:new 0 0 111.6 111.6;" xml:space="preserve">
<g id="Groupe_445" transform="translate(-415.216 -283.764)">
	<g id="Ellipse_19">
		<path style="fill:#161615;" d="M471,395.3c-30.8,0-55.8-25-55.8-55.8s25-55.8,55.8-55.8s55.8,25,55.8,55.8S501.8,395.3,471,395.3z
			 M471,286.7c-29.1,0-52.8,23.7-52.8,52.8s23.7,52.8,52.8,52.8s52.8-23.7,52.8-52.8S500.1,286.7,471,286.7z"/>
	</g>
	<g id="Groupe_440">
		<g id="Groupe_439">
			<g id="Tracé_848">
				<path style="fill:#161615;" d="M454.3,310.4l-3.5-5l0.6,5.3l-0.6,0.4l-4.7-2.4l3.5,5l-1.1,0.8l-4.9-7l1.2-0.8l5.3,2.7l-0.7-5.9
					l1.2-0.8l4.9,7L454.3,310.4z"/>
			</g>
			<g id="Tracé_849">
				<path style="fill:#161615;" d="M463.6,305.6l0.4,1.1l-5.6,1.8l-2.6-8.1l5.5-1.7l0.4,1.1l-4.2,1.3l0.7,2.3l3.6-1.1l0.3,1.1
					l-3.6,1.2l0.8,2.5L463.6,305.6z M458.7,298.5h-0.9l0.3-1.5l1.2-0.4L458.7,298.5z"/>
			</g>
			<g id="Tracé_850">
				<path style="fill:#161615;" d="M472.5,298.7l-2.8,0.1l0.4,7.3l-1.4,0.1l-0.4-7.3l-2.8,0.1l-0.1-1.2l7-0.4L472.5,298.7z"/>
			</g>
			<g id="Tracé_851">
				<path style="fill:#161615;" d="M475.4,306.4l1.3-8.4l1.3,0.2l-1.3,8.4L475.4,306.4z"/>
			</g>
			<g id="Tracé_852">
				<path style="fill:#161615;" d="M485.9,308.1l-0.4,1.1l-5.5-2l2.9-8l5.4,2l-0.4,1.1l-4.1-1.5l-0.8,2.3l3.6,1.3l-0.4,1l-3.6-1.3
					l-0.9,2.4L485.9,308.1z"/>
			</g>
			<g id="Tracé_853">
				<path style="fill:#161615;" d="M487.9,310.5l4.9-7l3,2.1c0.3,0.2,0.6,0.5,0.7,0.8c0.2,0.3,0.3,0.6,0.3,1c0,0.3,0,0.7-0.1,1
					s-0.2,0.7-0.4,0.9c-0.2,0.2-0.4,0.4-0.6,0.6s-0.4,0.3-0.7,0.4c-0.2,0.1-0.5,0.2-0.8,0.2s-0.5,0-0.8-0.1l-0.2,3.8l-1.2-0.9
					l0.2-3.5l-1.6-1.1l-1.7,2.4L487.9,310.5z M491.3,307.9l1.9,1.4c0.1,0.1,0.3,0.2,0.5,0.2s0.4,0,0.5-0.1c0.2-0.1,0.4-0.1,0.5-0.3
					c0.2-0.1,0.3-0.3,0.4-0.4c0.1-0.2,0.2-0.4,0.3-0.6c0-0.2,0.1-0.4,0-0.6c0-0.2-0.1-0.4-0.2-0.5c-0.1-0.2-0.2-0.3-0.3-0.4
					l-1.9-1.3L491.3,307.9z"/>
			</g>
		</g>
	</g>
	<g id="Groupe_442">
		<g id="Groupe_441">
			<g id="Tracé_854">
				<path style="fill:#161615;" d="M439.3,367.2l6-6l2.5,2.5c0.3,0.3,0.5,0.6,0.6,0.9s0.2,0.7,0.1,1c0,0.3-0.1,0.7-0.2,1
					s-0.3,0.6-0.6,0.9c-0.2,0.3-0.5,0.5-0.9,0.6c-0.3,0.1-0.7,0.2-1,0.3c-0.3,0-0.7,0-1-0.1s-0.7-0.3-0.9-0.6l-1.6-1.6l-2.1,2.1
					L439.3,367.2z M443.2,365.2l1.6,1.6c0.1,0.1,0.3,0.2,0.5,0.3c0.2,0.1,0.3,0.1,0.5,0c0.2,0,0.4-0.1,0.5-0.2
					c0.2-0.1,0.4-0.2,0.5-0.4c0.2-0.2,0.3-0.3,0.4-0.5s0.1-0.4,0.1-0.6s0-0.4-0.1-0.5c-0.1-0.2-0.2-0.3-0.3-0.4l-1.5-1.5
					L443.2,365.2z"/>
			</g>
			<g id="Tracé_855">
				<path style="fill:#161615;" d="M453.5,376.5l-0.6,1l-5.1-2.9l4.2-7.4l5,2.9l-0.6,1l-3.8-2.2l-1.2,2.1l3.3,1.9l-0.6,1l-3.3-1.9
					l-1.3,2.3L453.5,376.5z"/>
			</g>
			<g id="Tracé_856">
				<path style="fill:#161615;" d="M457.4,379.3l2.6-8.1l1.3,0.4l-2.6,8.1L457.4,379.3z"/>
			</g>
			<g id="Tracé_857">
				<path style="fill:#161615;" d="M465.8,375.2l-0.5,6l-1.3-0.1l0.7-8.5l1.1,0.1l4.4,6.5l0.5-6.1l1.4,0.1l-0.7,8.5l-1.1-0.1
					L465.8,375.2z"/>
			</g>
			<g id="Tracé_858">
				<path style="fill:#161615;" d="M481.8,372.7l-2.8,0.6l1.5,7.2l-1.3,0.3l-1.6-7.2l-2.8,0.6l-0.3-1.2l6.9-1.5L481.8,372.7z"/>
			</g>
			<g id="Tracé_859">
				<path style="fill:#161615;" d="M488.1,378l-4-7.5l3.3-1.7c0.3-0.2,0.7-0.3,1.1-0.3s0.7,0,1,0.2c0.3,0.1,0.6,0.3,0.9,0.5
					s0.5,0.5,0.6,0.8c0.1,0.2,0.2,0.5,0.3,0.8c0.1,0.3,0.1,0.5,0,0.8c0,0.3-0.1,0.5-0.2,0.8c-0.1,0.2-0.3,0.5-0.4,0.6l3.3,1.9
					l-1.3,0.7l-3-1.8l-1.7,0.9l1.4,2.6L488.1,378z M487.3,373.7l2.1-1.1c0.2-0.1,0.3-0.2,0.4-0.4c0.1-0.2,0.2-0.3,0.2-0.5
					s0-0.4,0-0.6s-0.1-0.4-0.2-0.6s-0.2-0.4-0.4-0.5c-0.1-0.1-0.3-0.2-0.5-0.3c-0.2-0.1-0.4-0.1-0.5-0.1c-0.2,0-0.4,0-0.5,0.1
					l-2,1.1L487.3,373.7z"/>
			</g>
			<g id="Tracé_860">
				<path style="fill:#161615;" d="M501.5,366.8l0.8,0.9l-4.2,4l-5.9-6.2l4.1-4l0.8,0.9l-3.2,3l1.7,1.8l2.8-2.6l0.8,0.8l-2.7,2.6
					l1.8,1.9L501.5,366.8z"/>
			</g>
		</g>
	</g>
	<g id="Tracé_861">
		<path style="fill:none;stroke:#161615;stroke-width:3;stroke-miterlimit:10;" d="M435.5,339.2"/>
	</g>
	<g id="Groupe_444">
		<g id="Groupe_443">
			<g id="Tracé_862">
				<path style="fill:#040506;" d="M481.7,331.5l-5.8-5.8c-0.5-0.5-1.2-0.5-1.7,0L460.9,339c-0.5,0.5-0.5,1.2,0,1.7l0,0l5.8,5.8
					c-0.5,0.5-0.5,1.2,0,1.7l2.5,2.5c0.5,0.5,1.2,0.5,1.7,0l0,0c2.5,2.5,6.7-3.3,9.2-0.8c0.8,0.8,1.7,3.3,3.3,5
					c2.5,2.5,5.7,2.7,7.5,0.8s1.7-5-0.8-7.5c-1.7-1.7-4.2-2.5-5-3.3c-2.5-2.5,3.3-6.7,0.8-9.2c0.5-0.5,0.5-1.2,0-1.7l0,0l-2.5-2.5
					C482.9,331.1,482.2,331.1,481.7,331.5L481.7,331.5z M465.1,336.6l0.8-0.8 M463.4,338.3l0.8-0.8 M468.4,333.3l6.7-6.7l5.8,5.8
					l-13.3,13.3l-5.8-5.8l0.8-0.8L468.4,333.3z M466.8,334.9l0.8-0.8 M484.4,339.7c-0.9,1.7-2,4.1-0.2,5.9c0.6,0.5,1.3,1,2,1.3
					c1.1,0.5,2.1,1.2,3,2c1.9,1.9,2.3,4.4,0.8,5.8s-3.9,1.1-5.8-0.8c-0.8-0.9-1.5-1.9-2-3c-0.3-0.7-0.8-1.4-1.3-2
					c-1.8-1.8-4.2-0.7-5.9,0.2c-1.7,0.9-2.6,1.2-3.2,0.6l13.3-13.3C485.6,337.1,485.3,338,484.4,339.7L484.4,339.7z M485,334.9
					l-15,15l-2.5-2.5l15-15L485,334.9z"/>
				<path style="fill:#161615;" d="M487.9,357.6c-1.7,0-3.5-0.8-4.9-2.3c-1-1-1.7-2.4-2.3-3.4c-0.4-0.7-0.7-1.3-1-1.6
					c-0.9-0.9-2-0.4-3.9,0.5c-1.6,0.8-3.4,1.7-4.9,0.6c-0.7,0.4-1.5,0.3-2.1-0.4l-2.5-2.5c-0.6-0.6-0.7-1.4-0.4-2.1l-5.4-5.4
					c-0.7-0.7-0.7-1.8,0-2.6l13.3-13.3c0.8-0.7,1.8-0.7,2.6,0l5.5,5.5c0.7-0.3,1.4-0.2,2,0.3l2.6,2.5c0.6,0.6,0.7,1.4,0.4,2.1
					c1,1.5,0.2,3.3-0.6,4.9c-0.9,1.8-1.4,3-0.5,3.9c0.3,0.3,0.9,0.6,1.5,0.9c1.1,0.6,2.4,1.3,3.5,2.4c2.6,2.6,2.9,6.1,0.8,8.4
					C490.5,357.1,489.3,357.6,487.9,357.6C487.9,357.6,487.9,357.6,487.9,357.6z M483.2,353.7c0.2,0.3,0.4,0.5,0.7,0.8
					c1.2,1.2,2.7,1.9,4.1,1.9c1,0,1.9-0.4,2.5-1.1c0.4-0.4,0.7-1,0.9-1.5c-0.2,0.5-0.5,1-0.9,1.4c-1.8,1.6-4.6,1.3-6.7-0.8
					C483.6,354.1,483.4,353.9,483.2,353.7z M478.6,347.3c0.9,0,1.9,0.3,2.8,1.2c0.7,0.8,1.2,1.5,1.4,2.2c0.4,1,1.1,1.9,1.9,2.8
					c1.6,1.6,3.6,1.9,4.9,0.8c0.5-0.4,0.7-1,0.7-1.7c0-1.1-0.5-2.2-1.5-3.2c-0.9-0.8-1.9-1.4-2.8-1.9c-0.6-0.3-1.4-0.7-2.1-1.4
					c-2.3-2.3-0.7-5.2,0-6.7l0,0c0.4-0.7,0.6-1.2,0.7-1.6l-11.5,11.5c0.4-0.1,0.9-0.4,1.6-0.7C475.6,348.1,477.1,347.3,478.6,347.3z
					 M470.9,349.8l0.4,0.4c0.9,0.9,2,0.4,3.9-0.5c1.8-0.9,3.7-1.8,5.3-0.3c0,0,0,0,0,0c-0.1-0.1-0.1-0.1-0.2-0.2
					c-1.3-1.3-3-0.8-5.1,0.4c-1.6,0.9-3,1.5-3.9,0.5L470.9,349.8L470.9,349.8z M481.3,350.5c0,0.1,0.1,0.1,0.1,0.2
					C481.4,350.6,481.3,350.6,481.3,350.5z M468.4,347.4l1.6,1.6l14.1-14.1l-1.6-1.6L468.4,347.4z M462.7,339.9l4.9,4.9l12.4-12.4
					l-4.9-4.9l-11.3,11.3v0L462.7,339.9z M485,340c-0.4,0.8-0.8,1.6-1,2.3C484.2,341.5,484.6,340.8,485,340C485,340,485,340,485,340
					C485,339.9,485,340,485,340L485,340z M474.8,326c-0.1,0-0.1,0.1-0.1,0.1l-13.3,13.3c0,0-0.1,0.1-0.1,0.1L474.8,326z
					 M482.9,331.9l2.7,2.7c0-0.1-0.1-0.1-0.1-0.1L482.9,331.9C482.9,331.9,482.9,331.9,482.9,331.9z M481.7,332.3L481.7,332.3
					L481.7,332.3L481.7,332.3z"/>
			</g>
		</g>
		<g>
			<g>
				<defs>
					<path id="SVGID_1_p" d="M493.7,352c0,1.9-0.7,3.9-1.7,4.8c-1.1,1.1-2.6,1.7-4.2,1.7c-2,0-4-0.9-5.6-2.6
						c-1.1-1.1-1.9-2.5-2.5-3.6c-0.3-0.5-0.6-1.2-0.8-1.3c-0.3-0.3-0.9-0.2-2.7,0.7c-1.5,0.8-3.6,1.8-5.5,0.8c-0.9,0.2-2,0-2.7-0.7
						l-2.5-2.5c-0.6-0.6-0.9-1.6-0.8-2.4l-5-5c-0.5-0.5-0.8-1.2-0.8-2s0.3-1.5,0.8-2l13.3-13.3c1.1-1.1,2.9-1.1,4,0l5,5
						c0.9-0.1,1.8,0.1,2.5,0.8l2.5,2.5c0.5,0.5,0.8,1.2,0.8,2c0,0.2,0,0.5-0.1,0.7c0.9,1.9-0.1,3.9-0.8,5.4c-0.9,1.8-1,2.4-0.7,2.7
						c0.2,0.2,0.9,0.6,1.3,0.8c1.1,0.6,2.5,1.4,3.7,2.5C492.6,348.5,493.5,350.3,493.7,352h33.1v-68.3H415.2v111.6h111.6V352H493.7z
						"/>
				</defs>
				<clipPath id="SVGID_2_p">
					<use xlink:href="#SVGID_1_p"  style="overflow:visible;"/>
				</clipPath>
				<g id="Rectangle_160" style="clip-path:url(#SVGID_2_p);">
					<path style="fill:#161615;" d="M475.3,359.3h-22.1c-0.8,0-1.4-0.6-1.4-1.4v-37.8c0-0.8,0.6-1.4,1.4-1.4h22.1
						c0.8,0,1.4,0.6,1.4,1.4v37.8C476.7,358.7,476.1,359.3,475.3,359.3z M454.6,356.5h19.4v-35h-19.4V356.5z"/>
				</g>
			</g>
		</g>
	</g>
	<g id="Tracé_865">
		<path style="fill:#161615;" d="M506.2,357.5l-2.7-1.4c6.2-12,5.3-26.3-2.3-37.5l2.5-1.7C512,329,512.9,344.6,506.2,357.5z"/>
	</g>
	<g id="Tracé_866">
		<path style="fill:#161615;" d="M435.3,357.1c-6.3-12.7-5.5-27.9,2.3-39.7l2.5,1.6c-7.2,10.9-8,25-2.1,36.7L435.3,357.1z"/>
	</g>
</g>
</svg>
