
<!-- Generator: Adobe Illustrator 24.3.0, SVG Export Plug-In . SVG Version: 6.00 Build 0)  -->
<svg version="1.1" id="macon" xmlns="http://www.w3.org/2000/svg" xmlns:xlink="http://www.w3.org/1999/xlink" x="0px" y="0px"
	 viewBox="0 0 111.6 111.6" style="enable-background:new 0 0 111.6 111.6;" xml:space="preserve">
<g>
	<g id="Groupe_459" transform="translate(-667.627 -281.533)">
		<g id="Ellipse_21">
			<path style="fill:#161615;" d="M723.4,393.1c-30.8,0-55.8-25-55.8-55.8c0-30.8,25-55.8,55.8-55.8s55.8,25,55.8,55.8
				C779.2,368.1,754.2,393.1,723.4,393.1z M723.4,284.5c-29.1,0-52.8,23.7-52.8,52.8c0,29.1,23.7,52.8,52.8,52.8
				s52.8-23.7,52.8-52.8C776.2,308.2,752.5,284.5,723.4,284.5z"/>
		</g>
		<g id="Groupe_454">
			<g id="Groupe_453">
				<g id="Tracé_888">
					<path style="fill:#161615;" d="M706.7,308.2l-3.5-5l0.6,5.3l-0.6,0.4l-4.7-2.4l3.5,5l-1.1,0.8l-4.9-7l1.2-0.8l5.3,2.7l-0.7-5.9
						l1.2-0.8l4.9,7L706.7,308.2z"/>
				</g>
				<g id="Tracé_889">
					<path style="fill:#161615;" d="M716,303.4l0.4,1.1l-5.6,1.8l-2.6-8.1l5.5-1.7l0.4,1.1l-4.2,1.3l0.7,2.3l3.6-1.2l0.3,1.1
						l-3.6,1.1l0.8,2.5L716,303.4z M711.1,296.3h-0.9l0.3-1.5l1.2-0.4L711.1,296.3z"/>
				</g>
				<g id="Tracé_890">
					<path style="fill:#161615;" d="M724.9,296.4l-2.8,0.1l0.4,7.3l-1.4,0.1l-0.4-7.3l-2.8,0.1l-0.1-1.2l7-0.4L724.9,296.4z"/>
				</g>
				<g id="Tracé_891">
					<path style="fill:#161615;" d="M727.8,304.2l1.3-8.4l1.3,0.2l-1.3,8.4L727.8,304.2z"/>
				</g>
				<g id="Tracé_892">
					<path style="fill:#161615;" d="M738.3,305.9l-0.4,1.1l-5.5-2l2.9-8l5.4,2l-0.4,1.1l-4.1-1.5l-0.8,2.3l3.6,1.3l-0.4,1l-3.6-1.3
						l-0.9,2.4L738.3,305.9z"/>
				</g>
				<g id="Tracé_893">
					<path style="fill:#161615;" d="M740.3,308.3l4.9-7l3,2.1c0.3,0.2,0.6,0.5,0.7,0.8c0.2,0.3,0.3,0.6,0.3,1c0,0.3,0,0.7-0.1,1
						s-0.2,0.7-0.4,0.9c-0.2,0.2-0.4,0.4-0.6,0.6c-0.2,0.2-0.4,0.3-0.7,0.4c-0.2,0.1-0.5,0.2-0.8,0.2s-0.5,0-0.8-0.1l-0.2,3.8
						l-1.2-0.9l0.2-3.5l-1.6-1.1l-1.7,2.4L740.3,308.3z M743.8,305.7l1.9,1.4c0.1,0.1,0.3,0.2,0.5,0.2s0.4,0,0.5-0.1
						c0.2-0.1,0.4-0.1,0.5-0.3c0.2-0.1,0.3-0.3,0.4-0.4c0.1-0.2,0.2-0.4,0.3-0.6c0-0.2,0.1-0.4,0-0.6c0-0.2-0.1-0.4-0.2-0.5
						c-0.1-0.2-0.2-0.3-0.3-0.4l-1.9-1.3L743.8,305.7z"/>
				</g>
			</g>
		</g>
		<g id="Groupe_456">
			<g id="Groupe_455">
				<g id="Tracé_894">
					<path style="fill:#161615;" d="M701.5,373.2l3.5-5l-4.7,2.3l-0.6-0.4l0.6-5.3l-3.5,5l-1.1-0.8l4.9-7l1.2,0.8l-0.7,5.9l5.3-2.6
						l1.2,0.8l-4.9,7L701.5,373.2z"/>
				</g>
				<g id="Tracé_895">
					<path style="fill:#161615;" d="M713.2,369.2l1.1,0.3l0.7,9.1l-1.4-0.4l-0.2-2.5l-3.1-1l-1.5,2l-1.4-0.4L713.2,369.2z
						 M713.5,374.7l-0.2-3.9l-2.4,3.1L713.5,374.7z"/>
				</g>
				<g id="Tracé_896">
					<path style="fill:#161615;" d="M722.2,380.8c0.1,0.1,0.3,0.1,0.4,0.2c0.2,0.1,0.4,0.1,0.6,0.1c0.2,0,0.3,0,0.5-0.1
						s0.2-0.3,0.1-0.5c0-0.1-0.1-0.1-0.1-0.1c-0.1-0.1-0.3-0.1-0.4-0.1c-0.2,0-0.4,0-0.5,0s-0.3,0.1-0.4,0.1l0.6-1
						c-0.5,0-1.1-0.2-1.5-0.5c-0.5-0.3-0.9-0.6-1.2-1s-0.6-0.9-0.8-1.4c-0.4-1-0.3-2.1,0-3.1c0.2-0.5,0.5-1,0.8-1.4
						c0.4-0.4,0.8-0.7,1.3-1c0.5-0.2,1.1-0.4,1.7-0.4c0.7,0,1.4,0.2,2,0.5c0.5,0.3,1,0.8,1.2,1.4l-1.1,0.7c-0.1-0.2-0.2-0.5-0.4-0.7
						s-0.3-0.3-0.5-0.4s-0.4-0.2-0.6-0.2c-0.2,0-0.4-0.1-0.6-0.1c-0.4,0-0.8,0.1-1.2,0.3c-0.3,0.2-0.6,0.4-0.9,0.7
						c-0.2,0.3-0.4,0.6-0.5,1s-0.2,0.7-0.2,1.1s0.1,0.8,0.2,1.2c0.1,0.4,0.3,0.7,0.6,1c0.2,0.3,0.5,0.5,0.9,0.7
						c0.3,0.2,0.7,0.3,1.1,0.3c0.2,0,0.4,0,0.6-0.1c0.2-0.1,0.4-0.1,0.6-0.2c0.2-0.1,0.4-0.3,0.6-0.4c0.2-0.2,0.3-0.4,0.4-0.6
						l1.1,0.6c-0.1,0.3-0.3,0.6-0.5,0.8c-0.2,0.2-0.5,0.4-0.8,0.6s-0.6,0.3-0.9,0.4c-0.3,0.1-0.6,0.1-1,0.2l-0.3,0.5
						c0.1,0,0.1,0,0.2,0c0.1,0,0.1,0,0.2,0c0.2,0,0.5,0.1,0.7,0.2s0.3,0.4,0.3,0.6c0,0.3-0.1,0.5-0.4,0.7c-0.3,0.2-0.7,0.3-1.1,0.3
						c-0.2,0-0.5,0-0.7-0.1c-0.2,0-0.4-0.1-0.5-0.2L722.2,380.8z"/>
				</g>
				<g id="Tracé_897">
					<path style="fill:#161615;" d="M735.3,377.6c-0.5,0.2-1.1,0.2-1.7,0.1c-0.5-0.1-1.1-0.3-1.5-0.6c-0.5-0.3-0.9-0.7-1.2-1.1
						s-0.6-0.9-0.7-1.4c-0.2-0.5-0.2-1.1-0.2-1.7c0-0.5,0.2-1.1,0.4-1.6s0.6-0.9,1-1.3s0.9-0.6,1.5-0.8c0.6-0.2,1.1-0.2,1.7-0.1
						c0.5,0.1,1.1,0.3,1.5,0.6c0.5,0.3,0.9,0.7,1.2,1.1c0.7,0.9,1,2,0.9,3.1c0,0.5-0.2,1.1-0.4,1.6s-0.6,0.9-1,1.3
						C736.4,377.2,735.9,377.5,735.3,377.6z M731.5,374.2c0.1,0.4,0.3,0.7,0.5,1.1c0.2,0.3,0.5,0.6,0.8,0.8c0.3,0.2,0.7,0.4,1,0.4
						c0.4,0.1,0.8,0,1.2-0.1s0.7-0.3,1-0.6c0.3-0.3,0.5-0.6,0.6-0.9c0.1-0.4,0.2-0.7,0.2-1.1c0-0.8-0.2-1.6-0.7-2.2
						c-0.2-0.3-0.5-0.6-0.8-0.8c-0.3-0.2-0.7-0.3-1-0.4c-0.8-0.1-1.6,0.1-2.2,0.7c-0.3,0.3-0.5,0.6-0.6,0.9
						c-0.1,0.4-0.2,0.7-0.2,1.1C731.4,373.5,731.4,373.9,731.5,374.2z"/>
				</g>
				<g id="Tracé_898">
					<path style="fill:#161615;" d="M742,368.2l3.4,4.9l-1.1,0.8l-4.8-7l0.9-0.6l7.5,2.3l-3.5-5l1.1-0.8l4.8,7l-0.9,0.6L742,368.2z"
						/>
				</g>
			</g>
		</g>
		<g id="Groupe_458">
			<path id="Tracé_899" style="fill:#040506;" d="M741.3,315.7l-0.1-0.1c-0.8-0.9-2-1.4-3.2-1.5c-1.2-0.1-2.4,0.4-3.3,1.2l-6.2,6.3
				c-0.4,0.4-0.4,1.1,0,1.5l0.6,0.7l-0.8,1.8l-0.8-1c-0.4-0.5-1-0.9-1.7-0.9c-0.7-0.1-1.3,0.1-1.8,0.6c-0.3,0.2-0.6,0.6-0.7,1
				l-4.7,11.4c-0.5,1.3,0.1,2.7,1.3,3.3c0.3,0.1,0.6,0.2,0.9,0.2c0.2,0,0.4,0,0.6-0.1l11.5-3c1.3-0.4,2.1-1.7,1.8-3.1
				c-0.1-0.3-0.2-0.7-0.5-0.9l-1.7-2.2l1.3-2.3c0.1,0,0.2,0.1,0.4,0.1h0.2c0.3,0,0.4-0.2,0.6-0.3l6.2-6.3
				C742.9,320.4,743,317.6,741.3,315.7z M729.7,327.6l1-2l1.3,1.4l0.2,0.2l-1.1,2L729.7,327.6z M732.6,334.9l-11.6,3
				c-0.1,0-0.2,0-0.3,0c-0.1,0-0.1-0.1-0.1-0.1c0,0,0,0,0,0v-0.4l4.7-11.3c0.1-0.1,0.1-0.2,0.2-0.2h0.1c0.1,0,0.2,0.1,0.3,0.2
				l6.9,8.4C732.7,334.5,732.9,334.7,732.6,334.9z M739.6,320.5l-5.4,5.5l-3-3.2l-0.4-0.4l5.3-5.4c0.3-0.3,0.7-0.5,1.1-0.6l0.1,0
				c0.1-0.1,0.4-0.1,0.5-0.1c0.7,0,1.3,0.3,1.7,0.8l0.1,0.1C740.6,318.1,740.6,319.6,739.6,320.5z"/>
			<g>
				<g>
					<defs>
						<path id="SVGID_1_" d="M779.2,281.5H667.6v111.6h111.6V281.5L740.7,317l0.8,2.8l-7.1,7.6h-1.3l-2.2,3.7l2.6,3.4
							c0.3,0.3,0.2,0.8-0.1,1.1c-0.1,0.1-0.2,0.1-0.3,0.1l-12.6,3.3c-0.4,0.1-0.8-0.1-0.9-0.5c0-0.2,0-0.3,0-0.5l5.2-12.5
							c0.1-0.2,0.3-0.4,0.5-0.5h0.1c0.3,0,0.5,0.1,0.7,0.3l2,2.5l2.3-4.3l-1.4-1.3l7.7-7l3.9,2L779.2,281.5z"/>
					</defs>
					<clipPath id="SVGID_2_">
						<use xlink:href="#SVGID_1_"  style="overflow:visible;"/>
					</clipPath>
					<g id="Groupe_457" style="clip-path:url(#SVGID_2_);">
						<g id="Tracé_900">
							<path style="fill:#040506;" d="M723.8,355.6h-25.3v-24.8h2.3v11.9h23V355.6z M700.8,353.4h20.8v-8.5h-20.8V353.4z"/>
						</g>
						<g id="Tracé_901">
							<polygon style="fill:#040506;" points="746.7,355.6 722.6,355.6 722.6,353.4 744.5,353.4 744.5,344.9 722.7,344.9 
								722.7,342.7 746.7,342.7 							"/>
						</g>
						<g id="Tracé_902">
							<polygon style="fill:#040506;" points="717.1,343.3 714.9,343.3 714.9,333 700,333 700,330.8 717.1,330.8 							"/>
						</g>
						<g id="Ligne_65_1_">
							<polygon style="fill:#040506;" points="735.3,343.7 733.1,343.7 733.1,333.1 716,333 716,330.8 721.8,330.8 735.3,330.9 
															"/>
						</g>
					</g>
				</g>
			</g>
		</g>
		<g id="Tracé_903">
			<path style="fill:#161615;" d="M688.7,357.5c-7.6-12.9-7.6-28.8,0.2-41.5l2.6,1.6c-7.2,11.8-7.3,26.5-0.2,38.5L688.7,357.5z"/>
		</g>
		<g id="Tracé_904">
			<path style="fill:#161615;" d="M758.1,357.6l-2.6-1.5c7-11.8,7-26.4,0-38.3l2.6-1.5C765.7,329,765.7,344.9,758.1,357.6z"/>
		</g>
	</g>
</g>
<g id="Calque_2_1_">
	<rect style="display:none;fill:#FFFFFF;" width="111.6" height="111.6"/>
</g>
</svg>
