
<!-- Generator: Adobe Illustrator 24.3.0, SVG Export Plug-In . SVG Version: 6.00 Build 0)  -->
<svg version="1.1" id="tailleur1" xmlns="http://www.w3.org/2000/svg" xmlns:xlink="http://www.w3.org/1999/xlink" x="0px" y="0px"
	 viewBox="0 0 111.6 111.6" style="enable-background:new 0 0 111.6 111.6;" xml:space="preserve">
<style type="text/css">
	/* .st0{fill:#161615;}
	.st1{fill:none;} */
	.st2Tailleur{clip-path:url(#SVGID_2_2);}
</style>
<g id="Groupe_509" transform="translate(217.619 -114.623)">
	<path id="Tracé_1039" class="st0" d="M-161.8,226.2c-30.8,0-55.7-25-55.8-55.8c0-30.8,25-55.7,55.8-55.8c30.8,0,55.7,25,55.8,55.8
		C-106.1,201.2-131,226.1-161.8,226.2z M-161.8,117.6c-29.1,0-52.7,23.6-52.8,52.8c0,29.1,23.6,52.7,52.8,52.8
		c29.1,0,52.7-23.6,52.8-52.8C-109.1,141.3-132.7,117.7-161.8,117.6z"/>
	<path id="Tracé_1040" class="st0" d="M-196.7,153.7l-2.7-1.3c2-4.3,4.8-8.3,8.1-11.7l2.1,2.1C-192.2,146-194.8,149.6-196.7,153.7z
		"/>
	<path id="Tracé_1041" class="st0" d="M-127.5,153.7c-1.9-4-4.4-7.7-7.6-10.8l2.1-2.1c3.4,3.4,6.1,7.3,8.2,11.7L-127.5,153.7z"/>
	<path id="Tracé_1042" class="st0" d="M-176.9,136.9l-2.7-4.9v4.8l-0.6,0.3l-4.1-2.6l2.7,4.9l-1.1,0.6l-3.7-6.8l1.2-0.6l4.5,3v-5.4
		l1.2-0.6l3.7,6.8L-176.9,136.9z"/>
	<path id="Tracé_1043" class="st0" d="M-168,133.1l0.3,1.1l-5.2,1.3l-1.9-7.6l5.1-1.3l0.3,1.1l-3.9,1l0.5,2.1l3.4-0.8l0.2,1
		l-3.4,0.8l0.6,2.3L-168,133.1z M-172.1,126.4h-0.8l0.3-1.3l1.1-0.3L-172.1,126.4z"/>
	<path id="Tracé_1044" class="st0" d="M-159.7,127l-2.6,0.1l0.2,6.7h-1.2l-0.2-6.7l-2.6,0.1v-1.1l6.4-0.2L-159.7,127z"/>
	<path id="Tracé_1045" class="st0" d="M-157.2,134.1l1.1-7.7l1.2,0.2l-1.1,7.7L-157.2,134.1z"/>
	<path id="Tracé_1046" class="st0" d="M-147.5,135.4l-0.3,1l-5.1-1.6l2.4-7.4l5,1.6l-0.3,1l-3.8-1.2l-0.7,2.1l3.3,1.1l-0.3,1
		l-3.3-1.1l-0.7,2.3L-147.5,135.4z"/>
	<path id="Tracé_1047" class="st0" d="M-145.5,137.5l4-6.7l2.9,1.7c0.3,0.2,0.5,0.4,0.7,0.7s0.3,0.6,0.4,0.9c0.1,0.3,0.1,0.6,0,1
		c0,0.3-0.2,0.6-0.3,0.9c-0.1,0.2-0.3,0.4-0.5,0.6c-0.2,0.2-0.4,0.3-0.6,0.4c-0.2,0.1-0.4,0.2-0.7,0.2c-0.2,0-0.5,0-0.7,0l0.1,3.5
		l-1.2-0.7l-0.1-3.2l-1.5-0.9l-1.4,2.3L-145.5,137.5z M-142.5,134.9l1.8,1.1c0.1,0.1,0.3,0.1,0.5,0.1s0.3,0,0.5-0.1s0.3-0.2,0.4-0.3
		c0.1-0.1,0.3-0.3,0.4-0.4c0.1-0.2,0.2-0.3,0.2-0.5s0-0.4,0-0.5c0-0.2-0.1-0.3-0.2-0.5c-0.1-0.1-0.2-0.3-0.3-0.3l-1.8-1.1
		L-142.5,134.9z"/>
	<path id="Tracé_1048" class="st0" d="M-199.2,166.5l0.5-2.5l-6.6-1.3l0.2-1.2l6.6,1.3l0.5-2.6l1.1,0.2l-1.2,6.3L-199.2,166.5z"/>
	<path id="Tracé_1049" class="st0" d="M-198.2,170.7v1.1l-7.7,3.3v-1.3l2.1-0.9l-0.1-3l-2.1-0.8v-1.3L-198.2,170.7z M-202.9,172.6
		l3.3-1.3l-3.4-1.2L-202.9,172.6z"/>
	<path id="Tracé_1050" class="st0" d="M-205.1,178.9l7.6-1.6l0.3,1.2l-7.6,1.6L-205.1,178.9z"/>
	<path id="Tracé_1051" class="st0" d="M-203.7,184.6l7.2-2.9l0.5,1.1l-6.2,2.5l1.5,3.9l-1,0.4L-203.7,184.6z"/>
	<path id="Tracé_1052" class="st0" d="M-199.7,193.2l6.4-4.4l0.7,1l-5.5,3.7l2.3,3.5l-0.9,0.6L-199.7,193.2z"/>
	<path id="Tracé_1053" class="st0" d="M-189.3,203.7l-0.7,0.8l-3.9-3.7l5.3-5.7l3.8,3.6l-0.7,0.8l-2.9-2.7l-1.5,1.6l2.5,2.4
		l-0.7,0.7l-2.5-2.4l-1.6,1.7L-189.3,203.7z"/>
	<path id="Tracé_1054" class="st0" d="M-183,207.9c0.3,0.2,0.6,0.3,1,0.3c0.3,0,0.6-0.1,0.9-0.2c0.3-0.2,0.5-0.4,0.7-0.6
		c0.2-0.3,0.4-0.5,0.6-0.8l1.9-3.4l1.1,0.6l-1.9,3.4c-0.2,0.4-0.5,0.9-0.9,1.2c-0.3,0.3-0.7,0.6-1.1,0.8c-0.4,0.2-0.9,0.3-1.3,0.2
		c-0.5,0-1-0.2-1.5-0.5s-0.9-0.6-1.2-1.1c-0.3-0.4-0.4-0.8-0.5-1.3s0-0.9,0.1-1.4s0.3-0.9,0.6-1.4l1.9-3.4l1.1,0.6l-1.9,3.4
		c-0.2,0.3-0.3,0.6-0.4,1c-0.1,0.3-0.1,0.6-0.1,0.9c0,0.3,0.1,0.6,0.3,0.9C-183.6,207.5-183.3,207.8-183,207.9z"/>
	<path id="Tracé_1055" class="st0" d="M-175.8,212.3l2-7.5l3.3,0.9c0.3,0.1,0.6,0.2,0.9,0.5c0.2,0.2,0.4,0.5,0.6,0.8
		c0.1,0.3,0.2,0.6,0.3,0.9c0,0.3,0,0.6-0.1,0.9c-0.1,0.2-0.2,0.5-0.3,0.7s-0.3,0.4-0.5,0.6c-0.2,0.2-0.4,0.3-0.6,0.4
		c-0.2,0.1-0.5,0.1-0.7,0.2l1,3.3l-1.3-0.4l-0.9-3l-1.7-0.5l-0.7,2.6L-175.8,212.3z M-173.7,209l2.1,0.6c0.2,0,0.3,0,0.5,0
		s0.3-0.1,0.4-0.2c0.1-0.1,0.3-0.2,0.4-0.4c0.1-0.2,0.2-0.3,0.2-0.5c0.1-0.2,0.1-0.4,0-0.6c0-0.2-0.1-0.4-0.1-0.5
		c-0.1-0.2-0.2-0.3-0.3-0.4c-0.1-0.1-0.3-0.2-0.4-0.2l-2-0.5L-173.7,209z"/>
	<path id="Tracé_1056" class="st0" d="M-160.3,214.6l-0.8-7.7l2.7-0.3c0.6-0.1,1.1,0,1.7,0.1c0.5,0.1,0.9,0.4,1.3,0.7
		c0.4,0.3,0.6,0.7,0.8,1.2s0.3,1,0.4,1.5c0.1,0.5,0,1.1-0.1,1.6s-0.3,0.9-0.6,1.3c-0.3,0.4-0.7,0.7-1.1,0.9c-0.5,0.2-1,0.4-1.5,0.4
		L-160.3,214.6z M-155.4,210.2c0-0.4-0.1-0.8-0.3-1.1c-0.1-0.3-0.3-0.6-0.6-0.8c-0.2-0.2-0.5-0.4-0.9-0.5s-0.7-0.1-1.1-0.1l-1.5,0.2
		l0.6,5.6l1.5-0.2c0.4,0,0.7-0.1,1.1-0.3c0.3-0.2,0.5-0.4,0.7-0.7s0.3-0.6,0.4-0.9C-155.4,210.9-155.4,210.5-155.4,210.2
		L-155.4,210.2z"/>
	<path id="Tracé_1057" class="st0" d="M-144.6,210l0.4,1l-5,1.8l-2.6-7.3l4.9-1.8l0.4,1l-3.8,1.3l0.7,2.1l3.3-1.2l0.3,1l-3.3,1.2
		l0.8,2.2L-144.6,210z"/>
	<path id="Tracé_1058" class="st0" d="M-135.9,206.2l-4.9-6l2.5-2.1c0.3-0.2,0.6-0.4,0.9-0.4c0.3-0.1,0.6-0.1,1,0
		c0.3,0.1,0.6,0.2,0.9,0.3c0.3,0.2,0.5,0.4,0.7,0.6c0.2,0.3,0.4,0.5,0.5,0.8s0.2,0.6,0.1,0.9c0,0.3-0.1,0.6-0.2,0.9
		c-0.1,0.3-0.3,0.6-0.6,0.8l-1.6,1.3l1.7,2.1L-135.9,206.2z M-137.4,202.5l1.6-1.3c0.1-0.1,0.2-0.2,0.3-0.4c0.1-0.1,0.1-0.3,0.1-0.5
		s0-0.3-0.1-0.5s-0.2-0.4-0.3-0.5c-0.1-0.2-0.3-0.3-0.5-0.4c-0.2-0.1-0.3-0.2-0.5-0.2s-0.3,0-0.5,0s-0.3,0.1-0.4,0.2l-1.5,1.2
		L-137.4,202.5z"/>
	<path id="Tracé_1059" class="st0" d="M-128.8,199.6l-5.9-5.1l0.8-0.9l5.9,5.1L-128.8,199.6z"/>
	<path id="Tracé_1060" class="st0" d="M-123.4,189.9l0.9,0.6l-2.7,4.6l-6.7-4l2.7-4.5l0.9,0.6l-2.1,3.4l1.9,1.1l1.8-3l0.9,0.5
		l-1.8,3l2,1.2L-123.4,189.9z"/>
	<path id="Tracé_1061" class="st0" d="M-120.6,186.3l-7.4-2.3l1-3.2c0.1-0.3,0.3-0.6,0.5-0.9c0.2-0.2,0.5-0.4,0.8-0.6
		c0.3-0.1,0.6-0.2,0.9-0.2s0.6,0,0.9,0.1c0.2,0.1,0.5,0.2,0.7,0.3s0.4,0.3,0.5,0.5c0.2,0.2,0.3,0.4,0.4,0.6c0.1,0.2,0.1,0.5,0.1,0.7
		l3.4-0.9l-0.4,1.3l-3.1,0.8l-0.5,1.7l2.6,0.8L-120.6,186.3z M-123.8,184l0.6-2c0.1-0.2,0.1-0.3,0-0.5c0-0.2-0.1-0.3-0.2-0.4
		c-0.1-0.1-0.2-0.3-0.4-0.4c-0.2-0.1-0.3-0.2-0.5-0.3s-0.4-0.1-0.6-0.1s-0.4,0.1-0.5,0.1c-0.2,0.1-0.3,0.2-0.4,0.3s-0.2,0.3-0.2,0.4
		l-0.6,2L-123.8,184z"/>
	<path id="Tracé_1062" class="st0" d="M-118,176.1l-7.8-0.5l0.2-3.4c0-0.3,0.1-0.7,0.3-1c0.2-0.3,0.4-0.5,0.6-0.7
		c0.3-0.2,0.5-0.3,0.8-0.4c0.3-0.1,0.6-0.1,0.9-0.1s0.5,0.1,0.7,0.2c0.2,0.1,0.4,0.2,0.6,0.4c0.2,0.1,0.4,0.3,0.5,0.5
		s0.2,0.4,0.3,0.6l3.1-1.6l-0.1,1.4l-2.8,1.5l-0.1,1.8l2.7,0.2L-118,176.1z M-121.7,174.6l0.1-2.1c0-0.2,0-0.3-0.1-0.5
		c-0.1-0.1-0.2-0.3-0.3-0.4c-0.1-0.1-0.3-0.2-0.4-0.3c-0.2-0.1-0.4-0.1-0.6-0.1s-0.4,0-0.6,0.1s-0.3,0.1-0.5,0.2
		c-0.1,0.1-0.2,0.2-0.3,0.4c-0.1,0.1-0.1,0.3-0.1,0.5l-0.1,2.1L-121.7,174.6z"/>
	<path id="Tracé_1063" class="st0" d="M-119.9,160.5l1.1-0.2l0.9,5.3l-7.7,1.3l-0.9-5.2l1.1-0.2l0.7,4l2.2-0.4l-0.6-3.4l1-0.2
		l0.6,3.4l2.3-0.4L-119.9,160.5z"/>
	<path class="st1 chisel" d="M-139.9,151.8c-0.9-1.4-2.1-2.7-3.5-3.6c-1.3-1.1-2.8-1.9-4.4-2.4c-0.4-0.1-0.8-0.1-1.2,0
		c-0.2,0.1-0.4,0.2-0.5,0.3l-9.9,13c-0.1,0.1-0.1,0.2-0.1,0.4l-0.2,3.6l-0.8-0.6c-0.5-0.4-1.2-0.4-1.5-0.1l-5.8,7.6
		c-0.3,0.4-0.1,1,0.5,1.4l7.7,5.9c0.3,0.2,0.6,0.3,0.9,0.3c0.2,0,0.5-0.1,0.6-0.3l5.8-7.6c0.3-0.4,0.1-1-0.5-1.4l-0.8-0.6l3.4-1.1
		c0.1,0,0.2-0.1,0.3-0.2l9.9-13c0.1-0.2,0.2-0.4,0.2-0.5C-139.6,152.5-139.7,152.1-139.9,151.8z M-151.5,164.8l-4.6,1.5
		c-0.2,0.1-0.4,0.2-0.4,0.4c-0.1,0.3,0,0.7,0.2,0.9c0.1,0.1,0.2,0.2,0.3,0.3l1.3,1l-4.7,6.2l-5.8-4.4l4.7-6.2l1.3,1
		c0.3,0.2,0.6,0.3,1,0.3c0.2,0,0.4-0.1,0.5-0.3c0.1-0.1,0.1-0.2,0.1-0.4l0.2-4.9l0.5-0.6l5.8,4.4L-151.5,164.8z M-141.8,152.1
		l-8.2,10.8l-5.8-4.4l8.2-10.8h0.1c1.1,0.4,2.2,1,3.1,1.8C-143.4,150.1-142.5,151-141.8,152.1C-141.9,152-141.8,152.1-141.8,152.1z"
		/>
	<g>
		<defs>
			<path id="SVGID_1_2" d="M-217.6,114.6V226h111.4V114.6H-217.6z M-139.8,152.9c0,0.1-0.1,0.3-0.2,0.5l-9.9,13
				c-0.1,0.1-0.2,0.2-0.3,0.2l-3.4,1.1l0.8,0.6c0.6,0.4,0.8,1,0.5,1.4l-5.8,7.6c-0.1,0.2-0.4,0.3-0.6,0.3c-0.3,0-0.6-0.1-0.9-0.3
				l-7.7-5.9c-0.6-0.4-0.8-1-0.5-1.4l5.8-7.6c0.3-0.3,1-0.3,1.5,0.1l0.8,0.6l0.2-3.6c0-0.2,0-0.3,0.1-0.4l9.9-13
				c0.1-0.1,0.3-0.2,0.5-0.3c0.4-0.1,0.8-0.1,1.2,0c1.6,0.5,3.1,1.3,4.4,2.4c1.4,0.9,2.6,2.2,3.5,3.6
				C-139.7,152.1-139.6,152.5-139.8,152.9z"/>
		</defs>
		<clipPath id="SVGID_2_2">
			<use xlink:href="#SVGID_1_2"  style="overflow:visible;"/>
		</clipPath>
		<g id="Groupe_506" class="st2Tailleur">
			<path id="Tracé_1064" class="st0 stone" d="M-147.4,191.4h-34.4V149l14.4,2.4l8.1-2.5l-0.3,5.5l-1.7,3.5l1.8,6.3l-2.2,0.6l-2-7.1
				l1.9-3.8l0.1-1.8l-5.5,1.7l-11.1-1.8l7.3,11.3l-1.6,1.5l3.9,5.5l-0.8,8.4l9.6,5.5l8.3-5.2h4.5L-147.4,191.4z M-179.6,189.2h29.9
				l0.1-8.2h-1.6l-8.9,5.6l-12-6.9l0.8-9l-4.5-6.4l1.7-1.5l-5.6-8.6L-179.6,189.2z"/>
		</g>
	</g>
	<path class="st0 chisel" d="M-139.9,151.8c-0.9-1.4-2.1-2.7-3.5-3.6c-1.3-1.1-2.8-1.9-4.4-2.4c-0.4-0.1-0.8-0.1-1.2,0
		c-0.2,0.1-0.4,0.2-0.5,0.3l-9.9,13c-0.1,0.1-0.1,0.2-0.1,0.4l-0.2,3.6l-0.8-0.6c-0.5-0.4-1.2-0.4-1.5-0.1l-5.8,7.6
		c-0.3,0.4-0.1,1,0.5,1.4l7.7,5.9c0.3,0.2,0.6,0.3,0.9,0.3c0.2,0,0.5-0.1,0.6-0.3l5.8-7.6c0.3-0.4,0.1-1-0.5-1.4l-0.8-0.6l3.4-1.1
		c0.1,0,0.2-0.1,0.3-0.2l9.9-13c0.1-0.2,0.2-0.4,0.2-0.5C-139.6,152.5-139.7,152.1-139.9,151.8z M-151.5,164.8l-4.6,1.5
		c-0.2,0.1-0.4,0.2-0.4,0.4c-0.1,0.3,0,0.7,0.2,0.9c0.1,0.1,0.2,0.2,0.3,0.3l1.3,1l-4.7,6.2l-5.8-4.4l4.7-6.2l1.3,1
		c0.3,0.2,0.6,0.3,1,0.3c0.2,0,0.4-0.1,0.5-0.3c0.1-0.1,0.1-0.2,0.1-0.4l0.2-4.9l0.5-0.6l5.8,4.4L-151.5,164.8z M-141.8,152.1
		l-8.2,10.8l-5.8-4.4l8.2-10.8h0.1c1.1,0.4,2.2,1,3.1,1.8C-143.4,150.1-142.5,151-141.8,152.1C-141.9,152-141.8,152.1-141.8,152.1z"
		/>
	<g id="Groupe_508" class="stone">
		
			<rect id="Rectangle_184" x="-154.1" y="169.8" transform="matrix(0.9985 -5.439357e-02 5.439357e-02 0.9985 -9.7669 -8.0624)" class="st0" width="2.2" height="11.2"/>
	</g>
</g>
</svg>
