
<!-- Generator: Adobe Illustrator 24.3.0, SVG Export Plug-In . SVG Version: 6.00 Build 0)  -->
<svg version="1.1" id="electricien" xmlns="http://www.w3.org/2000/svg" xmlns:xlink="http://www.w3.org/1999/xlink" x="0px"
	 y="0px" viewBox="0 0 111.6 111.6" style="enable-background:new 0 0 111.6 111.6;" xml:space="preserve">
<g id="Groupe_466" transform="translate(-112.429 -436.054)">
	<g id="Ellipse_22">
		<path style="fill:#161615;" d="M168.2,547.6c-30.8,0-55.8-25-55.8-55.8c0-30.8,25-55.8,55.8-55.8c30.8,0,55.8,25,55.8,55.8
			C224,522.6,199,547.6,168.2,547.6z M168.2,439.1c-29.1,0-52.8,23.7-52.8,52.8c0,29.1,23.7,52.8,52.8,52.8
			c29.1,0,52.8-23.7,52.8-52.8C221,462.7,197.3,439.1,168.2,439.1z"/>
	</g>
	<g id="Groupe_461">
		<g id="Groupe_460">
			<g id="Tracé_905">
				<path style="fill:#161615;" d="M154,461.5l-2.5-4.5l0.1,4.4l-0.5,0.3l-3.7-2.3l2.5,4.5l-1,0.5l-3.5-6.2l1-0.6l4.2,2.6l-0.1-4.9
					l1-0.6l3.5,6.2L154,461.5z"/>
			</g>
			<g id="Tracé_906">
				<path style="fill:#161615;" d="M162,457.9l0.3,1l-4.7,1.3l-1.8-6.9l4.6-1.2l0.3,1l-3.5,0.9l0.5,2l3.1-0.8l0.2,0.9l-3.1,0.8
					l0.6,2.1L162,457.9z M158.1,451.8l-0.8,0l0.3-1.2l1-0.3L158.1,451.8z"/>
			</g>
			<g id="Tracé_907">
				<path style="fill:#161615;" d="M169.4,452.2l-2.4,0.1l0.3,6.1l-1.1,0.1l-0.3-6.1l-2.4,0.1l0-1l5.9-0.3L169.4,452.2z"/>
			</g>
			<g id="Tracé_908">
				<path style="fill:#161615;" d="M171.8,458.6l0.9-7l1.1,0.1l-0.9,7L171.8,458.6z"/>
			</g>
			<g id="Tracé_909">
				<path style="fill:#161615;" d="M180.7,459.6l-0.3,0.9l-4.7-1.4l2-6.8l4.6,1.4l-0.3,0.9l-3.5-1.1l-0.6,1.9l3,0.9l-0.3,0.9l-3-0.9
					l-0.6,2.1L180.7,459.6z"/>
			</g>
			<g id="Tracé_910">
				<path style="fill:#161615;" d="M182.5,461.5l3.5-6.2l2.7,1.5c0.3,0.1,0.5,0.4,0.7,0.6c0.2,0.2,0.3,0.5,0.3,0.8
					c0.1,0.3,0.1,0.6,0,0.9c0,0.3-0.1,0.6-0.3,0.8c-0.1,0.2-0.3,0.4-0.4,0.6c-0.2,0.2-0.3,0.3-0.5,0.4c-0.2,0.1-0.4,0.2-0.6,0.2
					c-0.2,0-0.4,0-0.6,0l0.1,3.2l-1.1-0.6l-0.1-2.9l-1.4-0.8l-1.2,2.1L182.5,461.5z M185.1,459l1.7,1c0.1,0.1,0.3,0.1,0.4,0.1
					c0.1,0,0.3,0,0.4-0.1c0.1-0.1,0.3-0.2,0.4-0.3c0.1-0.1,0.2-0.3,0.3-0.4c0.1-0.2,0.1-0.3,0.2-0.5c0-0.2,0-0.3,0-0.5
					c0-0.2-0.1-0.3-0.2-0.4c-0.1-0.1-0.2-0.2-0.3-0.3l-1.7-0.9L185.1,459z"/>
			</g>
		</g>
	</g>
	<g id="Groupe_463">
		<g id="Groupe_462">
			<g id="Tracé_911">
				<path style="fill:#161615;" d="M134.8,512.7l-0.9,0.5l-2.3-4.3l6.3-3.4l2.3,4.2l-0.9,0.5l-1.7-3.2l-1.8,1l1.5,2.8l-0.8,0.4
					l-1.5-2.8l-1.9,1L134.8,512.7z"/>
			</g>
			<g id="Tracé_912">
				<path style="fill:#161615;" d="M136.3,516.5l5.4-4.6l0.7,0.8l-4.6,4l2.5,2.9l-0.7,0.6L136.3,516.5z"/>
			</g>
			<g id="Tracé_913">
				<path style="fill:#161615;" d="M146.9,524.9l-0.6,0.8l-3.9-2.9l4.2-5.7l3.8,2.9l-0.6,0.8l-2.9-2.2l-1.2,1.6l2.5,1.9l-0.6,0.7
					l-2.5-1.9l-1.3,1.7L146.9,524.9z"/>
			</g>
			<g id="Tracé_914">
				<path style="fill:#161615;" d="M150.7,524.2c0.2-0.4,0.4-0.8,0.7-1.1c0.3-0.3,0.7-0.6,1.1-0.8c0.4-0.2,0.9-0.3,1.3-0.3
					c0.5,0,1,0.1,1.5,0.3c0.5,0.2,1,0.6,1.3,1.1c0.3,0.4,0.5,0.9,0.5,1.4l-1,0.2c0-0.2,0-0.4-0.1-0.6c-0.1-0.2-0.2-0.3-0.3-0.5
					c-0.1-0.1-0.2-0.3-0.4-0.4c-0.1-0.1-0.3-0.2-0.5-0.3c-0.3-0.1-0.6-0.2-1-0.2c-0.3,0-0.6,0.1-0.9,0.3c-0.3,0.2-0.5,0.4-0.7,0.6
					c-0.2,0.2-0.4,0.5-0.5,0.8c-0.1,0.3-0.2,0.6-0.2,1c0,0.3,0,0.6,0.1,1c0.1,0.3,0.2,0.6,0.4,0.8c0.2,0.2,0.5,0.4,0.8,0.6
					c0.2,0.1,0.3,0.1,0.5,0.2c0.2,0,0.4,0,0.6,0c0.2,0,0.4-0.1,0.6-0.1c0.2-0.1,0.4-0.2,0.5-0.3l0.6,0.9c-0.2,0.2-0.5,0.4-0.7,0.5
					c-0.3,0.1-0.6,0.2-0.8,0.2c-0.6,0-1.2,0-1.7-0.3c-0.4-0.2-0.8-0.5-1.1-0.8c-0.3-0.4-0.5-0.8-0.6-1.2c-0.1-0.4-0.2-0.9-0.2-1.4
					C150.4,525.1,150.6,524.6,150.7,524.2z"/>
			</g>
			<g id="Tracé_915">
				<path style="fill:#161615;" d="M165.1,526l-2.3-0.4l-1.1,6l-1.1-0.2l1.1-6l-2.3-0.4l0.2-1l5.8,1L165.1,526z"/>
			</g>
			<g id="Tracé_916">
				<path style="fill:#161615;" d="M167.9,532.2l-0.4-7.1l3.1-0.2c0.3,0,0.6,0,0.9,0.2c0.3,0.1,0.5,0.3,0.7,0.5
					c0.2,0.2,0.4,0.4,0.5,0.7c0.1,0.3,0.2,0.5,0.2,0.8c0,0.2,0,0.5-0.1,0.7c-0.1,0.2-0.1,0.4-0.2,0.6c-0.1,0.2-0.2,0.4-0.4,0.5
					c-0.2,0.1-0.3,0.3-0.6,0.3l1.8,2.6l-1.3,0.1l-1.7-2.4l-1.6,0.1l0.1,2.5L167.9,532.2z M168.9,528.7l2-0.1c0.2,0,0.3-0.1,0.4-0.1
					c0.1-0.1,0.2-0.2,0.3-0.3c0.1-0.1,0.2-0.3,0.2-0.4c0-0.2,0.1-0.3,0.1-0.5c0-0.2-0.1-0.3-0.1-0.5c-0.1-0.1-0.2-0.3-0.3-0.4
					c-0.1-0.1-0.2-0.2-0.4-0.3c-0.1-0.1-0.3-0.1-0.4-0.1l-1.9,0.1L168.9,528.7z"/>
			</g>
			<g id="Tracé_917">
				<path style="fill:#161615;" d="M177.1,531.1l-1.7-6.9l1.1-0.3l1.7,6.9L177.1,531.1z"/>
			</g>
			<g id="Tracé_918">
				<path style="fill:#161615;" d="M180.4,526.5c-0.2-0.4-0.3-0.8-0.3-1.3c0-0.4,0-0.9,0.1-1.3c0.1-0.4,0.4-0.8,0.7-1.2
					c0.3-0.4,0.7-0.7,1.2-0.9c0.5-0.3,1.1-0.4,1.7-0.3c0.5,0.1,1,0.3,1.4,0.6l-0.6,0.9c-0.2-0.1-0.3-0.3-0.5-0.3
					c-0.2-0.1-0.4-0.1-0.6-0.1c-0.2,0-0.4,0-0.6,0c-0.2,0-0.3,0.1-0.5,0.2c-0.3,0.1-0.6,0.3-0.8,0.6c-0.2,0.2-0.3,0.5-0.4,0.8
					c-0.1,0.3-0.1,0.6-0.1,0.9c0,0.3,0.1,0.6,0.2,0.9c0.1,0.3,0.3,0.6,0.6,0.8c0.2,0.2,0.5,0.4,0.8,0.6c0.3,0.1,0.6,0.2,0.9,0.2
					c0.3,0,0.6,0,0.9-0.2c0.2-0.1,0.3-0.2,0.5-0.3c0.2-0.1,0.3-0.3,0.4-0.4c0.1-0.2,0.2-0.3,0.3-0.5c0.1-0.2,0.1-0.4,0.1-0.6
					l1.1,0.1c0,0.3,0,0.6-0.1,0.8c-0.1,0.3-0.2,0.5-0.4,0.8c-0.2,0.2-0.4,0.4-0.6,0.6c-0.2,0.2-0.5,0.3-0.7,0.5
					c-0.4,0.2-0.9,0.3-1.4,0.3c-0.5,0-0.9-0.1-1.3-0.3c-0.4-0.2-0.8-0.5-1.1-0.8C180.9,527.3,180.6,527,180.4,526.5z"/>
			</g>
			<g id="Tracé_919">
				<path style="fill:#161615;" d="M190.7,525.2l-4-5.8l0.9-0.6l4,5.8L190.7,525.2z"/>
			</g>
			<g id="Tracé_920">
				<path style="fill:#161615;" d="M197.7,517.9l0.7,0.7L195,522l-5-5l3.4-3.4l0.7,0.7l-2.6,2.6l1.4,1.4l2.3-2.2l0.7,0.7l-2.3,2.2
					l1.5,1.5L197.7,517.9z"/>
			</g>
			<g id="Tracé_921">
				<path style="fill:#161615;" d="M197.4,511.7l4.3,2.6l-0.6,1l-6.1-3.7l0.5-0.8l6.5-0.8l-4.4-2.7l0.6-1l6.1,3.7l-0.5,0.8
					L197.4,511.7z"/>
			</g>
		</g>
	</g>
	<g id="Tracé_922">
		<path style="fill:none;stroke:#161615;stroke-width:3;stroke-miterlimit:10;" d="M132.7,491.5"/>
	</g>
	<g id="Groupe_465">
		<g id="Groupe_464">
			<g id="Tracé_923">
				<path style="fill:#040506;" d="M168.6,484.9h5.7c0.6,0,1.1,0.5,1.1,1.1c0,0.1,0,0.2-0.1,0.3l-3.3,10.2l12.2-15.2h-6.4
					c-0.6,0-1.1-0.5-1.1-1.1c0-0.1,0-0.3,0.1-0.4l4.4-10.7h-7.6L168.6,484.9z M167.1,487c-0.6,0-1.1-0.5-1.1-1.1
					c0-0.1,0-0.2,0.1-0.3l5.7-17.9c0.1-0.4,0.6-0.7,1-0.7h10c0.6,0,1.1,0.5,1.1,1.1c0,0.1,0,0.3-0.1,0.4l-4.4,10.7h7
					c0.6,0,1.1,0.5,1.1,1.1c0,0.2-0.1,0.5-0.2,0.7l-17.2,21.5c-0.4,0.5-1,0.5-1.5,0.2c-0.4-0.3-0.5-0.7-0.4-1.2l4.6-14.3H167.1z"/>
			</g>
		</g>
	</g>
	<g id="Tracé_924">
		<path style="fill:#040506;" d="M155.6,506.2c-0.7-2.5-3.4-3.9-5.9-3.2c-2.5,0.7-3.9,3.4-3.2,5.9s3.4,3.9,5.9,3.2
			c1.5-0.5,2.7-1.6,3.2-3.2h17.7v1.3c0,1.5,1.2,2.7,2.7,2.7h9.4c1.5,0,2.7-1.2,2.7-2.7l0,0v-5.4c0-1.5-1.2-2.7-2.7-2.7c0,0,0,0,0,0
			h-9.4c-1.5,0-2.7,1.2-2.7,2.7l0,0v1.3h-8.8v-6.1c0-0.3-0.1-0.5-0.2-0.8l-4.7-6.7c-0.3-0.4-0.7-0.6-1.1-0.6h-6.1v-4.9
			c2.5-0.7,3.9-3.4,3.2-5.9c-0.7-2.5-3.4-3.9-5.9-3.2s-3.9,3.4-3.2,5.9c0.5,1.5,1.6,2.7,3.2,3.2v6.3c0,0.7,0.6,1.3,1.3,1.3h6.7
			l4.1,5.8v5.6L155.6,506.2z M151.1,509.5c-1.1,0-2-0.9-2-2s0.9-2,2-2c1.1,0,2,0.9,2,2c0,0,0,0,0,0
			C153.2,508.6,152.2,509.5,151.1,509.5z M176.1,504.8h9.4v5.4h-9.4L176.1,504.8z M149.1,482.6c0-1.1,0.9-2,2-2c1.1,0,2,0.9,2,2
			c0,1.1-0.9,2-2,2C150,484.6,149.1,483.7,149.1,482.6L149.1,482.6z"/>
	</g>
	<g id="Tracé_925">
		<path style="fill:#161615;" d="M206.4,499l-2.9-0.6c2.2-11.6-1.5-23.6-9.9-32l2.1-2.1C204.7,473.4,208.7,486.4,206.4,499z"/>
	</g>
	<g id="Tracé_926">
		<path style="fill:#161615;" d="M130,498.9c-2.3-12.3,1.5-24.9,10.1-33.9l2.2,2.1c-7.9,8.3-11.4,20-9.4,31.3L130,498.9z"/>
	</g>
</g>
</svg>
