
<!-- Generator: Adobe Illustrator 24.3.0, SVG Export Plug-In . SVG Version: 6.00 Build 0)  -->
<svg version="1.1" id="couvreur" xmlns="http://www.w3.org/2000/svg" xmlns:xlink="http://www.w3.org/1999/xlink" x="0px" y="0px"
	 viewBox="0 0 111.6 111.6" style="enable-background:new 0 0 111.6 111.6;" xml:space="preserve">
<g id="Groupe_472" transform="translate(-285.351 -436.054)">
	<g id="Ellipse_23">
		<g>
			<path style="fill:#161615;" d="M341.1,547.6c-30.8,0-55.8-25-55.8-55.8s25-55.8,55.8-55.8c30.8,0,55.8,25,55.8,55.8
				S371.9,547.6,341.1,547.6z M341.1,439c-29.1,0-52.8,23.7-52.8,52.8c0,29.1,23.7,52.8,52.8,52.8c29.1,0,52.8-23.7,52.8-52.8
				C393.9,462.7,370.2,439,341.1,439z"/>
		</g>
	</g>
	<g id="Groupe_468">
		<g id="Groupe_467">
			<g id="Tracé_927">
				<path style="fill:#161615;" d="M324.5,462.7l-3.5-5l0.6,5.3l-0.6,0.4l-4.7-2.4l3.5,5l-1.1,0.8l-4.9-7l1.2-0.8l5.3,2.7l-0.7-5.9
					l1.2-0.8l4.9,7L324.5,462.7z"/>
			</g>
			<g id="Tracé_928">
				<path style="fill:#161615;" d="M333.7,457.9l0.4,1.1l-5.6,1.8l-2.6-8.1l5.5-1.7l0.4,1.1l-4.2,1.3l0.7,2.3l3.6-1.1l0.3,1.1
					l-3.6,1.2l0.8,2.5L333.7,457.9z M328.8,450.8h-0.9l0.3-1.5l1.2-0.4L328.8,450.8z"/>
			</g>
			<g id="Tracé_929">
				<path style="fill:#161615;" d="M342.6,450.9l-2.8,0.1l0.4,7.3l-1.4,0.1l-0.4-7.3l-2.8,0.1l-0.1-1.2l7-0.4L342.6,450.9z"/>
			</g>
			<g id="Tracé_930">
				<path style="fill:#161615;" d="M345.5,458.7l1.3-8.4l1.3,0.2l-1.3,8.4L345.5,458.7z"/>
			</g>
			<g id="Tracé_931">
				<path style="fill:#161615;" d="M356,460.4l-0.4,1.1l-5.5-2l2.9-8l5.4,2l-0.4,1.1l-4.1-1.5l-0.8,2.3l3.6,1.3l-0.4,1l-3.6-1.3
					l-0.9,2.4L356,460.4z"/>
			</g>
			<g id="Tracé_932">
				<path style="fill:#161615;" d="M358,462.8l4.9-7l3,2.1c0.3,0.2,0.6,0.5,0.7,0.8c0.2,0.3,0.3,0.6,0.3,1c0,0.3,0,0.7-0.1,1
					s-0.2,0.7-0.4,0.9c-0.2,0.2-0.4,0.4-0.6,0.6s-0.4,0.3-0.7,0.4c-0.2,0.1-0.5,0.2-0.8,0.2s-0.5,0-0.8-0.1l-0.2,3.8l-1.2-0.9
					l0.2-3.5l-1.6-1.1l-1.7,2.4L358,462.8z M361.5,460.2l1.9,1.4c0.1,0.1,0.3,0.2,0.5,0.2s0.4,0,0.5-0.1c0.2-0.1,0.4-0.1,0.5-0.3
					c0.2-0.1,0.3-0.3,0.4-0.4c0.1-0.2,0.2-0.4,0.3-0.6c0-0.2,0.1-0.4,0-0.6c0-0.2-0.1-0.4-0.2-0.5c-0.1-0.2-0.2-0.3-0.3-0.4
					l-1.9-1.3L361.5,460.2z"/>
			</g>
		</g>
	</g>
	<g id="Groupe_470">
		<g id="Groupe_469">
			<g id="Tracé_933">
				<path style="fill:#161615;" d="M306.7,507.5c0.5-0.3,0.9-0.4,1.5-0.5c0.5-0.1,1.1-0.1,1.6,0s1,0.3,1.5,0.6
					c0.5,0.3,0.9,0.8,1.2,1.3c0.4,0.6,0.6,1.3,0.6,2c0,0.6-0.2,1.2-0.5,1.8l-1.1-0.6c0.2-0.2,0.3-0.4,0.3-0.7
					c0.1-0.2,0.1-0.5,0.1-0.7s0-0.4-0.1-0.7c-0.1-0.2-0.2-0.4-0.3-0.6c-0.2-0.4-0.5-0.7-0.8-0.9c-0.3-0.2-0.7-0.3-1-0.4
					c-0.4,0-0.8,0-1.1,0.1c-0.4,0.1-0.7,0.2-1,0.4c-0.4,0.2-0.7,0.5-0.9,0.8c-0.2,0.3-0.4,0.6-0.6,1c-0.1,0.4-0.2,0.7-0.2,1.1
					s0.1,0.8,0.3,1.1c0.1,0.2,0.2,0.4,0.4,0.5c0.2,0.2,0.3,0.3,0.5,0.4c0.2,0.1,0.4,0.2,0.7,0.3c0.2,0.1,0.5,0.1,0.8,0v1.3
					c-0.3,0-0.7,0-1-0.1s-0.7-0.2-1-0.4s-0.6-0.4-0.8-0.7c-0.2-0.2-0.5-0.5-0.6-0.8c-0.3-0.5-0.5-1-0.5-1.6c0-0.5,0-1.1,0.2-1.6
					s0.4-1,0.8-1.4C305.8,508.1,306.2,507.8,306.7,507.5z"/>
			</g>
			<g id="Tracé_934">
				<path style="fill:#161615;" d="M312.6,522.8c-0.4-0.4-0.8-0.9-1-1.4s-0.3-1-0.3-1.6c0-0.5,0.1-1.1,0.3-1.6
					c0.2-0.5,0.5-1,0.9-1.4s0.8-0.7,1.3-1c0.5-0.2,1-0.4,1.6-0.4c0.5,0,1.1,0,1.6,0.2s1,0.5,1.4,0.8c0.4,0.4,0.8,0.9,1,1.4
					s0.3,1.1,0.3,1.6s-0.1,1.1-0.3,1.6c-0.4,1-1.2,1.9-2.2,2.4c-0.5,0.2-1,0.4-1.6,0.4c-0.5,0-1.1,0-1.6-0.2
					C313.6,523.4,313.1,523.1,312.6,522.8z M313.6,517.7c-0.3,0.3-0.5,0.6-0.6,1c-0.2,0.3-0.2,0.7-0.3,1.1c0,0.4,0,0.7,0.2,1.1
					c0.1,0.4,0.4,0.7,0.7,1c0.3,0.3,0.6,0.5,1,0.6s0.7,0.1,1.1,0s0.7-0.2,1.1-0.4c0.7-0.4,1.2-1,1.5-1.7c0.2-0.3,0.2-0.7,0.3-1.1
					c0-0.4,0-0.7-0.2-1.1c-0.1-0.4-0.4-0.7-0.6-0.9c-0.3-0.3-0.6-0.5-1-0.6s-0.7-0.1-1.1-0.1c-0.4,0.1-0.7,0.2-1.1,0.4
					C314.1,517.2,313.8,517.5,313.6,517.7z"/>
			</g>
			<g id="Tracé_935">
				<path style="fill:#161615;" d="M324.1,529c0.3,0.2,0.7,0.3,1.1,0.2c0.3,0,0.7-0.1,0.9-0.3c0.3-0.2,0.5-0.4,0.8-0.7
					c0.2-0.3,0.4-0.6,0.6-1l1.8-3.9l1.2,0.6l-1.8,3.9c-0.2,0.5-0.5,1-0.9,1.4c-0.3,0.4-0.7,0.7-1.2,1c-0.4,0.2-0.9,0.4-1.4,0.4
					c-0.6,0-1.2-0.1-1.7-0.4c-0.5-0.2-1-0.6-1.4-1c-0.3-0.4-0.5-0.8-0.6-1.3s-0.1-1,0-1.5s0.3-1,0.5-1.5l1.8-3.9l1.2,0.6l-1.8,3.9
					c-0.2,0.3-0.3,0.7-0.4,1.1c-0.1,0.3-0.1,0.7-0.1,1s0.2,0.6,0.4,0.9C323.5,528.6,323.8,528.8,324.1,529z"/>
			</g>
			<g id="Tracé_936">
				<path style="fill:#161615;" d="M334.3,524.7l1.7,7.1l3.4-6.5l1.4,0.2l-4.5,8l-1.1-0.1l-2.3-8.9L334.3,524.7z"/>
			</g>
			<g id="Tracé_937">
				<path style="fill:#161615;" d="M344.8,533.8l-1.4-8.4l3.7-0.6c0.4-0.1,0.7,0,1.1,0.1c0.3,0.1,0.6,0.3,0.9,0.5s0.5,0.5,0.7,0.8
					s0.3,0.6,0.4,1c0,0.3,0,0.6,0,0.8c0,0.3-0.1,0.5-0.2,0.8c-0.1,0.2-0.3,0.5-0.4,0.7c-0.2,0.2-0.4,0.4-0.6,0.5l2.5,2.9l-1.5,0.2
					l-2.3-2.6l-1.9,0.3l0.5,2.9L344.8,533.8z M345.5,529.4l2.3-0.4c0.2,0,0.3-0.1,0.5-0.2c0.1-0.1,0.3-0.2,0.3-0.4
					c0.1-0.2,0.1-0.4,0.2-0.5c0-0.2,0-0.4,0-0.6c0-0.2-0.1-0.4-0.2-0.6c-0.1-0.2-0.2-0.3-0.4-0.4c-0.1-0.1-0.3-0.2-0.5-0.3
					s-0.3-0.1-0.5,0l-2.3,0.4L345.5,529.4z"/>
			</g>
			<g id="Tracé_938">
				<path style="fill:#161615;" d="M361.1,527.5l0.5,1.1l-5.3,2.4l-3.6-7.7l5.2-2.4l0.5,1.1l-4,1.8l1,2.2l3.5-1.6l0.5,1L356,527
					l1.1,2.4L361.1,527.5z"/>
			</g>
			<g id="Tracé_939">
				<path style="fill:#161615;" d="M368.1,522.5c0.3-0.2,0.5-0.6,0.7-0.9c0.1-0.3,0.1-0.7,0.1-1c-0.1-0.3-0.2-0.7-0.4-1
					c-0.2-0.3-0.4-0.6-0.7-0.9l-2.9-3.2l1-0.9l2.9,3.2c0.4,0.4,0.7,0.9,0.9,1.4c0.2,0.4,0.4,0.9,0.4,1.4s-0.1,1-0.3,1.4
					c-0.2,0.5-0.6,1-1,1.4s-1,0.7-1.5,0.9c-0.5,0.1-1,0.1-1.5,0s-1-0.3-1.4-0.6s-0.8-0.7-1.2-1.1l-2.9-3.2l1-0.9l2.9,3.2
					c0.3,0.3,0.5,0.5,0.8,0.8c0.3,0.2,0.6,0.4,0.9,0.5s0.7,0.1,1,0C367.5,522.9,367.8,522.7,368.1,522.5z"/>
			</g>
			<g id="Tracé_940">
				<path style="fill:#161615;" d="M375.4,516.3l-7.3-4.5l1.9-3.2c0.2-0.3,0.4-0.6,0.8-0.8c0.3-0.2,0.6-0.3,1-0.4
					c0.3-0.1,0.7-0.1,1,0s0.7,0.2,1,0.4c0.2,0.1,0.5,0.3,0.6,0.5c0.2,0.2,0.3,0.4,0.4,0.7c0.1,0.2,0.2,0.5,0.2,0.8s0,0.5,0,0.8h3.8
					l-0.8,1.3h-3.5l-1,1.7l2.5,1.5L375.4,516.3z M372.5,513l1.2-2c0.1-0.2,0.2-0.3,0.2-0.5s0-0.4-0.1-0.5c-0.1-0.2-0.2-0.3-0.3-0.5
					c-0.1-0.2-0.3-0.3-0.5-0.4s-0.4-0.2-0.6-0.2s-0.4,0-0.6,0s-0.4,0.1-0.5,0.2c-0.2,0.1-0.3,0.2-0.4,0.4l-1.2,1.9L372.5,513z"/>
			</g>
		</g>
	</g>
	<g id="Tracé_941">
		<path style="fill:none;stroke:#161615;stroke-width:3;stroke-miterlimit:10;" d="M305.6,491.5"/>
	</g>
	<g id="Groupe_471">
		<g>
			<g>
				<g>
					<defs>
						<polygon id="SVGID_1_m" points="322.1,477.5 332.9,499.6 345.3,496.9 347.2,494.2 350.3,495.4 361.2,492.6 363.1,490.5 
							362.5,487.4 353.4,469 322.1,477.5 285.4,478.3 285.4,436.1 396.9,436.1 396.9,547.6 285.4,547.6 285.4,478.3 						"/>
					</defs>
					<clipPath id="SVGID_2_m">
						<use xlink:href="#SVGID_1_m"  style="overflow:visible;"/>
					</clipPath>
					<g style="clip-path:url(#SVGID_2_m);">
						<g id="Tracé_942_1_">
							<path style="fill:#161615;" d="M348.2,512c-1.7,0-3.2-0.7-4.1-1.9c0-0.1-0.1-0.1-0.1-0.2c0,0,0-0.1-0.1-0.1
								c-0.1-0.1-0.2-0.2-0.2-0.4l-0.5-1c-0.1-0.1-0.1-0.2-0.2-0.3l-3-6.1l-6.3-12.7c-0.2-0.4-0.2-0.8,0-1.2s0.5-0.7,0.9-0.8
								l15.9-4.3c0.6-0.2,1.3,0.1,1.6,0.7l9.4,18.9c1.2,2.3,0.2,5.2-2.2,6.5c-0.3,0.1-0.6,0.3-1,0.3l-8.9,2.4
								C348.9,512,348.5,512,348.2,512z M346.4,508.6c0.5,0.6,1.4,0.9,2.4,0.7l8.9-2.4c0.1,0,0.1,0,0.2,0c0,0,0.1,0,0.1-0.1
								c1-0.6,1.5-1.9,1-2.8l-8.9-17.9l-13.2,3.6l5.4,10.8c0.2,0.2,0.4,0.5,0.4,0.9l2.7,5.4c0.1,0.1,0.1,0.2,0.2,0.3l0.6,1.2
								c0,0,0,0.1,0.1,0.1C346.2,508.4,346.3,508.5,346.4,508.6z M358,506.8C358,506.8,358,506.8,358,506.8
								C358,506.8,358,506.8,358,506.8z"/>
						</g>
						<g id="Tracé_946_1_">
							<path style="fill:#161615;" d="M332,516.3c-1.5,0-2.9-0.7-3.8-2c0-0.1-0.1-0.1-0.1-0.2c0,0,0-0.1-0.1-0.1
								c-0.1-0.1-0.2-0.2-0.2-0.4l-10-20.1c-0.2-0.4-0.2-0.8,0-1.2c0.2-0.4,0.5-0.7,0.9-0.8l15.9-4.3c0.6-0.2,1.3,0.1,1.6,0.7
								l9.2,18.6c0.1,0.1,0.1,0.2,0.2,0.3c1.2,2.3,0.3,5.3-2.2,6.6c-0.2,0.1-0.4,0.2-10,2.7C332.9,516.3,332.5,516.3,332,516.3z
								 M330.5,512.7c0.6,0.7,1.3,1,2.2,0.7c3.3-0.9,8.7-2.3,9.5-2.5c0.9-0.5,1.4-1.7,1-2.6c-0.1-0.1-0.1-0.2-0.2-0.3l-8.8-17.8
								l-13.2,3.6l9.3,18.6c0,0,0,0.1,0.1,0.1C330.3,512.6,330.4,512.7,330.5,512.7z"/>
						</g>
					</g>
				</g>
			</g>
		</g>
		<g id="Groupe_471-1">
			<g id="Tracé_942">
				<path style="fill:#161615;" d="M350.8,496.8c-1.7,0-3.2-0.7-4.1-1.9c0-0.1-0.1-0.1-0.1-0.2c0,0,0-0.1-0.1-0.1
					c-0.1-0.1-0.2-0.2-0.2-0.4l-0.5-1c-0.1-0.1-0.1-0.2-0.2-0.3l-9.3-18.8c-0.2-0.4-0.2-0.8,0-1.2s0.5-0.7,0.9-0.8l15.9-4.3
					c0.6-0.2,1.3,0.1,1.6,0.7l9.4,18.9c1.2,2.3,0.2,5.2-2.2,6.5c-0.3,0.1-0.6,0.3-1,0.3l-8.9,2.4
					C351.5,496.7,351.1,496.8,350.8,496.8z M349,493.3c0.5,0.6,1.4,0.9,2.4,0.7l8.9-2.4c0.1,0,0.1,0,0.2,0c0,0,0.1,0,0.1-0.1
					c1-0.6,1.5-1.9,1-2.8l-8.9-17.9l-13.2,3.6l5.4,11c0.1,0.2,0.2,0.4,0.3,0.6l2.7,5.6c0.1,0.1,0.1,0.2,0.2,0.3l0.6,1.2
					c0,0,0,0.1,0.1,0.1C348.9,493.1,348.9,493.2,349,493.3z M360.4,491.6L360.4,491.6L360.4,491.6z M360.6,491.5
					C360.6,491.5,360.6,491.5,360.6,491.5C360.6,491.5,360.6,491.5,360.6,491.5z"/>
			</g>
			<g id="Tracé_946_3_">
				<path style="fill:#161615;" d="M334.6,501c-1.5,0-2.9-0.7-3.8-2c0-0.1-0.1-0.1-0.1-0.2c0,0,0-0.1-0.1-0.1
					c-0.1-0.1-0.2-0.2-0.2-0.4l-10-20.1c-0.2-0.4-0.2-0.8,0-1.2c0.2-0.4,0.5-0.7,0.9-0.8l15.9-4.3c0.6-0.2,1.3,0.1,1.6,0.7l9.2,18.6
					c0.1,0.1,0.1,0.2,0.2,0.3c0.6,1.2,0.7,2.5,0.3,3.8c-0.4,1.2-1.3,2.2-2.4,2.8c-0.3,0.1-0.6,0.3-1,0.3l-9,2.4
					C335.5,501,335.1,501,334.6,501z M333.1,497.4c0.6,0.7,1.3,1,2.2,0.7l9.1-2.4c0.1,0,0.1,0,0.2,0c0,0,0.1,0,0.1-0.1
					c0.5-0.3,0.9-0.7,1.1-1.3c0.2-0.5,0.2-1,0-1.4c-0.1-0.1-0.1-0.2-0.2-0.3l-8.8-17.8l-13.2,3.6l9.3,18.6c0,0,0,0.1,0.1,0.1
					C332.9,497.3,333,497.4,333.1,497.4z M344.5,495.8L344.5,495.8L344.5,495.8z M344.7,495.7L344.7,495.7L344.7,495.7z"/>
			</g>
		</g>
	</g>
	<g id="Tracé_948">
		<path style="fill:#161615;" d="M379.8,498.8l-3-0.5c0.4-2.1,0.6-4.3,0.6-6.4c0-7.9-2.5-15.5-7.2-21.7l2.4-1.8
			c5.1,6.8,7.8,14.9,7.8,23.5C380.4,494.1,380.2,496.5,379.8,498.8z"/>
	</g>
	<g id="Tracé_949">
		<path style="fill:#161615;" d="M302.5,499.1c-0.4-2.4-0.6-4.8-0.6-7.3c0-8.7,3-17.3,8.3-24.2l2.4,1.8c-5,6.4-7.7,14.3-7.7,22.4
			c0,2.3,0.2,4.5,0.6,6.7L302.5,499.1z"/>
	</g>
</g>
</svg>
