
<!-- Generator: Adobe Illustrator 24.3.0, SVG Export Plug-In . SVG Version: 6.00 Build 0)  -->
<svg version="1.1" id="menuisiser" xmlns="http://www.w3.org/2000/svg" xmlns:xlink="http://www.w3.org/1999/xlink" x="0px" y="0px"
	 viewBox="0 0 111.6 111.6" style="enable-background:new 0 0 111.6 111.6;" xml:space="preserve">
<g transform="translate(-435.66 -436.05)">
	<g>
		<path style="fill:#161615;" d="M491.5,547.6c-3,0-6-0.2-9.1-0.7c-14.7-2.4-27.6-10.4-36.3-22.5c-8.7-12.1-12.2-26.9-9.8-41.6
			c4.9-30.4,33.7-51.1,64-46.1c14.7,2.4,27.6,10.4,36.3,22.5s12.2,26.9,9.8,41.6c-2.4,14.7-10.4,27.6-22.5,36.3
			C514.4,544,503.1,547.6,491.5,547.6z M491.4,439c-25.4,0-47.9,18.5-52.1,44.3l0,0c-2.3,13.9,1,27.9,9.3,39.3
			c8.2,11.4,20.5,19,34.4,21.2c13.9,2.3,27.9-1,39.3-9.3c11.4-8.2,19-20.5,21.2-34.4c2.3-13.9-1-27.9-9.3-39.3
			c-8.2-11.4-20.5-19-34.4-21.2C497,439.2,494.2,439,491.4,439z"/>
	</g>
	<g>
		<g>
			<path style="fill:#161615;" d="M474.8,462.7l-3.5-5l0.6,5.3l-0.6,0.4l-4.7-2.4l3.5,5l-1.1,0.8l-4.9-7l1.2-0.8l5.3,2.7l-0.7-5.9
				l1.2-0.8l4.9,7L474.8,462.7L474.8,462.7z"/>
		</g>
		<g>
			<path style="fill:#161615;" d="M484,457.9l0.4,1.1l-5.6,1.8l-2.6-8.1l5.5-1.7l0.4,1.1l-4.2,1.3l0.7,2.3l3.6-1.1l0.3,1.1l-3.6,1.2
				l0.8,2.5L484,457.9L484,457.9z M479.1,450.8h-0.9l0.3-1.5l1.2-0.4L479.1,450.8z"/>
		</g>
		<g>
			<path style="fill:#161615;" d="M492.9,450.9l-2.8,0.1l0.4,7.3l-1.4,0.1l-0.4-7.3l-2.8,0.1l-0.1-1.2l7-0.4L492.9,450.9
				L492.9,450.9z"/>
		</g>
		<g>
			<path style="fill:#161615;" d="M495.8,458.7l1.3-8.4l1.3,0.2l-1.3,8.4L495.8,458.7z"/>
		</g>
		<g>
			<path style="fill:#161615;" d="M506.3,460.4l-0.4,1.1l-5.5-2l2.9-8l5.4,2l-0.4,1.1l-4.1-1.5l-0.8,2.3l3.6,1.3l-0.4,1l-3.6-1.3
				l-0.9,2.4L506.3,460.4L506.3,460.4z"/>
		</g>
		<g>
			<path style="fill:#161615;" d="M508.3,462.8l4.9-7l3,2.1c0.3,0.2,0.6,0.5,0.7,0.8c0.2,0.3,0.3,0.6,0.3,1c0,0.3,0,0.7-0.1,1
				s-0.2,0.7-0.4,0.9l-0.6,0.6c-0.2,0.2-0.4,0.3-0.7,0.4c-0.2,0.1-0.5,0.2-0.8,0.2s-0.5,0-0.8-0.1l-0.2,3.8l-1.2-0.9l0.2-3.5
				L511,461l-1.7,2.4L508.3,462.8L508.3,462.8z M511.8,460.2l1.9,1.4c0.1,0.1,0.3,0.2,0.5,0.2s0.4,0,0.5-0.1
				c0.2-0.1,0.4-0.1,0.5-0.3c0.2-0.1,0.3-0.3,0.4-0.4l0.3-0.6c0-0.2,0.1-0.4,0-0.6c0-0.2-0.1-0.4-0.2-0.5c-0.1-0.2-0.2-0.3-0.3-0.4
				l-1.9-1.3L511.8,460.2L511.8,460.2z"/>
		</g>
	</g>
	<g>
		<g>
			<path style="fill:#161615;" d="M457.2,516.3l5.2-3.2l-5.3,0.3l-0.4-0.6l2.6-4.6l-5.2,3.2l-0.7-1.1l7.3-4.5l0.8,1.2l-3,5.1
				l5.9-0.3l0.8,1.2l-7.3,4.5L457.2,516.3L457.2,516.3z"/>
		</g>
		<g>
			<path style="fill:#161615;" d="M467.3,524.9l-0.8,0.9l-4.4-3.8l5.5-6.5l4.4,3.7l-0.8,0.9l-3.3-2.8l-1.6,1.8l2.9,2.5l-0.7,0.8
				l-2.9-2.5l-1.7,2L467.3,524.9L467.3,524.9z"/>
		</g>
		<g>
			<path style="fill:#161615;" d="M474.8,523.8l-2.4,5.5l-1.2-0.5l3.4-7.8l1,0.4l2,7.6l2.5-5.6l1.2,0.6l-3.4,7.8l-1-0.5L474.8,523.8
				z"/>
		</g>
		<g>
			<path style="fill:#161615;" d="M487.5,532.5c0.4,0.1,0.8,0,1.1-0.2c0.3-0.1,0.6-0.4,0.8-0.6c0.2-0.3,0.4-0.6,0.5-0.9
				c0.1-0.4,0.2-0.7,0.2-1.1l0.4-4.3l1.3,0.1l-0.4,4.3c0,0.6-0.2,1.1-0.4,1.6s-0.4,0.9-0.8,1.3c-0.3,0.4-0.8,0.6-1.2,0.8
				c-0.5,0.2-1.1,0.2-1.7,0.2s-1.2-0.2-1.7-0.5c-0.4-0.3-0.8-0.6-1-1.1c-0.3-0.4-0.4-0.9-0.5-1.4s-0.1-1.1,0-1.6l0.4-4.3l1.3,0.1
				l-0.4,4.3v1.1c0,0.3,0.1,0.7,0.3,1s0.4,0.6,0.7,0.8S487.1,532.4,487.5,532.5L487.5,532.5z"/>
		</g>
		<g>
			<path style="fill:#161615;" d="M496.4,533.5l-1.1-8.4l1.3-0.2l1.1,8.4L496.4,533.5z"/>
		</g>
		<g>
			<path style="fill:#161615;" d="M505.5,524.5c-0.1-0.1-0.3-0.1-0.4-0.2c-0.2,0-0.4-0.1-0.6-0.1h-0.7c-0.3,0-0.5,0.1-0.7,0.2
				c-0.4,0.1-0.8,0.4-1.1,0.7c-0.2,0.3-0.2,0.6-0.1,0.9c0.1,0.2,0.2,0.3,0.3,0.4s0.3,0.2,0.5,0.2h0.7c0.3,0,0.6,0,1-0.1
				c0.4,0,0.8-0.1,1.2-0.1c0.3,0,0.7,0,1,0.1s0.5,0.2,0.8,0.5c0.2,0.2,0.4,0.5,0.5,0.9s0.2,0.8,0.1,1.1c0,0.3-0.2,0.7-0.4,0.9
				c-0.2,0.3-0.5,0.5-0.8,0.7s-0.7,0.4-1.1,0.5c-0.6,0.2-1.2,0.3-1.9,0.3c-0.6,0-1.2-0.1-1.8-0.3l0.2-1.3c0.2,0.1,0.4,0.1,0.5,0.2
				c0.3,0.1,0.5,0.1,0.8,0.1h0.9c0.3,0,0.6-0.1,0.9-0.2c0.4-0.1,0.8-0.4,1.1-0.7c0.2-0.3,0.3-0.6,0.1-0.9c-0.1-0.2-0.2-0.3-0.3-0.5
				c-0.2-0.1-0.4-0.2-0.6-0.2h-0.8c-0.3,0-0.6,0-1,0.1h-1.2c-0.3,0-0.6-0.1-0.9-0.2c-0.2-0.1-0.5-0.2-0.7-0.4s-0.3-0.5-0.4-0.8
				c-0.1-0.4-0.2-0.7-0.1-1.1c0-0.4,0.2-0.7,0.3-1c0.2-0.3,0.5-0.6,0.8-0.8s0.7-0.4,1.1-0.6c0.5-0.2,1.1-0.3,1.6-0.3s1,0.1,1.4,0.2
				L505.5,524.5L505.5,524.5z"/>
		</g>
		<g>
			<path style="fill:#161615;" d="M512.7,528l-4.4-7.3l1.1-0.7l4.4,7.3L512.7,528L512.7,528z"/>
		</g>
		<g>
			<path style="fill:#161615;" d="M521.7,519.4l0.8,0.9l-4.3,4l-5.8-6.2l4.2-3.9l0.8,0.9l-3.2,3l1.7,1.8l2.8-2.6l0.8,0.8l-2.8,2.6
				l1.8,1.9L521.7,519.4z"/>
		</g>
		<g>
			<path style="fill:#161615;" d="M525.8,516.2l-7.3-4.4l1.9-3.2c0.2-0.3,0.4-0.6,0.8-0.8c0.3-0.2,0.6-0.3,1-0.4
				c0.3-0.1,0.7-0.1,1,0s0.7,0.2,1,0.4c0.5,0.3,0.9,0.7,1.1,1.2c0.1,0.2,0.2,0.5,0.2,0.8v0.8h3.8l-0.8,1.3H525l-1,1.7l2.5,1.5
				L525.8,516.2L525.8,516.2z M522.9,512.9l1.2-2c0.1-0.2,0.2-0.3,0.2-0.5s0-0.4-0.1-0.5c-0.1-0.2-0.2-0.3-0.3-0.5s-0.3-0.3-0.5-0.4
				s-0.4-0.2-0.6-0.2h-0.6c-0.2,0-0.4,0.1-0.5,0.2c-0.2,0.1-0.3,0.2-0.4,0.4l-1.2,1.9L522.9,512.9L522.9,512.9z"/>
		</g>
	</g>
	<g>
		<defs>
			<path id="SVGID_1_a" d="M460.5,495.6c1.3,1.9,3.7,3.7,5.5,3.7c0.7,0,1.4-0.2,2-0.5l10.4-6.2c0.5-0.2,0.8-0.6,1-1.1
				c0.1-0.2,0.1-0.4,0.1-0.6c0.8,0.3,1.6,0.2,2.4-0.2l1.4-0.8c1.2-0.9,1.6-2.5,0.9-3.7l-0.2-0.3l13.3-7.8l0.7-0.6l1.2-2.5
				c0.1-0.2,0.3-0.4,0.3-0.7c0.1-0.4,0-0.9-0.2-1.3s-0.7-0.7-1.2-0.9l-0.3-0.1l-3.1-0.2c-0.2,0-0.7,0-1.1,0.3l-13.3,7.7l-0.1-0.2
				c-0.4-0.6-1-1.1-1.6-1.2c-0.8-0.2-1.5,0-2.1,0.3l-1.5,0.9c-0.6,0.4-1,1.1-1.2,1.8c-0.5-0.2-1.2-0.2-1.8,0.1l-10.6,6.2
				c-1,0.5-1.6,1.4-2,2.6C459.1,491.8,459.5,493.9,460.5,495.6l-24.9,0.2V436h111.6v111.6H435.7v-51.8L460.5,495.6L460.5,495.6z"/>
		</defs>
		<clipPath id="SVGID_2_a">
			<use xlink:href="#SVGID_1_a"  style="overflow:visible;"/>
		</clipPath>
		<g id="calque2" style="clip-path:url(#SVGID_2_a);">
			<g>
				<path style="fill:#040506;" d="M491.3,517.9l24.3-40.3l-16.1-9.7l-24.3,40.3L491.3,517.9z M510,476.2l-3.1,5.2
					c-0.2,0.4-0.1,0.9,0.3,1.1s0.9,0.1,1.1-0.3l3.1-5.2l1.9,1.1l-22.6,37.4l-5.6-3.4l5.2-8.6c0.2-0.4,0.1-0.9-0.3-1.1
					s-0.9-0.1-1.1,0.3l-5.2,8.6l-2.4-1.5l2.3-3.7c0.2-0.4,0.1-0.9-0.3-1.1s-0.9-0.1-1.1,0.3l-2.3,3.7l-2.4-1.5l22.6-37.4L510,476.2z
					"/>
				<path style="fill:#040405;" d="M491.4,518.2l-16.5-10l0.1-0.2l24.4-40.5l16.5,10L491.4,518.2z M475.5,508.1l15.7,9.4l24-39.9
					l-15.7-9.4L475.5,508.1z M490.8,515.8l-6-3.7l5.3-8.8c0.1-0.2,0.1-0.6-0.2-0.7c-0.3-0.1-0.6-0.1-0.8,0.2l-5.3,8.8l-2.8-1.8
					l2.4-3.9c0.1-0.1,0.1-0.3,0-0.4c0-0.1-0.1-0.2-0.2-0.3c-0.1-0.1-0.3-0.1-0.5-0.1c-0.1,0-0.2,0.1-0.3,0.2l-2.4,3.9l-2.8-1.8
					l0.1-0.2l22.7-37.6l10.3,6.4l-3.2,5.4c-0.1,0.1-0.1,0.3,0,0.4c0,0.1,0.1,0.2,0.2,0.3c0.1,0.1,0.3,0.1,0.5,0.1
					c0.1,0,0.2-0.1,0.3-0.2l3.2-5.4l2.3,1.4L490.8,515.8z M485.4,512l5.2,3.1l22.3-37l-1.5-0.8l-3,5c-0.1,0.2-0.3,0.4-0.6,0.5
					c-0.3,0.1-0.5,0-0.8-0.1c-0.3-0.1-0.4-0.4-0.5-0.6c-0.1-0.3,0-0.5,0.1-0.8l3-5l-9.5-5.8l-22.3,37l2,1.2l2.2-3.5
					c0.1-0.2,0.3-0.4,0.6-0.5c0.3-0.1,0.5,0,0.8,0.1c0.3,0.1,0.4,0.4,0.5,0.6c0.1,0.3,0,0.5-0.1,0.8l-2.2,3.5l2,1.2l5.1-8.4
					c0.2-0.5,0.9-0.7,1.4-0.4c0.5,0.3,0.7,0.9,0.4,1.4L485.4,512z"/>
			</g>
			<g>
				<path style="fill:#040506;" d="M490.4,510.3c0.4,0.2,0.9,0.1,1.1-0.3l7.7-12.8c0.2-0.4,0.1-0.9-0.3-1.1s-0.9-0.1-1.1,0.3
					l-7.7,12.8C489.9,509.5,490,510,490.4,510.3z"/>
				<path style="fill:#040405;" d="M490.8,510.7c-0.2,0-0.4,0-0.5-0.1l0,0c-0.5-0.4-0.6-1-0.4-1.4l7.7-12.8c0.2-0.5,0.9-0.7,1.4-0.4
					c0.5,0.3,0.7,0.9,0.4,1.4l-7.7,12.8c-0.1,0.2-0.3,0.4-0.6,0.5C491,510.6,490.9,510.7,490.8,510.7z M490.5,510.1
					c0.1,0.1,0.3,0.1,0.4,0c0.1,0,0.2-0.1,0.3-0.2l7.7-12.8c0.1-0.2,0.1-0.6-0.2-0.7c-0.3-0.1-0.6-0.1-0.8,0.2l-7.7,12.8
					C490.2,509.5,490.3,509.9,490.5,510.1z"/>
			</g>
			<g>
				<path style="fill:#040506;" d="M489.3,495.5l5.2-8.5c0.3-0.4,0.1-0.9-0.2-1.2s-0.9-0.1-1.2,0.2v0.1l-5.2,8.5
					c-0.2,0.4-0.1,0.9,0.3,1.1S489,495.9,489.3,495.5L489.3,495.5z"/>
				<path style="fill:#040405;" d="M488.7,496.1c-0.2,0-0.4-0.1-0.6-0.2c-0.5-0.3-0.7-0.9-0.4-1.4l5.2-8.5v-0.1l0.1-0.1
					c0.2-0.2,0.5-0.3,0.7-0.4c0.3-0.1,0.6,0,0.8,0.2c0.4,0.4,0.6,1,0.2,1.5l-5.2,8.5C489.3,495.9,489,496.1,488.7,496.1z
					 M493.4,486.1L493.4,486.1l0,0.1l-5.2,8.5c-0.1,0.2-0.1,0.6,0.2,0.7c0.4,0.2,0.6,0.1,0.8-0.1l5.2-8.5c0.2-0.3,0-0.7-0.2-0.9
					c-0.1-0.1-0.3-0.1-0.4-0.1C493.6,486,493.5,486,493.4,486.1z"/>
			</g>
		</g>
	</g>
	<g id="calque1">
		<g>
			<path style="fill:#040506;" d="M497.7,473.2c0.4,0.1,0.7,0.4,0.6,0.8c0,0.1,0,0.1-0.1,0.2l-1.2,2.4l-0.3,0.3l-15,8.8
				c-0.4,0.2-0.8,0.1-1-0.3l-1.5-2.6c-0.1-0.2-0.1-0.4-0.1-0.6c0.1-0.2,0.2-0.4,0.3-0.5l15-8.7c0.1-0.1,0.3-0.1,0.4-0.1l2.7,0.2
				L497.7,473.2L497.7,473.2z M481.6,484.1l14.1-8.3l0.6-1.2l-1.4-0.1l-14.2,8.3L481.6,484.1"/>
			<path style="fill:#040405;" d="M481.3,486c-0.4,0-0.7-0.2-0.8-0.5l-1.5-2.6c-0.1-0.3-0.1-0.5-0.1-0.7l0-0.1
				c0.1-0.2,0.2-0.4,0.3-0.6l0.1,0l15-8.7c0.2-0.1,0.4-0.1,0.5-0.1l2.8,0.2l0.2,0.1c0.3,0.1,0.5,0.2,0.7,0.5
				c0.1,0.2,0.1,0.4,0.1,0.6c0,0.1,0,0.2-0.1,0.3l-1.2,2.4l-0.3,0.3l-15,8.8C481.7,486,481.5,486,481.3,486z M479.3,482.3
				c0,0.2,0,0.3,0.1,0.4l1.5,2.6c0.2,0.4,0.5,0.3,0.7,0.2l15-8.8l0.2-0.2l1.2-2.4c0,0,0,0,0,0l0-0.1c0-0.1,0-0.2,0-0.2
				c-0.1-0.1-0.2-0.2-0.4-0.2l-0.1,0l-0.2-0.1l-2.7-0.2c-0.1,0-0.2,0-0.2,0l-15,8.7C479.5,482,479.4,482.1,479.3,482.3z
				 M481.5,484.4l-1.2-1.7l14.5-8.5l1.8,0.1l-0.8,1.6l-0.1,0L481.5,484.4z M481.1,482.9l0.6,0.9l13.8-8.1l0.4-0.8l-0.9-0.1
				L481.1,482.9z"/>
		</g>
		<g>
			<path style="fill:#040506;" d="M478.4,479.5c0.4,0.1,0.7,0.4,0.9,0.7l3.8,6.5c0.4,0.7,0.2,1.6-0.5,2.1l-1.3,0.8
				c-0.7,0.4-1.6,0.2-2.1-0.5l-0.7,0.4c-0.4,0.2-0.5,0.7-0.3,1c0.2,0.4,0.1,0.8-0.3,1l-10.5,6.2c-1.8,1-4.3-0.2-5.8-2.7
				s-1.3-5.4,0.5-6.4l10.6-6.2c0.4-0.2,0.8-0.1,1,0.3s0.7,0.5,1,0.3l0.6-0.4c-0.4-0.7-0.2-1.6,0.5-2.1l1.3-0.8
				C477.6,479.5,478,479.4,478.4,479.5L478.4,479.5z M480.5,488.3l1.3-0.8L478,481l-1.3,0.8l0.4,0.7c0.2,0.4,0.1,0.8-0.3,1l-1.3,0.8
				c-0.8,0.5-1.9,0.4-2.6-0.2l-10,5.8c-0.9,0.6-0.9,2.6,0.1,4.3s2.8,2.8,3.7,2.2l10-5.8c-0.2-0.9,0.2-1.9,1.1-2.4l1.3-0.8
				c0.4-0.2,0.8-0.1,1,0.3L480.5,488.3L480.5,488.3z"/>
			<path style="fill:#040405;" d="M466,498.3c-1.6,0-3.4-1.2-4.6-3.2c-0.9-1.6-1.3-3.3-0.9-4.8c0.2-0.9,0.8-1.6,1.5-2l10.6-6.2
				c0.5-0.3,1.1-0.1,1.3,0.4c0.1,0.2,0.2,0.2,0.3,0.2c0.1,0,0.2,0,0.3,0l0.4-0.3c-0.3-0.8-0.1-1.7,0.7-2.2l1.3-0.8
				c0.6-0.2,1-0.3,1.5-0.2c0.5,0.1,0.8,0.5,1,0.8l3.8,6.5c0.5,0.8,0.2,1.9-0.6,2.4l-1.3,0.8c-0.8,0.4-1.7,0.3-2.3-0.4l-0.5,0.3
				c-0.2,0.1-0.2,0.2-0.3,0.3c0,0.1,0,0.2,0,0.3c0.3,0.6,0.1,1.1-0.4,1.4l-10.5,6.2C467.1,498.2,466.5,498.3,466,498.3z
				 M473.1,482.5c-0.1,0-0.2,0-0.3,0.1l-10.6,6.2c-0.6,0.3-1,0.9-1.2,1.7c-0.3,1.3,0,2.9,0.8,4.4c1.4,2.4,3.8,3.5,5.5,2.6l10.5-6.2
				c0.4-0.2,0.3-0.5,0.2-0.7c-0.1-0.2-0.2-0.5-0.1-0.7c0.1-0.3,0.3-0.5,0.5-0.6l0.9-0.5l0.1,0.2c0.4,0.6,1.2,0.8,1.8,0.4l1.3-0.8
				c0.6-0.4,0.8-1.2,0.4-1.8l-3.8-6.5c-0.1-0.2-0.4-0.5-0.7-0.6l0,0c-0.3-0.1-0.7,0-1.1,0.2l-1.3,0.8c-0.6,0.4-0.8,1.2-0.4,1.8
				l0.1,0.2l-0.8,0.5c-0.2,0.1-0.5,0.2-0.7,0.1c-0.3-0.1-0.5-0.3-0.6-0.5C473.4,482.6,473.2,482.5,473.1,482.5z M466.1,496.8
				c-0.1,0-0.3,0-0.4-0.1c-1-0.2-2.2-1.2-2.9-2.4c-1-1.8-1.1-3.9,0-4.6l10.2-5.9l0.1,0.1c0.6,0.5,1.6,0.6,2.3,0.2l1.3-0.8
				c0.4-0.2,0.3-0.5,0.2-0.7l-0.5-0.9l1.7-1.1l4.1,6.9l-1.7,1.1l-0.5-0.8c-0.1-0.2-0.2-0.2-0.3-0.3c-0.1,0-0.3,0-0.4,0.1l-1.3,0.8
				c-0.8,0.4-1.2,1.3-1,2.1l0,0.2l-10.2,5.9C466.6,496.7,466.4,496.8,466.1,496.8z M472.9,484.4l-9.9,5.7c-0.7,0.5-0.8,2.3,0.2,4
				c0.6,1.1,1.7,2,2.6,2.2c0.3,0.1,0.6,0,0.8-0.1l9.9-5.7c-0.1-1,0.4-2,1.3-2.5l1.3-0.8c0.3-0.1,0.5-0.2,0.8-0.1
				c0.3,0.1,0.5,0.2,0.6,0.5l0.3,0.4l0.9-0.5l-3.5-6.1l-0.9,0.5l0.3,0.5c0.3,0.5,0.1,1.1-0.4,1.3l-1.3,0.8
				C474.8,485,473.7,485,472.9,484.4z"/>
		</g>
		<g>
			<path style="fill:#040506;" d="M476.7,482c0.2,0.1,0.4,0.2,0.5,0.4l0.8,1.3c0.2,0.4,0.1,0.8-0.3,1s-0.8,0.1-1-0.3l-0.8-1.3
				c-0.2-0.4-0.1-0.8,0.3-1C476.3,482,476.5,482,476.7,482z"/>
			<path style="fill:#040405;" d="M477.3,485.1c-0.1,0-0.2,0-0.3,0c-0.3-0.1-0.5-0.2-0.6-0.5l-0.8-1.3c-0.3-0.5-0.1-1.1,0.4-1.3
				c0.2-0.1,0.4-0.1,0.6-0.1l0.1,0c0.2,0.1,0.5,0.2,0.6,0.5l0.8,1.3c0.1,0.3,0.2,0.5,0.1,0.8c-0.1,0.3-0.2,0.5-0.5,0.6
				C477.6,485,477.5,485.1,477.3,485.1z M476.6,482.3c-0.1,0-0.2,0-0.3,0l-0.1,0c-0.4,0.2-0.3,0.5-0.2,0.7l0.8,1.3
				c0.2,0.4,0.5,0.3,0.7,0.2c0.1-0.1,0.2-0.2,0.2-0.3c0-0.1,0-0.3-0.1-0.4l-0.8-1.3C476.9,482.4,476.8,482.3,476.6,482.3z"/>
		</g>
		<g>
			<path style="fill:#040506;" d="M470.9,487.1c0.4,0.1,0.6,0.5,0.5,0.9c-0.1,0.2-0.2,0.4-0.3,0.5l-4.6,2.7c-0.4,0.2-0.8,0.1-1-0.3
				s-0.1-0.8,0.3-1l4.6-2.7C470.5,487.1,470.7,487.1,470.9,487.1z"/>
			<path style="fill:#040405;" d="M466.1,491.5c-0.4,0-0.7-0.2-0.8-0.5c-0.1-0.3-0.2-0.5-0.1-0.8c0.1-0.3,0.2-0.5,0.5-0.6l4.6-2.7
				c0.2-0.1,0.4-0.1,0.6-0.1l0.1,0c0.5,0.1,0.8,0.7,0.7,1.2c-0.1,0.3-0.2,0.5-0.4,0.6l-0.1,0l-4.6,2.7
				C466.5,491.5,466.3,491.5,466.1,491.5z M470.9,487.3c-0.1,0-0.3,0-0.3,0l-4.6,2.7c-0.4,0.2-0.3,0.5-0.2,0.7
				c0.2,0.4,0.5,0.3,0.7,0.2l4.6-2.7c0.1-0.1,0.2-0.3,0.2-0.4C471.2,487.7,471.1,487.4,470.9,487.3z"/>
		</g>
	</g>
	<g>
		<path style="fill:#161615;" d="M452.3,500.8c-2.4-10.7-0.3-22.1,5.8-31.2l2.5,1.7c-5.6,8.4-7.6,18.9-5.4,28.8L452.3,500.8z"/>
	</g>
	<g>
		<path style="fill:#161615;" d="M530.3,500.8l-2.9-0.7c2.3-9.9,0.3-20.4-5.4-28.9l2.5-1.7C530.6,478.8,532.7,490.2,530.3,500.8z"/>
	</g>
</g>
</svg>
