
<!-- Generator: Adobe Illustrator 24.3.0, SVG Export Plug-In . SVG Version: 6.00 Build 0)  -->
<svg version="1.1" class="serrurierbis" id="serrurierbis" xmlns="http://www.w3.org/2000/svg" xmlns:xlink="http://www.w3.org/1999/xlink" x="0px" y="0px"
	 viewBox="0 0 111.6 111.6" style="enable-background:new 0 0 111.6 111.6;" xml:space="preserve">
<style type="text/css">
	.st0{fill:#161615;}
	.st1{fill:none;stroke:#161615;stroke-width:3;stroke-miterlimit:10;}
	.st2{fill:#040506;}
</style>
<g id="Groupe_540" transform="translate(206.278 -542.557)">
	<g id="Groupe_524">
		<g id="Trace_1126">
			<path class="st0" d="M-165.9,564.3l-2.7-4.9l0,4.8l-0.6,0.3l-4.1-2.6l2.7,4.9l-1.1,0.6l-3.7-6.8l1.2-0.6l4.5,3l0-5.4l1.2-0.6
				l3.7,6.8L-165.9,564.3z"/>
		</g>
		<g id="Trace_1127">
			<path class="st0" d="M-157.1,560.4l0.3,1.1l-5.2,1.3l-1.9-7.5l5.1-1.3l0.3,1l-3.9,1l0.6,2.1l3.4-0.9l0.3,1l-3.4,0.9l0.6,2.3
				L-157.1,560.4z M-161.2,553.7l-0.8,0l0.3-1.3l1.1-0.3L-161.2,553.7z"/>
		</g>
		<g id="Trace_1128">
			<path class="st0" d="M-148.9,554.1l-2.6,0.1l0.3,6.7l-1.2,0.1l-0.3-6.7l-2.6,0.1l0-1.1l6.4-0.3L-148.9,554.1z"/>
		</g>
		<g id="Trace_1129">
			<path class="st0" d="M-146.2,561.1l0.9-7.7l1.2,0.1l-0.9,7.7L-146.2,561.1z"/>
		</g>
		<g id="Trace_1130">
			<path class="st0" d="M-136.5,562.2l-0.3,1l-5.1-1.5l2.2-7.5l5,1.5l-0.3,1l-3.8-1.1l-0.6,2.1l3.3,1l-0.3,1l-3.3-1l-0.7,2.3
				L-136.5,562.2z"/>
		</g>
		<g id="Trace_1131">
			<path class="st0" d="M-134.5,564.2l3.7-6.8l3,1.6c0.3,0.2,0.6,0.4,0.7,0.7c0.2,0.3,0.3,0.6,0.4,0.9c0.1,0.3,0.1,0.6,0,1
				c0,0.3-0.1,0.6-0.3,0.9c-0.1,0.2-0.3,0.4-0.5,0.6c-0.2,0.2-0.4,0.3-0.6,0.4c-0.2,0.1-0.4,0.2-0.7,0.2c-0.2,0-0.5,0-0.7,0l0.2,3.5
				l-1.2-0.7l-0.2-3.2l-1.6-0.9l-1.3,2.4L-134.5,564.2z M-131.6,561.5l1.9,1c0.1,0.1,0.3,0.1,0.5,0.1c0.2,0,0.3,0,0.5-0.1
				c0.2-0.1,0.3-0.2,0.4-0.3c0.1-0.1,0.3-0.3,0.3-0.4c0.1-0.2,0.2-0.4,0.2-0.5c0-0.2,0-0.4,0-0.5c0-0.2-0.1-0.3-0.2-0.5
				c-0.1-0.1-0.2-0.2-0.4-0.3l-1.8-1L-131.6,561.5z"/>
		</g>
	</g>
	<g id="Groupe_525">
		<g id="Trace_1132">
			<path class="st0" d="M-188,587.6c0.1-0.1,0.2-0.1,0.3-0.2c0.1-0.1,0.3-0.2,0.4-0.4c0.1-0.2,0.3-0.3,0.4-0.5
				c0.1-0.2,0.2-0.4,0.3-0.6c0.2-0.4,0.2-0.8,0.1-1.2c-0.1-0.3-0.3-0.5-0.6-0.6c-0.2-0.1-0.3-0.1-0.5,0c-0.2,0-0.3,0.1-0.4,0.2
				c-0.2,0.1-0.3,0.3-0.4,0.5c-0.1,0.2-0.3,0.4-0.5,0.7c-0.2,0.3-0.4,0.6-0.7,0.9c-0.2,0.2-0.4,0.4-0.7,0.6
				c-0.2,0.1-0.5,0.2-0.8,0.3c-0.3,0-0.6,0-0.9-0.1c-0.3-0.1-0.6-0.3-0.9-0.6c-0.2-0.2-0.4-0.5-0.4-0.8c-0.1-0.3-0.1-0.7-0.1-1
				c0-0.4,0.1-0.7,0.3-1.1c0.2-0.5,0.5-1.1,0.8-1.5c0.3-0.5,0.8-0.8,1.2-1.1l0.8,0.9c-0.2,0.1-0.3,0.2-0.4,0.3
				c-0.2,0.1-0.4,0.3-0.5,0.5c-0.2,0.2-0.3,0.4-0.5,0.6c-0.2,0.2-0.3,0.5-0.4,0.8c-0.2,0.4-0.2,0.8-0.1,1.1c0.1,0.3,0.3,0.5,0.6,0.6
				c0.2,0.1,0.3,0.1,0.5,0c0.2-0.1,0.3-0.2,0.5-0.3c0.2-0.2,0.3-0.3,0.5-0.5c0.2-0.2,0.3-0.5,0.5-0.8c0.2-0.3,0.4-0.6,0.6-0.8
				c0.2-0.2,0.4-0.4,0.6-0.5c0.2-0.1,0.4-0.2,0.7-0.2c0.3,0,0.5,0,0.8,0.1c0.3,0.1,0.6,0.3,0.9,0.5c0.2,0.2,0.4,0.5,0.5,0.8
				c0.1,0.3,0.2,0.7,0.1,1c0,0.4-0.1,0.7-0.2,1.1c-0.2,0.5-0.4,0.9-0.7,1.3c-0.3,0.3-0.6,0.6-1,0.9L-188,587.6z"/>
		</g>
		<g id="Trace_1133">
			<path class="st0" d="M-194.5,596.1l-1.1-0.1l0.7-5.3l7.7,1l-0.6,5.2l-1.1-0.1l0.5-4l-2.2-0.3l-0.4,3.4l-1-0.1l0.4-3.4l-2.4-0.3
				L-194.5,596.1z"/>
		</g>
		<g id="Trace_1134">
			<path class="st0" d="M-195.6,600.5l7.7-0.8l0.3,3.4c0,0.3,0,0.7-0.1,1c-0.1,0.3-0.3,0.6-0.5,0.8c-0.2,0.2-0.5,0.4-0.8,0.6
				c-0.3,0.1-0.6,0.2-0.9,0.3c-0.3,0-0.5,0-0.8,0c-0.2,0-0.5-0.1-0.7-0.2c-0.2-0.1-0.4-0.3-0.6-0.4c-0.2-0.2-0.3-0.4-0.4-0.6
				l-2.8,2.1l-0.1-1.4l2.5-1.9l-0.2-1.8l-2.7,0.3L-195.6,600.5z M-191.7,601.3l0.2,2.1c0,0.2,0.1,0.3,0.2,0.5
				c0.1,0.1,0.2,0.2,0.4,0.3c0.2,0.1,0.3,0.2,0.5,0.2c0.2,0,0.4,0.1,0.6,0c0.2,0,0.4-0.1,0.5-0.2c0.2-0.1,0.3-0.2,0.4-0.3
				c0.1-0.1,0.2-0.3,0.3-0.4c0.1-0.2,0.1-0.3,0.1-0.5l-0.2-2.1L-191.7,601.3z"/>
		</g>
		<g id="Trace_1135">
			<path class="st0" d="M-194,610.9l7.4-2.5l1.1,3.2c0.1,0.3,0.1,0.7,0.1,1c0,0.3-0.1,0.6-0.3,0.9c-0.2,0.3-0.4,0.5-0.6,0.7
				c-0.2,0.2-0.5,0.4-0.8,0.5c-0.2,0.1-0.5,0.1-0.8,0.1c-0.2,0-0.5,0-0.7-0.1c-0.2-0.1-0.5-0.2-0.7-0.3c-0.2-0.1-0.4-0.3-0.5-0.5
				l-2.2,2.7l-0.5-1.3l2-2.5l-0.6-1.7l-2.6,0.9L-194,610.9z M-190,610.8l0.7,2c0.1,0.2,0.1,0.3,0.3,0.4c0.1,0.1,0.3,0.2,0.4,0.2
				c0.2,0.1,0.3,0.1,0.5,0.1c0.2,0,0.4,0,0.6-0.1c0.2-0.1,0.3-0.2,0.5-0.3c0.1-0.1,0.3-0.3,0.3-0.4c0.1-0.1,0.1-0.3,0.2-0.5
				c0-0.2,0-0.3,0-0.5l-0.7-2L-190,610.8z"/>
		</g>
		<g id="Trace_1136">
			<path class="st0" d="M-187.3,622.8c0.2,0.3,0.4,0.6,0.8,0.7c0.3,0.1,0.6,0.2,0.9,0.2c0.3,0,0.6-0.1,0.9-0.2
				c0.3-0.1,0.6-0.3,0.9-0.5l3.3-2.1l0.7,1l-3.3,2.1c-0.4,0.3-0.9,0.5-1.4,0.7c-0.4,0.1-0.9,0.2-1.4,0.2c-0.5,0-0.9-0.2-1.3-0.4
				c-0.4-0.3-0.8-0.7-1.1-1.1c-0.3-0.4-0.5-1-0.6-1.5c-0.1-0.5,0-0.9,0.2-1.3c0.2-0.4,0.4-0.8,0.7-1.2c0.3-0.4,0.7-0.7,1.1-0.9
				l3.3-2.1l0.7,1l-3.3,2.1c-0.3,0.2-0.6,0.4-0.8,0.7c-0.2,0.2-0.4,0.5-0.6,0.8c-0.1,0.3-0.2,0.6-0.2,0.9
				C-187.7,622.2-187.5,622.6-187.3,622.8z"/>
		</g>
		<g id="Trace_1137">
			<path class="st0" d="M-183.1,630l5.3-5.7l2.5,2.3c0.2,0.2,0.4,0.5,0.6,0.8c0.1,0.3,0.2,0.6,0.2,0.9c0,0.3-0.1,0.6-0.2,0.9
				c-0.1,0.3-0.3,0.6-0.5,0.8c-0.2,0.2-0.4,0.3-0.6,0.5c-0.2,0.1-0.4,0.2-0.7,0.3c-0.2,0.1-0.5,0.1-0.7,0.1c-0.2,0-0.5-0.1-0.7-0.2
				l-0.7,3.4l-1-0.9l0.6-3.1l-1.3-1.2l-1.8,2L-183.1,630z M-179.7,628.1l1.6,1.5c0.1,0.1,0.3,0.2,0.4,0.2c0.2,0,0.3,0,0.5,0
				c0.2,0,0.3-0.1,0.5-0.2c0.2-0.1,0.3-0.2,0.4-0.3c0.1-0.1,0.2-0.3,0.3-0.5c0.1-0.2,0.1-0.3,0.1-0.5c0-0.2,0-0.3-0.1-0.5
				c-0.1-0.2-0.1-0.3-0.3-0.4l-1.5-1.4L-179.7,628.1z"/>
		</g>
		<g id="Trace_1138">
			<path class="st0" d="M-175.4,636.4l4.2-6.5l1,0.7l-4.2,6.5L-175.4,636.4z"/>
		</g>
		<g id="Trace_1139">
			<path class="st0" d="M-165.1,640.5l-0.4,1l-4.9-2.1l3.1-7.1l4.8,2.1l-0.4,1l-3.7-1.6l-0.9,2l3.2,1.4l-0.4,0.9l-3.2-1.4l-0.9,2.2
				L-165.1,640.5z"/>
		</g>
		<g id="Trace_1140">
			<path class="st0" d="M-161.2,642.8l1.4-7.6l3.3,0.6c0.3,0.1,0.6,0.2,0.9,0.4c0.3,0.2,0.5,0.4,0.6,0.7c0.2,0.3,0.3,0.6,0.3,0.9
				c0.1,0.3,0.1,0.6,0,0.9c0,0.3-0.1,0.5-0.2,0.7c-0.1,0.2-0.3,0.4-0.4,0.6c-0.2,0.2-0.4,0.3-0.6,0.4c-0.2,0.1-0.4,0.2-0.7,0.2
				l1.3,3.2l-1.4-0.3l-1.2-3l-1.8-0.3l-0.5,2.7L-161.2,642.8z M-159.3,639.3l2.1,0.4c0.2,0,0.3,0,0.5,0c0.2,0,0.3-0.1,0.4-0.2
				c0.1-0.1,0.2-0.3,0.3-0.4c0.1-0.2,0.2-0.3,0.2-0.5c0-0.2,0-0.4,0-0.6c0-0.2-0.1-0.3-0.2-0.5c-0.1-0.1-0.2-0.3-0.3-0.4
				c-0.1-0.1-0.3-0.2-0.4-0.2l-2-0.4L-159.3,639.3z"/>
		</g>
		<g id="Trace_1141">
			<path class="st0" d="M-151.3,641.7l0-1.1l3.3,0l0,1.1L-151.3,641.7z"/>
		</g>
		<g id="Trace_1142">
			<path class="st0" d="M-136.9,642.2l-1.3-5.4l-1.2,4.7l-0.7,0.2l-3.3-3.6l1.3,5.4l-1.2,0.3l-1.8-7.6l1.3-0.3l3.6,4l1.4-5.2
				l1.3-0.3l1.8,7.6L-136.9,642.2z"/>
		</g>
		<g id="Trace_1143">
			<path class="st0" d="M-126.7,636.4l0.5,1l-4.7,2.5l-3.7-6.9l4.6-2.5l0.5,1l-3.5,1.9l1,2l3.1-1.6l0.5,0.9l-3.1,1.6l1.1,2.1
				L-126.7,636.4z M-132.3,630.8l-0.8,0.2l0-1.4l1-0.5L-132.3,630.8z"/>
		</g>
		<g id="Trace_1144">
			<path class="st0" d="M-122.6,626l-2,1.7l4.4,5.1l-0.9,0.8l-4.4-5.1l-2,1.7l-0.7-0.8l4.9-4.2L-122.6,626z"/>
		</g>
		<g id="Trace_1145">
			<path class="st0" d="M-120.7,622l0.7-0.9l8,2.3l-0.8,1l-2.2-0.6l-1.8,2.4l1.2,1.9l-0.8,1L-120.7,622z M-115.8,623.5l-3.4-1
				l1.9,3.1L-115.8,623.5z"/>
		</g>
		<g id="Trace_1146">
			<path class="st0" d="M-110,619.8l-7.1-3.3l0.5-1.1l6.1,2.8l1.8-3.8l1,0.5L-110,619.8z"/>
		</g>
		<g id="Trace_1147">
			<path class="st0" d="M-106.5,611l-7.6-1.7l0.3-1.2l6.5,1.5l0.9-4.1l1.1,0.2L-106.5,611z"/>
		</g>
		<g id="Trace_1148">
			<path class="st0" d="M-105,601.9l-7.8-0.4l0.1-1.2l7.8,0.4L-105,601.9z"/>
		</g>
		<g id="Trace_1149">
			<path class="st0" d="M-106.5,591l1.1-0.1l0.6,5.3l-7.7,0.9l-0.6-5.2l1.1-0.1l0.4,4l2.2-0.2l-0.4-3.5l1-0.1l0.4,3.5l2.4-0.3
				L-106.5,591z"/>
		</g>
		<g id="Trace_1150">
			<path class="st0" d="M-106.5,586.5l-7.3,2.6l-1.1-3.2c-0.1-0.3-0.2-0.7-0.1-1c0-0.3,0.1-0.6,0.3-0.9c0.2-0.3,0.4-0.5,0.6-0.7
				c0.2-0.2,0.5-0.4,0.8-0.5c0.2-0.1,0.5-0.1,0.8-0.1c0.2,0,0.5,0,0.7,0.1c0.2,0.1,0.5,0.2,0.7,0.3c0.2,0.1,0.4,0.3,0.5,0.5l2.2-2.7
				l0.5,1.3l-2,2.5l0.6,1.7l2.6-0.9L-106.5,586.5z M-110.5,586.5l-0.7-2c-0.1-0.2-0.1-0.3-0.3-0.4c-0.1-0.1-0.3-0.2-0.4-0.2
				c-0.2-0.1-0.3-0.1-0.5-0.1c-0.2,0-0.4,0-0.6,0.1c-0.2,0.1-0.3,0.2-0.5,0.3c-0.1,0.1-0.3,0.3-0.3,0.4c-0.1,0.1-0.1,0.3-0.2,0.5
				c0,0.2,0,0.3,0,0.5l0.7,2L-110.5,586.5z"/>
		</g>
	</g>
	<g id="Groupe_526">
		<g id="Trace_1151">
			<path class="st1" d="M-185.7,598.4"/>
		</g>
	</g>
	<g id="Groupe_527">
		<g id="Trace_1152">
			<path class="st0" d="M-150.5,654.1c-30.8,0-55.7-25-55.8-55.8c0-30.8,25-55.7,55.8-55.8c30.8,0,55.7,25,55.8,55.8
				C-94.8,629.1-119.7,654.1-150.5,654.1z M-150.5,545.6c-29.1,0-52.7,23.6-52.8,52.8c0,29.1,23.6,52.7,52.8,52.8
				c29.1,0,52.7-23.6,52.8-52.8C-97.8,569.2-121.4,545.6-150.5,545.6z"/>
		</g>
	</g>
	<g id="Groupe_535">
		<g id="Groupe_528">
			<g id="Trace_1153" class="hammer">
				<path class="st2" d="M-131.3,585.4c-0.8-0.8-1.8-1.1-2.9-1.1l-15,0.9v-4c0-0.3-0.1-0.5-0.3-0.7l-1-1c-0.2-0.2-0.5-0.3-0.7-0.3
					h-8.2c-0.3,0-0.5,0.1-0.7,0.3l-1,1c-0.2,0.2-0.3,0.5-0.3,0.7v4.1h-1c-1.7,0-3.1,1.4-3.1,3.1c0,1.7,1.4,3.1,3.1,3.1h1v4.1
					c0,0.3,0.1,0.5,0.3,0.7l1,1c0.2,0.2,0.5,0.3,0.7,0.3h8.2c0.3,0,0.5-0.1,0.7-0.3l1-1c0.2-0.2,0.3-0.5,0.3-0.7v-4l15,0.9
					c0.1,0,0.1,0,0.2,0c2.2,0,4-1.8,4-4l0,0C-130.1,587.2-130.5,586.2-131.3,585.4z M-162.6,589.3c-0.6,0-1-0.5-1-1c0-0.6,0.5-1,1-1
					h1v2H-162.6z M-151.3,595l-0.4,0.4h-7.3l-0.4-0.4v-13.5l0.4-0.4h7.3l0.4,0.4V595z M-132.7,589.7c-0.4,0.4-0.9,0.6-1.4,0.5
					l-15.1-0.9v-2.1l15.1-0.9c1.1,0,2,0.8,2,1.8C-132.1,588.8-132.3,589.3-132.7,589.7L-132.7,589.7z"/>
			</g>
		</g>
		<g id="Groupe_529" class="sparkles">
			<g id="Rectangle_189">
				<rect x="-156.4" y="571.9" class="st2" width="2" height="5.1"/>
			</g>
		</g>
		<g id="Groupe_530" class="sparkles">
			<g id="Rectangle_190">
				<rect x="-168.2" y="575.5" transform="matrix(0.866 -0.5 0.5 0.866 -312.4813 -5.8645)" class="st2" width="2" height="9.3"/>
			</g>
		</g>
		<g id="Groupe_531" class="sparkles">
			<g id="Rectangle_191">
				<rect x="-147.4" y="594.1" transform="matrix(0.866 -0.5 0.5 0.866 -317.1294 6.7403)" class="st2" width="2.8" height="2"/>
			</g>
		</g>
		<g id="Groupe_532" class="sparkles">
			<g id="Rectangle_192">
				<rect x="-147" y="579.3" transform="matrix(0.5 -0.866 0.866 0.5 -574.4619 165.7079)" class="st2" width="6.5" height="2"/>
			</g>
		</g>
		<g id="Groupe_533" class="sparkles">
			<g id="Rectangle_193">
				
					<rect x="-162.8" y="575.5" transform="matrix(0.9659 -0.2588 0.2588 0.9659 -154.7765 -22.2289)" class="st2" width="2" height="2.4"/>
			</g>
		</g>
		<g id="Groupe_534" class="sparkles">
			<g id="Rectangle_194">
				
					<rect x="-167.8" y="593.1" transform="matrix(0.2588 -0.9659 0.9659 0.2588 -698.8253 280.302)" class="st2" width="2" height="4.8"/>
			</g>
		</g>
	</g>
	<g id="Groupe_536" class="bottom">
		<g id="Trace_1154">
			<path class="st0" d="M-130.6,617.8h-39.2c-1.7,0-3.1-1.4-3.1-3.1v-5.8c0-1.7,1.4-3.1,3.1-3.1h39.2c1.7,0,3.1,1.4,3.1,3.1v5.8
				C-127.5,616.4-128.9,617.8-130.6,617.8z M-169.9,608c-0.5,0-0.9,0.4-0.9,0.9v5.8c0,0.5,0.4,0.9,0.9,0.9h39.2
				c0.5,0,0.9-0.4,0.9-0.9v-5.8c0-0.5-0.4-0.9-0.9-0.9H-169.9z"/>
		</g>
	</g>
	<g id="Groupe_537" class="bottom">
		<g id="Trace_1155">
			<path class="st0" d="M-133.2,607.9h-34.1v-8.2h34.1V607.9z M-165,605.6h29.6v-3.7H-165L-165,605.6z"/>
		</g>
	</g>
	<g id="Groupe_538">
		<g id="Trace_1156">
			<path class="st0" d="M-184.4,577l-2.6-1.4c1.9-3.4,4.2-6.5,6.9-9.2l2.1,2.1C-180.5,571-182.7,573.9-184.4,577z"/>
		</g>
	</g>
	<g id="Groupe_539">
		<g id="Trace_1157">
			<path class="st0" d="M-117.6,576.8c-1.7-3.1-3.8-5.9-6.3-8.4l2.1-2.1c2.7,2.7,5,5.7,6.8,9L-117.6,576.8z"/>
		</g>
	</g>
</g>
</svg>
