
<!-- Generator: Adobe Illustrator 24.3.0, SVG Export Plug-In . SVG Version: 6.00 Build 0)  -->
<svg version="1.1" id="chauffagiste" xmlns="http://www.w3.org/2000/svg" xmlns:xlink="http://www.w3.org/1999/xlink" x="0px"
	 y="0px" viewBox="0 0 111.6 111.6" style="enable-background:new 0 0 111.6 111.6;" xml:space="preserve">
<style type="text/css">
	.st0{fill:#161615;}
	.st1{fill:none;stroke:#161615;stroke-width:3;stroke-miterlimit:10;}
	.st2{fill:#040506;}
</style>
<g id="Groupe_438" transform="translate(-278.596 -277.56)">
	<g id="Ellipse_18">
		<g>
			<path class="st0" d="M334.4,389.1c-30.8,0-55.8-25-55.8-55.8s25-55.8,55.8-55.8s55.8,25,55.8,55.8S365.2,389.1,334.4,389.1z
				 M334.4,280.5c-29.1,0-52.8,23.7-52.8,52.8s23.7,52.8,52.8,52.8c29.1,0,52.8-23.7,52.8-52.8S363.5,280.5,334.4,280.5z"/>
		</g>
	</g>
	<g id="Groupe_435">
		<g id="Groupe_434">
			<g id="Tracé_826">
				<g>
					<path class="st0" d="M317.7,304.3l-3.5-5l0.6,5.3l-0.6,0.4l-4.7-2.4l3.5,5l-1.1,0.8l-4.9-7l1.2-0.8l5.3,2.7l-0.7-5.9l1.2-0.8
						l4.9,7L317.7,304.3z"/>
				</g>
			</g>
			<g id="Tracé_827">
				<g>
					<path class="st0" d="M327,299.4l0.4,1.1l-5.6,1.8l-2.6-8.1l5.5-1.7l0.4,1.1l-4.2,1.3l0.7,2.3l3.6-1.1l0.3,1.1l-3.6,1.1l0.8,2.5
						L327,299.4z M322,292.4h-0.9l0.3-1.5l1.2-0.4L322,292.4z"/>
				</g>
			</g>
			<g id="Tracé_828">
				<g>
					<path class="st0" d="M335.8,292.5l-2.8,0.1l0.4,7.3L332,300l-0.4-7.3l-2.8,0.1l-0.1-1.2l7-0.4L335.8,292.5z"/>
				</g>
			</g>
			<g id="Tracé_829">
				<g>
					<path class="st0" d="M338.8,300.2l1.3-8.4l1.3,0.2l-1.3,8.4L338.8,300.2z"/>
				</g>
			</g>
			<g id="Tracé_830">
				<g>
					<path class="st0" d="M349.3,302l-0.4,1.1l-5.5-2l2.9-8l5.4,2l-0.4,1.1l-4.1-1.5l-0.8,2.3l3.6,1.3l-0.4,1L346,298l-0.9,2.4
						L349.3,302z"/>
				</g>
			</g>
			<g id="Tracé_831">
				<g>
					<path class="st0" d="M351.2,304.4l4.9-7l3,2.1c0.3,0.2,0.6,0.5,0.7,0.8c0.2,0.3,0.3,0.6,0.3,1c0,0.3,0,0.7-0.1,1
						s-0.2,0.7-0.4,0.9c-0.2,0.2-0.4,0.4-0.6,0.6s-0.4,0.3-0.7,0.4c-0.2,0.1-0.5,0.2-0.8,0.2s-0.5,0-0.8-0.1l-0.2,3.8l-1.2-0.9
						l0.2-3.5l-1.6-1.1l-1.7,2.4L351.2,304.4z M354.7,301.8l1.9,1.4c0.1,0.1,0.3,0.2,0.5,0.2s0.4,0,0.5-0.1c0.2-0.1,0.4-0.1,0.5-0.3
						c0.2-0.1,0.3-0.3,0.4-0.4c0.1-0.2,0.2-0.4,0.3-0.6c0-0.2,0.1-0.4,0-0.6c0-0.2-0.1-0.4-0.2-0.5c-0.1-0.2-0.2-0.3-0.3-0.4
						l-1.9-1.3L354.7,301.8z"/>
				</g>
			</g>
		</g>
	</g>
	<g id="Groupe_437">
		<g id="Groupe_436">
			<g id="Tracé_832">
				<g>
					<path class="st0" d="M296.5,333.5c0.5-0.1,1,0,1.5,0.1s1,0.4,1.4,0.7c0.4,0.3,0.8,0.7,1.1,1.2c0.3,0.5,0.5,1.1,0.5,1.7
						c0.1,0.7,0,1.4-0.3,2s-0.7,1-1.2,1.4l-0.8-1c0.2-0.1,0.4-0.3,0.6-0.5s0.3-0.4,0.4-0.6s0.1-0.4,0.2-0.6c0-0.2,0-0.4,0-0.6
						c0-0.4-0.2-0.8-0.4-1.1c-0.2-0.3-0.5-0.6-0.8-0.8c-0.3-0.2-0.7-0.3-1-0.4c-0.4-0.1-0.7-0.1-1.1-0.1s-0.8,0.1-1.2,0.3
						c-0.3,0.2-0.7,0.4-0.9,0.7c-0.3,0.3-0.5,0.6-0.6,0.9c-0.1,0.4-0.2,0.7-0.1,1.1c0,0.2,0.1,0.4,0.1,0.6c0.1,0.2,0.2,0.4,0.3,0.6
						c0.1,0.2,0.3,0.4,0.5,0.5c0.2,0.2,0.4,0.3,0.7,0.4l-0.5,1.2c-0.3-0.1-0.6-0.3-0.9-0.5s-0.5-0.5-0.7-0.8s-0.4-0.6-0.5-0.9
						s-0.2-0.7-0.2-1c-0.1-0.6,0-1.1,0.2-1.7c0.2-0.5,0.5-1,0.9-1.4s0.8-0.7,1.3-1C295.4,333.7,296,333.5,296.5,333.5z"/>
				</g>
			</g>
			<g id="Tracé_833">
				<g>
					<path class="st0" d="M304.9,349.7l-7.8,3.3l-0.5-1.2l3.5-1.5l-1.7-4l-3.5,1.5l-0.5-1.2l7.8-3.3l0.5,1.2l-3.3,1.4l1.7,4l3.3-1.4
						L304.9,349.7z"/>
				</g>
			</g>
			<g id="Tracé_834">
				<g>
					<path class="st0" d="M308.5,354.5l0.8,0.9l-4.3,8.1l-0.9-1.1l1.2-2.2l-2.1-2.5l-2.3,0.8l-0.9-1.1L308.5,354.5z M305.8,359.4
						l1.9-3.4l-3.7,1.3L305.8,359.4z"/>
				</g>
			</g>
			<g id="Tracé_835">
				<g>
					<path class="st0" d="M312,367.5c0.3,0.2,0.7,0.4,1.1,0.4c0.3,0,0.7,0,1-0.2c0.3-0.1,0.6-0.3,0.9-0.6c0.3-0.3,0.5-0.6,0.7-0.9
						l2.4-3.6l1.1,0.7l-2.4,3.6c-0.3,0.5-0.7,0.9-1.1,1.3c-0.4,0.3-0.8,0.6-1.3,0.8c-0.5,0.2-1,0.2-1.5,0.1
						c-0.6-0.1-1.1-0.3-1.6-0.7c-0.5-0.3-0.9-0.7-1.2-1.2c-0.3-0.4-0.4-0.9-0.4-1.4s0.1-1,0.2-1.5c0.2-0.5,0.4-1,0.7-1.4l2.4-3.6
						l1.1,0.7l-2.4,3.6c-0.2,0.3-0.4,0.7-0.5,1s-0.2,0.7-0.2,1s0.1,0.7,0.2,1C311.4,367,311.7,367.3,312,367.5z"/>
				</g>
			</g>
			<g id="Tracé_836">
				<g>
					<path class="st0" d="M319.9,372.8l2.5-8.2l5.4,1.6l-0.3,1.1l-4.1-1.3l-0.7,2.4l3.5,1l-0.3,1.1l-3.5-1l-1.1,3.5L319.9,372.8z"/>
				</g>
			</g>
			<g id="Tracé_837">
				<g>
					<path class="st0" d="M330.3,375.2l0.3-8.5l5.7,0.2v1.2l-4.3-0.2l-0.1,2.5l3.6,0.1v1.1l-3.6-0.1l-0.1,3.7L330.3,375.2z"/>
				</g>
			</g>
			<g id="Tracé_838">
				<g>
					<path class="st0" d="M340.7,366.2l1.2-0.2l5,7.6l-1.4,0.3l-1.4-2.1l-3.2,0.7l-0.4,2.4l-1.4,0.3L340.7,366.2z M343.7,370.9
						l-2.1-3.3l-0.6,3.9L343.7,370.9z"/>
				</g>
			</g>
			<g id="Tracé_839">
				<g>
					<path class="st0" d="M356.1,368.1c-0.2,0.9-0.8,1.7-1.7,2.2c-0.5,0.3-1,0.4-1.6,0.4c-0.5,0-1.1-0.1-1.6-0.2
						c-0.5-0.2-1-0.5-1.4-0.8c-0.4-0.4-0.8-0.8-1.1-1.3c-0.3-0.5-0.4-1-0.5-1.6c-0.1-0.5,0-1.1,0.1-1.6s0.4-1,0.7-1.4
						c0.8-1,2-1.6,3.3-1.6c0.6,0,1.2,0.2,1.7,0.6l-0.6,1.1c-0.4-0.3-0.9-0.4-1.3-0.5c-0.5,0-0.9,0.1-1.3,0.3
						c-0.3,0.2-0.6,0.4-0.8,0.7c-0.2,0.3-0.3,0.6-0.4,1s-0.1,0.8,0,1.1c0.1,0.4,0.2,0.8,0.4,1.1c0.2,0.4,0.5,0.7,0.8,1
						s0.6,0.5,1,0.6c0.3,0.1,0.7,0.2,1.1,0.2s0.7-0.1,1.1-0.3c0.4-0.2,0.7-0.5,1-0.9s0.5-0.9,0.5-1.4l-0.4-0.8l-1.6,0.8l-0.5-0.9
						l2.6-1.4l2,3.8l-1,0.5L356.1,368.1z"/>
				</g>
			</g>
			<g id="Tracé_840">
				<g>
					<path class="st0" d="M361.6,365.4L356,359l1-0.9l5.6,6.4L361.6,365.4z"/>
				</g>
			</g>
			<g id="Tracé_841">
				<g>
					<path class="st0" d="M364.1,352.8c-0.1,0-0.3,0.1-0.4,0.1c-0.2,0.1-0.4,0.2-0.5,0.3c-0.2,0.1-0.4,0.3-0.6,0.4
						c-0.2,0.2-0.4,0.3-0.5,0.5c-0.3,0.3-0.5,0.8-0.5,1.2c0,0.3,0.2,0.7,0.5,0.8c0.1,0.1,0.3,0.2,0.5,0.2s0.4,0,0.5-0.1
						c0.2-0.1,0.4-0.2,0.6-0.4c0.2-0.2,0.5-0.4,0.8-0.6c0.3-0.3,0.6-0.5,1-0.7c0.3-0.2,0.6-0.3,0.9-0.4s0.6-0.1,0.9,0
						s0.6,0.2,0.9,0.4c0.3,0.2,0.6,0.5,0.7,0.9c0.1,0.3,0.2,0.7,0.2,1c0,0.4-0.1,0.7-0.2,1.1c-0.2,0.4-0.4,0.7-0.6,1.1
						c-0.4,0.5-0.8,1-1.4,1.3c-0.5,0.4-1.1,0.6-1.7,0.8l-0.6-1.2c0.2,0,0.4-0.1,0.5-0.2c0.2-0.1,0.5-0.2,0.7-0.3
						c0.3-0.2,0.5-0.3,0.7-0.5s0.5-0.4,0.7-0.7c0.3-0.3,0.5-0.7,0.5-1.1c0-0.3-0.1-0.6-0.4-0.8c-0.2-0.1-0.3-0.2-0.5-0.2
						s-0.4,0.1-0.6,0.1c-0.2,0.1-0.5,0.3-0.7,0.4c-0.2,0.2-0.5,0.4-0.8,0.6s-0.6,0.5-0.9,0.7s-0.5,0.3-0.8,0.4s-0.5,0.1-0.8,0
						s-0.6-0.2-0.8-0.4c-0.3-0.2-0.6-0.5-0.7-0.9c-0.2-0.3-0.3-0.7-0.3-1c0-0.4,0.1-0.7,0.2-1.1s0.3-0.8,0.6-1.1
						c0.3-0.4,0.7-0.8,1.2-1.1c0.4-0.3,0.9-0.5,1.3-0.6L364.1,352.8z"/>
				</g>
			</g>
			<g id="Tracé_842">
				<g>
					<path class="st0" d="M367.9,342.9l-1.1,2.6l6.8,2.7l-0.5,1.3l-6.8-2.7l-1.1,2.6l-1.1-0.4l2.6-6.5L367.9,342.9z"/>
				</g>
			</g>
			<g id="Tracé_843">
				<g>
					<path class="st0" d="M375.3,334.8l1.2,0.1l-0.7,5.8l-8.5-1l0.7-5.7l1.2,0.1l-0.5,4.4l2.4,0.3l0.4-3.8l1.1,0.1l-0.4,3.8l2.6,0.3
						L375.3,334.8z"/>
				</g>
			</g>
		</g>
	</g>
	<g id="Tracé_844">
		<g>
			<path class="st1" d="M299,333.2"/>
		</g>
	</g>
	<g>
		<g id="p1">
			<g>
				<path class="st2" d="M315.9,346.4c0,2.9,2.4,5.3,5.4,5.2c2.9,0,5.2-2.3,5.2-5.2v-24c0-2.9-2.4-5.3-5.4-5.2
					c-2.9,0-5.2,2.3-5.2,5.2v0.1l0,0V346.4z M323.8,322.4L323.8,322.4v23.8c-0.1,1.5-1.4,2.6-2.8,2.4c-1.3-0.1-2.4-1.1-2.4-2.4
					v-23.7c-0.1-1.5,1-2.7,2.4-2.8c1.5-0.1,2.7,1,2.8,2.4C323.8,322.2,323.8,322.3,323.8,322.4z"/>
			</g>
		</g>
		<g id="p2">
			<g>
				<path class="st2" d="M329.1,346.4c0,2.9,2.4,5.3,5.4,5.2c2.9,0,5.2-2.3,5.2-5.2v-24c0-2.9-2.4-5.3-5.4-5.2
					c-2.9,0-5.2,2.3-5.2,5.2v0.1l0,0V346.4z M337,322.4L337,322.4v23.8c-0.1,1.5-1.4,2.6-2.8,2.4c-1.3-0.1-2.4-1.1-2.4-2.4v-23.7
					c-0.1-1.5,1-2.7,2.4-2.8c1.5-0.1,2.7,1,2.8,2.4C337,322.2,337,322.3,337,322.4z"/>
			</g>
		</g>
		<g id="p3">
			<g>
				<path class="st2" d="M342.2,346.4c0,2.9,2.4,5.3,5.4,5.2c2.9,0,5.2-2.3,5.2-5.2v-24c0-2.9-2.4-5.3-5.4-5.2
					c-2.9,0-5.2,2.3-5.2,5.2v0.1l0,0V346.4z M350.2,322.3C350.2,322.4,350.2,322.4,350.2,322.3v23.8c-0.1,1.5-1.4,2.6-2.8,2.4
					c-1.3-0.1-2.4-1.1-2.4-2.4v-23.7c-0.1-1.5,1-2.7,2.4-2.8c1.5-0.1,2.7,1,2.8,2.4C350.2,322.1,350.2,322.2,350.2,322.3z"/>
			</g>
		</g>
		<g>
			<g>
				<path class="st2" d="M351.8,345.1h5c0.8,0,1.4-0.6,1.4-1.3c0,0,0,0,0-0.1l0,0c0-0.8-0.6-1.4-1.3-1.4c0,0,0,0-0.1,0l0,0h-5V345.1
					z"/>
			</g>
		</g>
		<g>
			<g>
				<rect x="338.7" y="342.2" class="st2" width="4.6" height="2.8"/>
			</g>
		</g>
		<g>
			<g>
				<rect x="325.5" y="342.2" class="st2" width="4.6" height="2.8"/>
			</g>
		</g>
		<g>
			<g>
				<path class="st2" d="M316.9,345h-5c0,0,0,0-0.1,0c-0.8,0-1.3-0.6-1.3-1.4l0,0c0,0,0,0,0-0.1c0-0.8,0.6-1.3,1.4-1.3h5V345z"/>
			</g>
		</g>
		<g>
			<g>
				<path class="st2" d="M351.8,327.9h5c0.8,0,1.4-0.6,1.4-1.3c0,0,0,0,0-0.1l0,0c0-0.8-0.6-1.4-1.3-1.4c0,0,0,0-0.1,0l0,0h-5V327.9
					z"/>
			</g>
		</g>
		<g>
			<g>
				<rect x="338.7" y="325.1" class="st2" width="4.6" height="2.8"/>
			</g>
		</g>
		<g>
			<g>
				<rect x="325.5" y="325.1" class="st2" width="4.6" height="2.8"/>
			</g>
		</g>
		<g>
			<g>
				<path class="st2" d="M316.9,327.9h-5c0,0,0,0-0.1,0c-0.8,0-1.3-0.6-1.3-1.4l0,0c0,0,0,0,0-0.1c0-0.8,0.6-1.3,1.4-1.3h5V327.9z"
					/>
			</g>
		</g>
	</g>
	<g id="Tracé_846">
		<g>
			<path class="st0" d="M297.7,327l-3-0.5c0.9-5.3,3-10.3,6-15l2.5,1.7C300.4,317.4,298.5,322.1,297.7,327z"/>
		</g>
	</g>
	<g id="Tracé_847">
		<g>
			<path class="st0" d="M371,327c-0.9-4.9-2.6-9.5-5.3-13.5l2.5-1.6c2.9,4.4,4.8,9.3,5.7,14.7L371,327z"/>
		</g>
	</g>
</g>
<g id="draw1">
	<path d="M51.5,37.7c-0.3,0-0.5-0.1-0.7-0.3c-0.4-0.4-0.4-1,0-1.4c0.5-0.5,0.5-1.4,0-2c-1.2-1.2-1.3-3.3,0-4.7
		c0.4-0.4,1-0.4,1.4-0.1c0.4,0.4,0.4,1,0.1,1.4c-0.5,0.6-0.6,1.5,0,2c1.3,1.4,1.3,3.5,0,4.8C52,37.6,51.8,37.7,51.5,37.7z"/>
</g>
<g id="draw2">
	<path d="M60.1,33.6c-0.3,0-0.5-0.1-0.7-0.3c-0.4-0.4-0.4-1,0-1.4c0.5-0.5,0.5-1.4,0-2c-1.2-1.2-1.3-3.3,0-4.7
		c0.4-0.4,1-0.4,1.4-0.1c0.4,0.4,0.4,1,0.1,1.4c-0.5,0.6-0.6,1.5,0,2c1.3,1.4,1.3,3.5,0,4.8C60.6,33.5,60.4,33.6,60.1,33.6z"/>
</g>
</svg>
