<!-- Generator: Adobe Illustrator 24.3.0, SVG Export Plug-In . SVG Version: 6.00 Build 0) -->
<svg id="platrier" version="1.1" xmlns="http://www.w3.org/2000/svg" xmlns:xlink="http://www.w3.org/1999/xlink" x="0px" y="0px" viewBox="0 0 200 200" style="enable-background:new 0 0 200 200;" xml:space="preserve">
	<g id="Groupe_289" transform="translate(-60.835 142.491)">
		<path id="Tracé_655" d="M160.8-142.5c-55.2,0.1-99.9,44.8-100,100c0.1,55.2,44.8,99.9,100,100c55.2-0.1,99.9-44.8,100-100
		C260.8-97.7,216-142.4,160.8-142.5z M160.8,52.1C108.6,52,66.2,9.7,66.2-42.5c0.1-52.2,42.4-94.6,94.6-94.6
		c52.2,0.1,94.6,42.4,94.6,94.6S213.1,52.1,160.8,52.1z" />
		<path id="Tracé_656" d="M106.8-89.5l-4.3-3.2c-2.4,3.3-4.6,6.8-6.4,10.4l4.8,2.4C102.6-83.2,104.6-86.4,106.8-89.5z" />
		<path id="Tracé_657" d="M223.7-82.9c-2.2-3.4-4.8-6.6-7.5-9.6l-3.9,3.7c2.6,2.8,4.9,5.8,7,8.9L223.7-82.9z" />
		<path id="Tracé_658" d="M124.6-97.9l-4.9-8.8l7.4,4.7l1.1-0.6l-0.1-8.7l4.9,8.9l2-1.1l-6.8-12.3l-2.1,1.1l0.1,9.8l-8.2-5.3
		l-2.1,1.1l6.8,12.3L124.6-97.9z" />
		<path id="Tracé_659" d="M142.5-124.7l-2,0.5l-0.6,2.4l1.5,0.1L142.5-124.7z" />
		<path id="Tracé_660" d="M149.4-107.7l-0.5-1.9l-7.2,1.9l-1.1-4.2l6.1-1.6l-0.5-1.8l-6.1,1.6l-1-3.9l7-1.8l-0.5-1.9l-9.2,2.4
		l3.5,13.6L149.4-107.7z" />
		<path id="Tracé_661" d="M156.9-120.5l0.4,12.1l2.2-0.1l-0.4-12.1l4.7-0.2l-0.1-2l-11.6,0.4l0.1,2L156.9-120.5z" />
		<rect id="Rectangle_96" x="163.5" y="-116" transform="matrix(0.1327 -0.9912 0.9912 0.1327 261.7097 69.3324)" width="14" height="2.2" />
		<path id="Tracé_662" d="M186-105.8l-7-2.2l1.3-4.1l6,1.9l0.6-1.8l-6-1.9l1.2-3.8l6.9,2.2l0.6-1.9l-9-2.8l-4.2,13.4l9.2,2.9
		L186-105.8z" />
		<path id="Tracé_663" d="M194-105.2l2.8,1.6l0.2,5.8l2.2,1.3l-0.2-6.3c0.4,0.1,0.9,0.1,1.3,0c0.4-0.1,0.8-0.2,1.2-0.4
		c0.4-0.2,0.8-0.5,1.1-0.8s0.6-0.7,0.9-1.1c0.3-0.5,0.5-1,0.6-1.6s0.1-1.2,0-1.7c-0.1-0.6-0.3-1.1-0.7-1.6c-0.3-0.5-0.8-0.9-1.3-1.2
		l-5.3-3.1l-7,12.2l1.9,1.1L194-105.2z M197.6-111.4l3.3,1.9c0.3,0.1,0.5,0.4,0.6,0.6c0.2,0.3,0.3,0.5,0.3,0.8c0.1,0.3,0.1,0.6,0,1
		c-0.1,0.3-0.2,0.7-0.3,1c-0.2,0.3-0.4,0.6-0.6,0.8c-0.2,0.2-0.5,0.4-0.8,0.5s-0.6,0.2-0.9,0.2c-0.3,0-0.6-0.1-0.8-0.3l-3.4-1.9
		L197.6-111.4z" />
		<path id="Tracé_664" d="M87.8-59.2c-0.2,0.6-0.2,1.2,0,1.8c0.1,0.6,0.3,1.1,0.7,1.5c0.3,0.5,0.7,0.9,1.2,1.2s1,0.6,1.6,0.7
		c0.6,0.1,1.1,0.2,1.7,0.1c0.6-0.1,1.1-0.3,1.6-0.5c0.5-0.3,1-0.6,1.3-1.1c0.4-0.5,0.7-1,0.8-1.6l1.4-5.7l-13.6-3.4L84-64l4.7,1.2
		L87.8-59.2z M89.7-58.8l0.9-3.6l5.1,1.3l-0.9,3.4c-0.1,0.3-0.2,0.5-0.4,0.8c-0.2,0.2-0.4,0.4-0.7,0.6c-0.3,0.2-0.6,0.2-0.9,0.3
		c-0.4,0-0.7,0-1.1-0.1c-0.3-0.1-0.7-0.2-1-0.4s-0.5-0.4-0.7-0.6c-0.2-0.2-0.3-0.5-0.4-0.8C89.7-58.2,89.7-58.5,89.7-58.8L89.7-58.8
		z" />
		<path id="Tracé_665" d="M83.1-46.1l12.1,0.3V-48l-14-0.3L81-38.5h2L83.1-46.1z" />
		<path id="Tracé_666" d="M99.2-26.6l1.4-2.4l-0.3-1.5L98-32.1l-0.3,1.2l1.6,1.4l-0.9,1.9L99.2-26.6z" />
		<path id="Tracé_667" d="M96.3-29.8l-14.9-2.6l0.5,2.3l4,0.6l1.1,5.3L83.6-22l0.5,2.3L96.7-28L96.3-29.8z M88.6-24.9l-0.9-4.5
		l6.4,1L88.6-24.9z" />
		<path id="Tracé_668" d="M101.4-9.5l1.8-0.8l-4.7-10.6l-1.8,0.8l1.9,4.3l-11,4.9l0.9,2l11-4.9L101.4-9.5z" />
		<path id="Tracé_669" d="M108.4,4.7c0.5-0.3,0.8-0.8,1.1-1.3c0.3-0.5,0.5-1,0.6-1.6s0.1-1.2,0-1.7c-0.1-0.6-0.4-1.2-0.8-1.6
		l-3.7-4.9L94.5,2.1l1.3,1.8l3.9-3l2,2.6l-2,5.4l1.5,2l2.2-5.9c0.4,0.2,0.7,0.4,1.2,0.5c0.4,0.1,0.9,0.1,1.3,0.1s0.9-0.1,1.3-0.3
		C107.6,5.2,108,5,108.4,4.7z M106.1,3.4c-0.3,0.1-0.6,0.2-0.9,0.2s-0.6-0.1-0.9-0.2c-0.3-0.1-0.5-0.3-0.7-0.6l-2.4-3.1l4.2-3.2
		l2.3,3c0.2,0.2,0.3,0.5,0.3,0.8c0.1,0.3,0.1,0.6,0,0.9s-0.2,0.6-0.4,0.9c-0.2,0.3-0.4,0.6-0.7,0.8C106.7,3.1,106.4,3.3,106.1,3.4
		L106.1,3.4z" />
		<rect id="Rectangle_97" x="105" y="10.4" transform="matrix(0.6694 -0.7429 0.7429 0.6694 28.4615 87.0021)" width="14" height="2.2" />
		<path id="Tracé_670" d="M114.6,22.7l8.2,5.1l1-1.7l-6.3-3.9l2.3-3.6l5.3,3.3l1-1.6l-5.3-3.3l2.1-3.4l6.1,3.9l1-1.7l-8-5
		L114.6,22.7z" />
		<path id="Tracé_671" d="M142.1,21c-0.4-0.4-1-0.8-1.5-0.9l-5.8-2l-4.6,13.3l2.1,0.7l1.6-4.6l3.1,1.1l1.3,5.6l2.4,0.8l-1.4-6.1
		c0.4,0,0.9-0.1,1.3-0.2c0.4-0.1,0.8-0.4,1.1-0.6c0.3-0.3,0.7-0.6,0.9-1c0.3-0.4,0.5-0.8,0.6-1.2c0.2-0.5,0.3-1.1,0.2-1.7
		c0-0.6-0.2-1.1-0.4-1.7C142.8,21.9,142.5,21.4,142.1,21z M141,25c-0.1,0.3-0.3,0.6-0.5,0.9s-0.4,0.5-0.7,0.7
		c-0.2,0.2-0.5,0.3-0.8,0.3s-0.6,0-0.9-0.1l-3.7-1.3l1.7-5l3.6,1.2c0.3,0.1,0.5,0.3,0.7,0.5s0.4,0.5,0.5,0.8s0.2,0.6,0.2,0.9
		C141.2,24.4,141.2,24.7,141,25L141,25z" />
		<rect id="Rectangle_98" x="150.3" y="28.3" transform="matrix(0.1266 -0.992 0.992 0.1266 101.185 177.3969)" width="2" height="5.9" />
		<path id="Tracé_672" d="M169.9,24.1c-0.4-0.4-0.9-0.7-1.4-0.9c-0.6-0.2-1.2-0.3-1.8-0.3l-5.9,0.4l1,14l2.2-0.2l-0.4-4.9l3.8-0.3
		c0.6,0,1.2-0.2,1.7-0.5s0.9-0.7,1.3-1.1c0.3-0.5,0.6-1,0.8-1.5c0.2-0.6,0.2-1.1,0.2-1.7s-0.2-1.1-0.4-1.6
		C170.7,25,170.4,24.5,169.9,24.1z M169.1,28.4c-0.1,0.3-0.2,0.6-0.4,0.9c-0.2,0.2-0.4,0.4-0.6,0.6c-0.3,0.2-0.5,0.2-0.8,0.3
		l-3.6,0.3l-0.4-5.2l3.5-0.3c0.3,0,0.6,0,0.9,0.1c0.3,0.1,0.5,0.3,0.8,0.5c0.2,0.2,0.4,0.5,0.6,0.8c0.1,0.3,0.2,0.7,0.3,1.1
		C169.2,27.7,169.1,28,169.1,28.4L169.1,28.4z" />
		<path id="Tracé_673" d="M181.3,32.5L177.8,21l-2.1,0.6l4.1,13.4l9.3-2.8l-0.6-1.9L181.3,32.5z" />
		<g id="Groupe_288" transform="translate(192.715 13.922)">
			<path id="Tracé_674" d="M1.7,0L0,1l2.2,15l2-1.2l-0.6-4L8.3,8l3.2,2.6l2-1.2L1.7,0z M3.1,9.1l-1-6.4l5,4.1L3.1,9.1z" />
		</g>
		<path id="Tracé_675" d="M217.7,7.3c-0.4-0.8-0.9-1.6-1.5-2.3c-0.6-0.6-1.4-1.2-2.2-1.5c-0.8-0.4-1.7-0.6-2.6-0.7
		c-0.9-0.1-1.8,0-2.7,0.3s-1.7,0.8-2.4,1.5c-0.7,0.6-1.2,1.4-1.5,2.3c-0.3,0.8-0.5,1.7-0.4,2.6c0,0.9,0.2,1.8,0.6,2.6
		c0.3,0.9,0.9,1.6,1.5,2.3c0.6,0.6,1.4,1.2,2.2,1.6s1.7,0.6,2.6,0.7c0.9,0.1,1.8-0.1,2.6-0.3c0.9-0.3,1.7-0.8,2.4-1.5
		c0.5-0.5,0.9-1,1.2-1.6s0.5-1.2,0.6-1.8l1.4,0.1l1.5-1.5l-2.8-0.2C218.2,9,218,8.1,217.7,7.3z M216.1,11.3
		c-0.1,0.4-0.2,0.7-0.4,1.1c-0.2,0.4-0.5,0.7-0.8,1c-0.5,0.5-1,0.8-1.6,1s-1.2,0.2-1.8,0.2c-0.6-0.1-1.2-0.3-1.8-0.6
		s-1.1-0.7-1.6-1.2c-0.4-0.5-0.8-1-1.1-1.6s-0.4-1.2-0.5-1.8s0-1.2,0.2-1.8s0.6-1.2,1.1-1.6c0.4-0.4,1-0.8,1.6-1s1.2-0.2,1.8-0.2
		c0.6,0.1,1.2,0.3,1.8,0.5c0.6,0.3,1.1,0.7,1.6,1.2c0.4,0.4,0.8,0.9,1,1.4c0.3,0.5,0.5,1.1,0.5,1.7l-1.5-0.1l-1.5,1.5L216.1,11.3z" />
		<path id="Tracé_676" d="M228.6-9c-0.7-0.6-1.4-1.2-2.2-1.6l-6.2-3.6l-1.1,1.9l6.2,3.5c0.5,0.3,1,0.7,1.5,1.1
		c0.4,0.4,0.8,0.8,1.1,1.3s0.4,1,0.4,1.6s-0.2,1.3-0.5,1.8c-0.3,0.6-0.7,1-1.3,1.4c-0.5,0.3-1,0.4-1.6,0.5c-0.6,0-1.2-0.1-1.7-0.2
		c-0.6-0.2-1.2-0.5-1.7-0.8l-6.2-3.5l-1.1,1.9l6.2,3.5c0.8,0.4,1.6,0.8,2.4,1c0.8,0.2,1.6,0.3,2.5,0.2c0.8-0.1,1.6-0.4,2.3-0.8
		c0.8-0.6,1.5-1.3,1.9-2.2c0.5-0.8,0.8-1.7,0.9-2.7c0.1-0.8-0.1-1.6-0.4-2.4C229.7-7.7,229.2-8.4,228.6-9z" />
		<rect id="Rectangle_99" x="228.1" y="-25.2" transform="matrix(0.3341 -0.9425 0.9425 0.3341 169.7726 203.8755)" width="2.2" height="14" />
		<path id="Tracé_677" d="M239.2-33.3c-0.2-0.5-0.6-1-1.1-1.3c-0.5-0.4-1.1-0.6-1.7-0.7c-0.5-0.1-1.1-0.1-1.6,0.1
		c-0.5,0.1-0.9,0.4-1.3,0.7c-0.4,0.4-0.7,0.8-1,1.3c-0.3,0.6-0.6,1.2-0.9,1.8c-0.2,0.6-0.5,1-0.6,1.4c-0.2,0.4-0.4,0.7-0.6,1
		c-0.2,0.2-0.4,0.4-0.7,0.5s-0.6,0.1-0.9,0.1c-0.6-0.1-1-0.4-1.3-0.9c-0.3-0.7-0.3-1.4-0.2-2.1c0.1-0.4,0.2-0.8,0.3-1.2
		s0.3-0.7,0.5-1s0.4-0.5,0.6-0.8c0.2-0.2,0.4-0.3,0.6-0.5l-1.6-1.3c-0.6,0.6-1.1,1.2-1.5,1.9c-0.4,0.8-0.7,1.6-0.9,2.5
		c-0.1,0.7-0.1,1.4-0.1,2c0.1,0.6,0.3,1.2,0.5,1.7c0.3,0.5,0.7,0.9,1.1,1.3c0.5,0.4,1.1,0.6,1.7,0.7c0.5,0.1,1,0.1,1.4,0
		s0.8-0.3,1.1-0.6c0.4-0.3,0.7-0.7,0.9-1.2c0.3-0.6,0.6-1.1,0.9-1.7c0.3-0.6,0.5-1.1,0.7-1.5s0.4-0.8,0.7-1.1
		c0.2-0.3,0.4-0.5,0.7-0.6s0.6-0.2,0.9-0.1c0.5,0.1,1,0.4,1.2,0.9c0.2,0.7,0.3,1.4,0.1,2.1c-0.1,0.5-0.2,1-0.4,1.5
		c-0.2,0.4-0.4,0.9-0.7,1.3c-0.2,0.4-0.5,0.7-0.8,1c-0.2,0.2-0.4,0.4-0.7,0.6l1.7,1.3c0.7-0.7,1.4-1.5,1.8-2.4c0.5-0.9,0.8-1.9,1-3
		c0.1-0.7,0.1-1.3,0.1-2C239.6-32.2,239.4-32.8,239.2-33.3z" />
		<path id="Tracé_678" d="M227.9-52.2l-2,0.1l0.7,11.6l2-0.1l-0.3-4.7l12.1-0.7l-0.1-2.2l-12.1,0.7L227.9-52.2z" />
		<path id="Tracé_679" d="M225-56.5l13.5-3.9l-2.7-9.3l-1.9,0.5L236-62l-4.1,1.2l-1.7-6l-1.8,0.5l1.7,6l-3.8,1.1l-2-7l-1.9,0.5
		L225-56.5z" />
		<path id="Tracé_681" d="M198.9-4.4c2.4-0.1,4.7-1.3,6.3-3.1c3.4-3.7,3.2-9.4-0.5-12.8c-0.1-0.1-0.2-0.2-0.3-0.3
		c-0.2-0.2-4.7-3.5-9.5-7c-2.9-2.1-5.8-4.3-8-5.9c-0.8-0.6-1.5-1.1-2-1.5c-0.8-3.1-1.9-6.1-3.4-9c-1.5-3.1-3.3-6.1-5.3-8.8
		s-4.3-5.2-6.8-7.5c-0.7-0.6-1.6-1-2.5-0.9c-0.9,0-1.8,0.4-2.4,1.1l-15,16.3c-0.6,0.7-1,1.6-0.9,2.5c0,0.9,0.4,1.8,1.1,2.5
		c7,6.5,15.7,11,25.1,13.1c0.6,0.1,1.1,0.2,1.5,0.3l5.4,6.1l5.4,6.2l5.2,6c0,0,0,0,0.1,0.1s0.1,0.2,0.2,0.2c1.7,1.5,3.9,2.4,6.1,2.4
		C198.8-4.4,198.8-4.4,198.9-4.4z M181.5-27.4l2-2.2l3.4,2.5l1.9,1.4c2.5,1.8,4.5,3.3,6.1,4.5c3.8,2.8,5.5,4,6.4,4.6v0.1
		c0.8,0.7,1.2,1.7,1.3,2.8c0,1.1-0.3,2.1-1,2.8c-0.7,0.8-1.7,1.2-2.8,1.3c-1,0-2-0.3-2.7-0.9l-1.1-1.2l-8-9.2l-5.4-6.2L181.5-27.4z
		 M180-33.3l-2.6,2.9c-0.6-0.1-1.5-0.3-2.7-0.6c-7.5-1.9-14.5-5.5-20.4-10.5l12.9-13.9c2.9,2.9,5.5,6.1,7.6,9.7
		C177.1-41.9,178.9-37.7,180-33.3z" />
		<g>
			<g>
				<defs>
					<path id="SVGID_1_pl" d="M198.7-2.9c2.9-0.1,6.4-2.2,7.6-3.6c4-4.3,3.7-11-0.5-14.9l-0.3-0.3c-0.1-0.1-0.4-0.4-9.7-7.2
					c-1.6-1.2-3.2-2.4-4.7-3.5c-1.2-0.9-2.3-1.7-3.3-2.4l-0.8-0.6c-0.3-0.2-0.5-0.4-0.8-0.6c-0.9-3.2-2-6.1-3.4-8.8
					c-1.6-3.2-3.4-6.3-5.4-9s-4.3-5.3-7-7.7c-1.1-0.9-2.3-1.4-3.6-1.3c-1.3,0-2.6,0.6-3.4,1.6l-15,16.3c-0.9,1.1-1.4,2.3-1.3,3.6
					c0,1.3,0.6,2.5,1.6,3.5c7.1,6.6,16.1,11.3,25.9,13.5c0.4,0.1,0.7,0.1,0.9,0.2l5.1,5.7l10.6,12.2l0.1,0.1
					c0.2,0.2,0.3,0.4,0.5,0.5C193.8-3.9,196.3-2.9,198.7-2.9l0.8,60.4H60.8v-200h200l1.3,200h-62.7L198.7-2.9z" />
				</defs>
				<clipPath id="SVGID_2_pl">
					<use xlink:href="#SVGID_1_pl" style="overflow:visible;" />
				</clipPath>
				<path style="clip-path:url(#SVGID_2_pl);" d="M184.2-86.7h-46.5c-1.5,0-2.7,1.2-2.7,2.7v79.7c0,1.5,1.2,2.7,2.7,2.7h46.5
				c1.5-0.2,2.7-1.4,2.7-2.8v-2.7v-45.6V-84C186.9-85.5,185.7-86.7,184.2-86.7z M181.5-7.1h-41.2v-74.3h41.2v28.7V-7.1z" />
			</g>
		</g>
	</g>
</svg>
