<svg id="carreleur" version="1.1" xmlns="http://www.w3.org/2000/svg" xmlns:xlink="http://www.w3.org/1999/xlink" x="0px" y="0px" viewBox="0 0 167.4 167.4" style="enable-background:new 0 0 167.4 167.4;" xml:space="preserve">
	<g id="Calque_1_1">
		<g transform="translate(0)">
			<path d="M83.7,167.4C37.5,167.4,0,129.9,0,83.7S37.5,0,83.7,0s83.7,37.5,83.7,83.7S129.9,167.4,83.7,167.4z M83.7,4.5
			C40,4.5,4.5,40,4.5,83.7s35.5,79.2,79.2,79.2s79.2-35.5,79.2-79.2S127.4,4.5,83.7,4.5z" />
		</g>
		<g transform="translate(127.35 46.4)">
			<path d="M18,46.5L13.5,46c0.2-1.9,0.3-3.8,0.3-5.7c0-13.7-4.9-27-13.8-37.4L3.4,0C13,11.2,18.3,25.5,18.3,40.3
			C18.3,42.4,18.2,44.4,18,46.5z" />
		</g>
		<g transform="translate(21.755 51.061)">
			<path d="M0.3,42.1C0.1,40,0,37.8,0,35.7C0,22.9,3.9,10.4,11.3,0L15,2.6C8.1,12.3,4.5,23.8,4.5,35.7c0,2,0.1,4,0.3,6L0.3,42.1z" />
		</g>
		<g transform="translate(38.576 17.061)">
			<path d="M17.1,21.9l-5.8-7.7l1.2,8.2l-0.9,0.7L4,19.7l5.8,7.7l-1.7,1.3L0,18l1.8-1.4l8.5,3.9l-1.4-9.2l1.8-1.4l8.1,10.7
			C18.8,20.6,17.1,21.9,17.1,21.9z" />
			<path d="M31.3,13.7l0.6,1.8l-8.7,3.1L18.8,6l8.5-3.1l0.6,1.8L21.4,7l1.3,3.6l5.6-2l0.6,1.7l-5.6,2l1.4,3.9
			C24.7,16.2,31.3,13.7,31.3,13.7z M23.2,2.9L21.8,3l0.3-2.3L23.9,0L23.2,2.9z" />
			<path d="M44.9,2.3l-4.4,0.4l1.1,11.5l-2.1,0.2L38.3,2.9l-4.5,0.4l-0.2-1.9l11-1C44.6,0.4,44.9,2.3,44.9,2.3z" />
			<path d="M49.9,14.3L51.4,1l2.1,0.2L52,14.5L49.9,14.3z" />
			<path d="M66.5,16.3l-0.6,1.8l-8.8-2.8l4.1-12.8l8.6,2.8L69.3,7l-6.6-2.1l-1.2,3.6l5.7,1.8L66.7,12L61,10.2l-1.3,3.9L66.5,16.3z" />
			<path d="M69.7,19.9L77,8.7l4.9,3.2c0.5,0.3,0.9,0.7,1.2,1.2s0.5,1,0.6,1.5s0.1,1.1,0,1.6c-0.1,0.5-0.3,1-0.6,1.5
			c-0.2,0.4-0.5,0.7-0.9,1c-0.3,0.3-0.7,0.5-1.1,0.7s-0.8,0.3-1.2,0.3s-0.8,0-1.2-0.1l-0.1,6l-2-1.3l0.1-5.5L74,17.2l-2.5,3.9
			L69.7,19.9z M75.1,15.6l3.1,2c0.2,0.2,0.5,0.3,0.8,0.3s0.6,0,0.8-0.1c0.3-0.1,0.6-0.3,0.8-0.4c0.3-0.2,0.5-0.5,0.6-0.7
			c0.2-0.3,0.3-0.6,0.4-0.9s0.1-0.6,0-0.9c0-0.3-0.1-0.6-0.3-0.8c-0.1-0.2-0.3-0.4-0.6-0.6l-3-1.9C77.7,11.6,75.1,15.6,75.1,15.6z" />
		</g>
		<g transform="translate(23.517 103.19)">
			<path d="M4.1,0.7C4.8,0.3,5.6,0.1,6.4,0s1.7,0,2.5,0.2s1.6,0.7,2.3,1.2c0.7,0.6,1.3,1.4,1.7,2.2c0.5,1,0.7,2.1,0.6,3.2
			c-0.1,1-0.5,1.9-1.1,2.7l-1.7-1c0.3-0.3,0.5-0.7,0.6-1.1c0.1-0.3,0.2-0.7,0.2-1.1c0-0.3,0-0.7-0.1-1s-0.2-0.6-0.3-0.9
			c-0.3-0.6-0.7-1.1-1.2-1.5C9.5,2.6,9,2.3,8.4,2.2s-1.2-0.1-1.8,0C6,2.2,5.5,2.4,4.9,2.7c-0.5,0.2-1.1,0.6-1.5,1s-0.8,0.9-1,1.5
			C2.1,5.8,2,6.3,1.9,6.9c0,0.6,0.1,1.2,0.4,1.7C2.5,9,2.6,9.3,2.9,9.5c0.2,0.3,0.5,0.5,0.8,0.7s0.6,0.4,1,0.5C5,10.9,5.4,11,5.8,11
			l-0.2,2c-0.5,0-1.1-0.1-1.6-0.3s-1-0.5-1.4-0.8c-0.5-0.3-0.9-0.7-1.2-1.2c-0.3-0.4-0.6-0.9-0.9-1.4C0.2,8.6,0,7.7,0,6.8
			C0,6,0.2,5.1,0.6,4.3C0.9,3.5,1.4,2.8,2,2.2S3.3,1,4.1,0.7z" />
			<path d="M20.2,14.9l1.2,1.4L15,29.2l-1.5-1.7l1.8-3.5l-3.4-3.9l-3.7,1.4l-1.5-1.7L20.2,14.9z M16.2,22.7l2.9-5.4l-5.8,2.2
			C13.3,19.5,16.2,22.7,16.2,22.7z" />
			<path d="M21.2,34.2l7.1-11.4l5,3.1c0.5,0.3,0.9,0.7,1.2,1.2s0.5,1,0.6,1.5s0.1,1.1,0,1.6s-0.3,1.1-0.6,1.5c-0.2,0.4-0.5,0.7-0.8,1
			s-0.7,0.5-1.1,0.7s-0.8,0.3-1.2,0.3s-0.8,0-1.2-0.1v6l-2-1.3v-5.5l-2.6-1.6l-2.5,4C23.1,35.2,21.2,34.2,21.2,34.2z M26.5,29.7
			l3.2,1.9c0.2,0.2,0.5,0.2,0.8,0.3c0.3,0,0.6,0,0.8-0.1c0.3-0.1,0.5-0.3,0.8-0.5c0.2-0.2,0.5-0.5,0.6-0.7c0.2-0.3,0.3-0.6,0.4-0.9
			s0.1-0.6,0-0.9c0-0.3-0.1-0.6-0.3-0.8c-0.1-0.2-0.3-0.4-0.6-0.6l-3.1-1.9L26.5,29.7z" />
			<path d="M37.7,42.9L41.4,30l5.6,1.6c0.6,0.2,1.1,0.4,1.5,0.8s0.8,0.8,1,1.3s0.4,1,0.4,1.6c0.1,0.5,0,1.1-0.1,1.6
			c-0.2,0.8-0.7,1.6-1.4,2.2c-0.3,0.3-0.7,0.5-1.1,0.7C47,39.9,46.6,40,46.2,40l1.7,5.8l-2.3-0.7L44,39.8L41,39l-1.3,4.5L37.7,42.9z
			 M41.5,37.2l3.6,1c0.3,0.1,0.6,0.1,0.8,0c0.3-0.1,0.5-0.2,0.8-0.4c0.2-0.2,0.5-0.4,0.6-0.7c0.2-0.3,0.3-0.6,0.4-0.9s0.1-0.6,0.1-1
			c0-0.3-0.1-0.6-0.2-0.9s-0.3-0.5-0.5-0.7s-0.5-0.3-0.7-0.4l-3.5-1C42.9,32.2,41.5,37.2,41.5,37.2z" />
			<path d="M65.1,44.8v1.9h-9.2V33.3h9v1.9H58V39h6v1.8h-6v4.1L65.1,44.8z" />
			<path d="M73.2,45.5l-3.4-13l2-0.5l2.9,11.2l7-1.8l0.5,1.8L73.2,45.5z" />
			<path d="M96.3,33.9l0.9,1.6l-8,4.5l-6.6-11.7l7.9-4.5l0.9,1.6l-6,3.4l1.9,3.3l5.2-3l0.9,1.5l-5.2,3l2,3.6
			C90.2,37.2,96.3,33.9,96.3,33.9z" />
			<path d="M106.6,25.1c0.4-0.4,0.8-1,0.9-1.6c0.1-0.5,0.1-1.1,0-1.6s-0.4-1-0.7-1.5s-0.7-0.9-1.2-1.4l-4.9-4.7l1.5-1.5l4.9,4.7
			c0.6,0.6,1.2,1.3,1.7,2c0.4,0.7,0.7,1.4,0.8,2.2s0.1,1.6-0.2,2.3c-0.3,0.9-0.8,1.6-1.5,2.3c-0.6,0.7-1.4,1.2-2.3,1.6
			c-0.7,0.3-1.5,0.4-2.3,0.3s-1.5-0.4-2.2-0.8s-1.4-0.9-2-1.5l-4.9-4.7l1.5-1.5l4.9,4.7c0.4,0.4,0.9,0.8,1.4,1.1s1,0.5,1.5,0.6
			s1.1,0.1,1.6-0.1C105.7,25.9,106.2,25.5,106.6,25.1z" />
			<path d="M117.1,14.5l-12-6l2.6-5.2c0.3-0.5,0.6-1,1.1-1.3c0.4-0.3,0.9-0.6,1.5-0.7c0.5-0.1,1.1-0.2,1.6-0.1c0.5,0,1.1,0.2,1.6,0.4
			c0.4,0.2,0.8,0.5,1.1,0.8s0.6,0.6,0.8,1s0.4,0.7,0.4,1.2c0.1,0.4,0.1,0.8,0,1.2l6-0.5l-1.1,2.1l-5.5,0.5l-1.4,2.8l4.2,2.1
			C118,12.8,117.1,14.5,117.1,14.5z M112.3,9.7l1.7-3.3c0.1-0.3,0.2-0.5,0.2-0.8S114.1,5,114,4.8c-0.1-0.3-0.3-0.5-0.5-0.7
			s-0.5-0.4-0.8-0.6s-0.6-0.2-0.9-0.3c-0.3,0-0.6,0-0.9,0.1s-0.6,0.2-0.8,0.4s-0.4,0.4-0.5,0.6L108,7.5L112.3,9.7z" />
		</g>
		<g transform="translate(83.715 83.715)">
			<path style="stroke:#161615;stroke-width:3;stroke-miterlimit:10;" d="M0,0" />
		</g>
		<g transform="translate(39.549 84.69)">
			<path style="stroke:#161615;stroke-width:3;stroke-miterlimit:10;" d="M0,0" />
		</g>
		<g>
			<g>
				<defs>
					<polygon id="SVGID_1_cc" points="83.5,54.7 63.9,66.8 83.5,80.2 103.1,67.4 83.5,54.7 83.7,0 167.4,0 167.4,167.4 0,167.4 0,0
					83.7,0 				" />
				</defs>
				<clipPath id="SVGID_2_cc">
					<use xlink:href="#SVGID_1_cc" style="overflow:visible;" />
				</clipPath>
				<path style="clip-path:url(#SVGID_2_cc);" d="M41.2,85.6c-0.3,0.2-0.5,0.4-0.7,0.7c-0.6,0.9-0.3,2.2,0.7,2.7l41.5,25.2c0.3,0.2,0.7,0.3,1,0.3
				c0.4,0,0.7-0.1,1-0.3L126.2,89c0.3-0.2,0.5-0.4,0.7-0.7c0.6-0.9,0.3-2.2-0.7-2.7L84.8,61.1c-0.7-0.4-1.5-0.4-2.1,0
				C82.7,61.1,41.2,85.6,41.2,85.6z M100,74.6L83.7,85L67.4,74.6L83.7,65L100,74.6z M46.1,87.3l17.5-10.5L80,87.3L63.4,97.9
				L46.1,87.3z M83.7,110.2l-16.5-10l16.5-10.5l16.5,10.5L83.7,110.2z M104,97.9L87.4,87.3l16.4-10.5l17.5,10.5L104,97.9z" />
			</g>
		</g>
		<path id="carr" d="M104.6,69.2l0.6-0.6c0.6-0.9,0.3-2.2-0.6-2.8L84.8,53.2c-0.7-0.4-1.5-0.4-2.1,0L62.8,65.8c-0.2,0.2-0.5,0.4-0.6,0.6
		c-0.6,0.9-0.3,2.2,0.6,2.8l19.8,12.6c0.7,0.4,1.5,0.4,2.1,0L104.6,69.2z M67.6,67.5l16.1-10.3l16.1,10.3L83.7,77.8L67.6,67.5z" />
	</g>
</svg>
