
<!-- Generator: Adobe Illustrator 24.3.0, SVG Export Plug-In . SVG Version: 6.00 Build 0)  -->
<svg version="1.1" id="charpentier" xmlns="http://www.w3.org/2000/svg" xmlns:xlink="http://www.w3.org/1999/xlink" x="0px" y="0px"
	 viewBox="0 0 111.6 111.6" style="enable-background:new 0 0 111.6 111.6;" xml:space="preserve">
<style type="text/css">
	.st0{fill:#161615;}
	.st1{fill:#040506;}
</style>
<g>
	<path class="st0" d="M55.8,0C25,0,0,25,0,55.8c0,30.8,25,55.7,55.8,55.8c30.8,0,55.7-25,55.8-55.8C111.5,25,86.6,0,55.8,0z
		 M55.8,108.6C26.6,108.5,3,84.9,3,55.8C3,26.6,26.6,3,55.8,3c29.1,0,52.8,23.6,52.8,52.8C108.5,84.9,84.9,108.5,55.8,108.6z"/>
	<path class="st0" d="M93.8,53c-0.4-7.3-2.9-14.3-7.1-20.2l-2.5,1.7c3.9,5.5,6.1,12,6.5,18.7L93.8,53z"/>
	<path class="st0" d="M26.3,34.4l-2.5-1.7c-4.2,6.2-6.6,13.5-6.7,20.9l3,0.1C20.3,46.8,22.4,40.1,26.3,34.4z"/>
	<polygon class="st0" points="30.8,25 35.6,27.3 36.2,26.9 35.6,21.6 39.1,26.7 40.2,25.9 35.4,18.9 34.2,19.7 34.8,25.6 29.6,23 
		28.4,23.8 33.2,30.8 34.3,30 	"/>
	<polygon class="st0" points="48.7,23 48.4,21.8 44.1,23.2 43.3,20.7 46.9,19.6 46.6,18.5 43,19.6 42.2,17.3 46.4,16 46.1,14.9 
		40.6,16.6 43.2,24.7 	"/>
	<polygon class="st0" points="44,12.9 42.8,13.3 42.6,14.8 43.5,14.8 	"/>
	<polygon class="st0" points="53.1,15.1 53.5,22.4 54.8,22.4 54.4,15 57.3,14.9 57.2,13.7 50.2,14.1 50.2,15.3 	"/>
	<polygon class="st0" points="62.8,14.4 61.5,14.2 60.2,22.6 61.5,22.8 	"/>
	<polygon class="st0" points="70.7,24.4 66.5,22.8 67.4,20.4 70.9,21.7 71.3,20.6 67.7,19.3 68.6,17 72.7,18.6 73.1,17.4 67.7,15.5 
		64.8,23.5 70.3,25.5 	"/>
	<path class="st0" d="M73.7,27.5l1.7-2.4l1.6,1.1l-0.2,3.5l1.2,0.9l0.2-3.8c0.2,0.1,0.5,0.1,0.8,0.1c0.3,0,0.5-0.1,0.8-0.2
		c0.3-0.1,0.5-0.2,0.7-0.4c0.2-0.2,0.4-0.4,0.6-0.6c0.2-0.3,0.3-0.6,0.4-0.9c0.1-0.3,0.1-0.7,0.1-1c0-0.4-0.1-0.7-0.3-1
		c-0.2-0.3-0.4-0.6-0.7-0.8l-3-2.1l-4.9,7L73.7,27.5z M78,21.5l1.9,1.3c0.1,0.1,0.3,0.2,0.3,0.4c0.1,0.2,0.1,0.3,0.2,0.5
		c0,0.2,0,0.4,0,0.6c-0.1,0.2-0.1,0.4-0.3,0.6c-0.1,0.2-0.3,0.3-0.4,0.4c-0.2,0.1-0.3,0.2-0.5,0.3c-0.2,0.1-0.4,0.1-0.5,0.1
		c-0.2,0-0.4-0.1-0.5-0.2l-1.9-1.4L78,21.5z"/>
	<path class="st0" d="M17,66.2c-0.2-0.1-0.4-0.3-0.5-0.5c-0.2-0.2-0.3-0.4-0.4-0.6c-0.1-0.2-0.2-0.4-0.2-0.6c-0.1-0.4-0.1-0.8,0-1.1
		c0.1-0.4,0.3-0.7,0.5-1c0.2-0.3,0.5-0.6,0.9-0.8c0.3-0.2,0.7-0.4,1.1-0.4c0.4-0.1,0.7-0.1,1.1-0.1c0.4,0,0.7,0.1,1.1,0.3
		c0.3,0.2,0.6,0.4,0.9,0.7c0.3,0.3,0.4,0.7,0.5,1.1c0,0.2,0.1,0.4,0.1,0.6c0,0.2,0,0.4-0.1,0.7c-0.1,0.2-0.2,0.4-0.3,0.6
		c-0.2,0.2-0.3,0.4-0.5,0.6l0.9,0.9c0.5-0.4,0.9-0.9,1.1-1.5c0.2-0.7,0.3-1.4,0.1-2.1c-0.1-0.6-0.4-1.1-0.7-1.6
		c-0.3-0.4-0.7-0.8-1.2-1.1c-0.5-0.3-1-0.4-1.5-0.5c-0.5-0.1-1-0.1-1.6,0c-0.5,0.1-1.1,0.3-1.5,0.6c-0.5,0.3-0.9,0.7-1.2,1.1
		c-0.3,0.4-0.6,0.9-0.7,1.5c-0.1,0.6-0.2,1.1,0,1.7c0.1,0.3,0.2,0.7,0.3,1c0.2,0.3,0.4,0.6,0.6,0.9c0.2,0.3,0.5,0.5,0.8,0.7
		c0.3,0.2,0.6,0.3,0.9,0.4l0.4-1.2C17.5,66.5,17.2,66.4,17,66.2z"/>
	<polygon class="st0" points="27.6,74 24.5,75.7 22.4,71.9 25.5,70.2 24.9,69 17.4,73.2 18.1,74.3 21.3,72.5 23.4,76.3 20.2,78.1 
		20.8,79.3 28.3,75.1 	"/>
	<path class="st0" d="M23.9,83.4l1,1l2.2-1.1l2.4,2.3l-0.9,2.3l1,1l3.4-8.5l-0.9-0.8L23.9,83.4z M30.1,84.7l-2-1.9l3.5-1.7
		L30.1,84.7z"/>
	<path class="st0" d="M41.9,86.5c-0.2-0.3-0.5-0.5-0.8-0.7l-3.3-1.7l-3.9,7.6l1.2,0.6l1.4-2.6l1.7,0.9l0.3,3.5l1.4,0.7L39.5,91
		c0.3,0,0.5,0,0.8,0c0.3,0,0.5-0.1,0.7-0.3c0.2-0.1,0.4-0.3,0.6-0.5c0.2-0.2,0.4-0.4,0.5-0.7c0.2-0.3,0.3-0.6,0.3-1
		c0-0.3,0-0.7-0.1-1C42.3,87.1,42.1,86.8,41.9,86.5z M40.9,88.9c-0.1,0.2-0.2,0.4-0.4,0.5c-0.1,0.1-0.3,0.2-0.5,0.3
		c-0.2,0.1-0.3,0.1-0.5,0.1c-0.2,0-0.4,0-0.5-0.1L37,88.6l1.5-2.8l2,1c0.2,0.1,0.3,0.2,0.4,0.3c0.1,0.2,0.2,0.3,0.2,0.5
		c0,0.2,0.1,0.4,0,0.6C41.1,88.5,41,88.7,40.9,88.9z"/>
	<path class="st0" d="M51.6,90c-0.2-0.3-0.4-0.6-0.7-0.8c-0.3-0.2-0.6-0.4-1-0.4L46.4,88l-1.7,8.4l1.3,0.3l0.6-2.9l2.3,0.5
		c0.4,0.1,0.7,0.1,1.1,0c0.3-0.1,0.6-0.2,0.9-0.5c0.3-0.2,0.5-0.5,0.7-0.8c0.2-0.3,0.3-0.6,0.4-1c0.1-0.3,0.1-0.7,0-1
		C51.9,90.6,51.8,90.3,51.6,90z M50.6,91.7c0,0.2-0.1,0.4-0.2,0.6c-0.1,0.2-0.2,0.3-0.4,0.4c-0.1,0.1-0.3,0.2-0.5,0.2
		c-0.2,0-0.4,0.1-0.5,0l-2.2-0.4l0.6-3.1l2.1,0.4c0.2,0,0.3,0.1,0.5,0.2c0.1,0.1,0.3,0.2,0.4,0.4c0.1,0.2,0.2,0.4,0.2,0.5
		C50.7,91.3,50.7,91.5,50.6,91.7z"/>
	<polygon class="st0" points="57.2,96.6 57.1,94 60.8,93.7 60.8,92.6 57,92.8 56.8,90.4 61.2,90.1 61.1,88.9 55.4,89.3 56,97.8 
		61.8,97.4 61.7,96.3 	"/>
	<polygon class="st0" points="69.7,86.3 71.9,92 65.1,88 64.2,88.4 67.2,96.3 68.4,95.9 66.3,90.3 72.9,94.2 74,93.8 71,85.8 	"/>
	<polygon class="st0" points="79.6,81.1 78.9,80.2 73.3,84.5 74.1,85.4 76.3,83.7 80.8,89.5 81.9,88.7 77.4,82.9 	"/>
	<rect x="83.7" y="76.1" transform="matrix(0.6505 -0.7595 0.7595 0.6505 -31.5195 92.19)" class="st0" width="1.3" height="8.5"/>
	<polygon class="st0" points="90.9,76.6 88.6,75.4 90.4,72 89.4,71.5 87.6,74.8 85.5,73.7 87.6,69.8 86.6,69.2 83.8,74.3 91.2,78.4 
		94.1,73.3 93,72.7 	"/>
	<path class="st0" d="M97.2,63.3l0.3-1.5L93.9,63c0-0.3-0.1-0.5-0.2-0.7c-0.1-0.2-0.3-0.5-0.4-0.6c-0.2-0.2-0.4-0.4-0.6-0.5
		c-0.2-0.1-0.5-0.2-0.8-0.3c-0.3-0.1-0.7-0.1-1,0c-0.3,0.1-0.7,0.2-1,0.3c-0.3,0.2-0.6,0.4-0.8,0.7c-0.2,0.3-0.4,0.6-0.5,1l-0.8,3.6
		l8.3,1.9l0.3-1.3l-2.9-0.7l0.5-1.9L97.2,63.3z M92.8,63.7L92.2,66l-3.1-0.7l0.5-2.2c0-0.2,0.1-0.3,0.2-0.5c0.1-0.1,0.3-0.3,0.4-0.3
		c0.2-0.1,0.4-0.2,0.6-0.2c0.2,0,0.4,0,0.6,0c0.2,0,0.4,0.1,0.6,0.2c0.2,0.1,0.3,0.2,0.4,0.4c0.1,0.1,0.2,0.3,0.2,0.5
		C92.8,63.4,92.8,63.6,92.8,63.7z"/>
	<polyline class="st1 animated line-0 left" points="36,57.8 36,57.8 36,57.8 43.9,57.8 43.9,55.4 36,55.4 	"/>
	<polygon class="st1 animated line-1 right" points="75.5,55.4 67.6,55.4 67.6,55.4 67.5,55.4 67.5,57.8 75.5,57.8 75.5,57.8 75.5,57.8 	"/>
	<polygon class="st1 animated line-2 right" points="75.6,58.5 75.6,70.5 77.9,70.5 77.9,46.9 75.6,48 75.6,58.5 	"/>
	<polygon class="st1 animated line-3 left" points="36,70.5 36,47.9 33.7,46.8 33.6,46.8 33.5,70.5 	"/>
	<polygon class="st1 animated line-4 left up" points="43.9,54.9 43.9,60.9 43.9,70.4 43.9,70.5 46.3,70.5 46.3,47.2 46.4,47.2 46.4,45 46.4,39.6 46.4,36.4 
		45.1,37.4 43.9,38.4 43.9,45.1 	"/>
	<polygon class="st1 animated line-5 right up" points="65.2,45 65.2,45 65.2,47.2 65.2,52.3 65.2,59.9 65.2,70.5 67.6,70.5 67.6,70.4 67.6,70.4 67.6,60.9 
		67.6,60.9 67.6,58.5 67.6,58.5 67.6,55.9 67.6,46.1 67.6,41.5 67.6,41.5 67.6,38.4 66.5,37.5 65.2,36.4 65.2,39.6 	"/>
	<polygon class="st1 animated line-6 none" points="65.2,45 57,45 56.9,45 56.9,45 54.6,45 54.6,45 46.4,45 46.4,47.2 65.2,47.2 	"/>
	<polygon class="st1 animated line-7 up" points="54.6,45 54.6,45 56.9,45 57,29.8 55.8,28.8 55.8,28.8 54.6,29.8 54.6,32.9 	"/>
	<path class="st1 animated line-8 right" d="M67.5,38.4v3.1l0,0v0l8,6.5l2.4-1.1v0c0,0,0,0,0-0.1L67.5,38.4z"/>
	<polyline class="st1 animated line-9 left" points="36,48 43.9,41.7 43.9,41.7 43.9,38.5 33.7,46.8 36,47.9 	"/>
	<polygon class="st1 animated line-10 right" points="65.2,39.6 65.2,36.4 57,29.8 57,33 	"/>
	<polygon class="st1 animated line-11 left" points="54.6,32.9 54.6,29.8 46.4,36.4 46.4,39.6 	"/>
</g>
<rect x="33.5" y="70.5" class="st1" width="44.4" height="2.5"/>
</svg>
