<?xml version="1.0" encoding="UTF-8"?>
<svg xmlns="http://www.w3.org/2000/svg" viewBox="0 0 67.29 67.29" id="gestionnaire">
  <defs>
    <style>.cls-1{fill:none;stroke-miterlimit:10;}</style>
  </defs>
  <g id="a"/>
  <g id="b">
    <g id="c">
      <g>
        <path class="d" d="M32.64,65.28C14.64,65.28,0,50.64,0,32.64S14.64,0,32.64,0s32.64,14.64,32.64,32.64-14.64,32.64-32.64,32.64Zm0-63.53C15.61,1.76,1.76,15.61,1.76,32.64s13.86,30.89,30.89,30.89,30.89-13.86,30.89-30.89S49.67,1.76,32.64,1.76Z"/>
        <g>
          <path class="d" d="M15.22,23.88c-.12,.24-.29,.45-.49,.61-.21,.16-.44,.28-.7,.35-.26,.07-.52,.09-.79,.07-.27-.02-.53-.1-.79-.23-.25-.13-.47-.29-.65-.49s-.32-.42-.41-.67c-.1-.25-.14-.5-.13-.76,0-.26,.08-.52,.21-.78,.18-.35,.4-.61,.67-.78,.27-.17,.56-.25,.86-.25l.1,.61c-.25,0-.47,.06-.66,.19-.19,.13-.34,.3-.45,.51-.09,.17-.13,.35-.13,.53,0,.18,.04,.35,.12,.52,.08,.17,.18,.32,.32,.45,.14,.13,.29,.24,.47,.33,.19,.09,.38,.15,.57,.18,.19,.02,.38,.01,.56-.04,.18-.05,.34-.12,.48-.24,.14-.11,.26-.25,.34-.42,.1-.2,.15-.42,.13-.66-.01-.23-.08-.48-.2-.75l.6,.3c.2,.51,.2,.98-.02,1.42Zm-.93-1.82l-.39,.78-.43-.22,.64-1.27,1.88,.94-.25,.49-1.44-.72Z"/>
          <path class="d" d="M17.96,18.81l.45,.36-1.79,2.22-3.24-2.6,1.75-2.18,.45,.36-1.34,1.67,.92,.74,1.16-1.45,.42,.34-1.16,1.45,.99,.8,1.37-1.71Z"/>
          <path class="d" d="M19.05,14.41c-.06,0-.13,0-.22,0-.09,0-.19,.03-.29,.06-.11,.03-.21,.07-.32,.13-.11,.05-.21,.12-.31,.2-.21,.17-.33,.34-.37,.5s0,.31,.11,.45c.08,.1,.18,.16,.28,.17,.11,.01,.23-.01,.38-.07s.33-.14,.55-.24c.26-.13,.5-.22,.71-.28,.22-.06,.42-.07,.6-.02,.18,.05,.35,.17,.51,.36,.13,.16,.22,.33,.26,.49,.04,.17,.03,.33-.02,.49-.05,.16-.13,.32-.24,.47-.11,.15-.25,.29-.41,.43-.16,.13-.33,.25-.52,.34-.19,.1-.38,.17-.57,.23-.2,.05-.39,.08-.59,.09l-.13-.62c.07,0,.16,0,.28-.01,.11-.01,.23-.04,.37-.08,.13-.04,.27-.09,.41-.16,.14-.07,.27-.15,.39-.25,.2-.17,.33-.33,.38-.49s.02-.3-.09-.44c-.09-.11-.19-.17-.32-.17-.12,0-.27,.02-.44,.09-.17,.06-.37,.15-.58,.26-.26,.12-.49,.2-.68,.25-.2,.05-.37,.05-.53,0-.16-.05-.31-.15-.44-.32-.17-.21-.27-.43-.29-.66-.02-.23,.03-.45,.15-.67,.11-.22,.28-.42,.5-.6,.14-.12,.29-.22,.45-.29,.16-.07,.31-.13,.47-.17s.31-.06,.46-.07l.11,.61Z"/>
          <path class="d" d="M23.33,11.43l-1.22,.65,1.67,3.16-.58,.31-1.67-3.16-1.23,.65-.27-.51,3.03-1.6,.27,.51Z"/>
          <path class="d" d="M25.95,14.29l-1.36-3.93,.62-.21,1.36,3.93-.62,.21Z"/>
          <path class="d" d="M29.55,13.39c-.3,.05-.57,.03-.83-.04s-.49-.2-.69-.37c-.21-.17-.38-.37-.51-.61-.13-.23-.22-.48-.27-.74-.04-.27-.04-.54,.02-.81,.06-.27,.16-.51,.31-.73,.15-.22,.33-.41,.55-.56,.22-.15,.47-.25,.75-.3,.29-.05,.57-.03,.83,.05,.26,.08,.49,.21,.69,.38,.2,.17,.37,.37,.51,.61,.13,.23,.22,.48,.26,.73,.04,.27,.04,.54-.02,.81-.06,.26-.16,.51-.31,.73s-.33,.41-.55,.56c-.22,.15-.47,.25-.76,.29Zm-1.64-1.87c.03,.19,.09,.37,.18,.55s.2,.32,.34,.44,.29,.21,.47,.27,.36,.07,.56,.03c.21-.03,.39-.11,.53-.22,.15-.11,.27-.25,.35-.41,.09-.16,.14-.34,.17-.53,.03-.19,.03-.37,0-.55-.03-.19-.09-.37-.18-.54-.09-.17-.2-.32-.34-.44-.14-.12-.29-.21-.47-.27-.17-.05-.36-.07-.55-.04-.21,.03-.39,.11-.53,.22-.15,.11-.27,.25-.35,.41-.09,.16-.15,.33-.18,.52-.03,.19-.03,.37,0,.56Z"/>
          <path class="d" d="M33.43,10.16l-.25,2.93-.65-.06,.35-4.14,.54,.05,2.09,3.19,.25-2.99,.66,.06-.35,4.13-.57-.05-2.07-3.12Z"/>
          <path class="d" d="M38.89,11.02l-.96,2.78-.62-.21,1.35-3.93,.51,.18,1.25,3.6,.98-2.83,.63,.22-1.35,3.92-.54-.19-1.24-3.53Z"/>
          <path class="d" d="M45.06,12.47l.52,.33-.86,4.37-.58-.37,.26-1.17-1.4-.89-.95,.74-.59-.37,3.6-2.64Zm-.54,2.66l.42-1.89-1.53,1.19,1.11,.7Z"/>
          <path class="d" d="M45.4,17.84l2.76-3.1,.49,.44-2.76,3.1-.49-.44Z"/>
          <path class="d" d="M46.89,19.2l3.23-2.62,1.14,1.4c.12,.15,.2,.3,.23,.47,.04,.17,.04,.34,.02,.51-.03,.17-.08,.33-.17,.48-.08,.15-.19,.28-.32,.38-.14,.12-.3,.2-.47,.25-.17,.05-.34,.07-.51,.05-.17-.02-.33-.08-.48-.17l-.61,1.75-.46-.57,.55-1.61-.61-.75-1.12,.91-.41-.51Zm1.99-.77l.72,.89c.08,.09,.17,.15,.28,.18s.23,.03,.36,0c.13-.03,.25-.09,.35-.18,.11-.09,.19-.2,.24-.32s.07-.24,.06-.36c0-.12-.05-.23-.12-.32l-.7-.86-1.2,.98Z"/>
          <path class="d" d="M51.25,24.85l-.52,.26-1.3-2.54,3.7-1.89,1.27,2.49-.52,.26-.98-1.91-1.05,.54,.84,1.65-.48,.25-.84-1.65-1.13,.58,1,1.95Z"/>
        </g>
        <g>
          <path class="d" d="M11.05,42.24l3.67-1.94,.69,1.3c.21,.4,.3,.77,.28,1.12s-.14,.67-.35,.95c-.21,.28-.48,.51-.82,.69-.37,.2-.74,.29-1.09,.29-.35,0-.68-.1-.97-.28-.29-.19-.54-.46-.73-.83l-.69-1.3Zm3.17,1.53c.26-.14,.46-.3,.61-.5,.15-.2,.23-.42,.25-.65,.02-.24-.04-.48-.18-.74l-.38-.72-2.65,1.4,.38,.72c.14,.26,.31,.45,.52,.56s.44,.17,.69,.15c.25-.01,.5-.09,.75-.22Z"/>
          <path class="d" d="M15.78,44.68l.63-.31-.12-.16,.59-.43,.37,.51-.59,.43-.66,.25-.21-.29Z"/>
          <path class="d" d="M17.42,49.94l-.41,.41-2.01-2.02,2.95-2.93,1.97,1.98-.41,.41-1.51-1.52-.84,.83,1.31,1.32-.39,.38-1.31-1.32-.9,.9,1.55,1.56Z"/>
          <path class="d" d="M20.77,49.56l-1.54,2.5-.56-.34,2.18-3.54,.46,.28,.43,3.79,1.57-2.55,.56,.35-2.18,3.53-.49-.3-.43-3.72Z"/>
          <path class="d" d="M27.89,52.14l-1.31-.44-1.14,3.39-.63-.21,1.14-3.39-1.31-.44,.19-.55,3.25,1.1-.19,.55Z"/>
          <path class="d" d="M28.66,55.92l.44-4.13,1.8,.19c.19,.02,.35,.08,.5,.17,.15,.09,.27,.21,.37,.35,.1,.14,.17,.29,.22,.46,.05,.17,.06,.33,.04,.5-.02,.18-.07,.35-.16,.51-.08,.16-.19,.29-.33,.4-.13,.11-.29,.18-.46,.22l.8,1.68-.73-.08-.74-1.53-.96-.1-.15,1.44-.65-.07Zm.87-1.94l1.14,.12c.12,.01,.23-.01,.33-.07s.18-.15,.25-.26c.07-.11,.11-.24,.12-.38,.02-.14,0-.28-.05-.4-.05-.12-.12-.22-.21-.3-.09-.08-.2-.13-.31-.14l-1.11-.12-.17,1.54Z"/>
          <path class="d" d="M36.69,55.32l.06,.58-2.83,.31-.45-4.13,2.78-.31,.06,.58-2.13,.23,.13,1.17,1.84-.2,.06,.54-1.84,.2,.14,1.26,2.18-.24Z"/>
          <path class="d" d="M38.74,55.45l-1.3-3.95,1.66-.55c.18-.06,.35-.08,.53-.05,.17,.03,.33,.08,.49,.17,.15,.09,.28,.19,.39,.33,.11,.13,.19,.28,.24,.44,.07,.22,.09,.44,.06,.67-.03,.23-.12,.44-.26,.62-.14,.18-.33,.31-.56,.39l-1.07,.35,.45,1.37-.62,.2Zm-.01-2.13l1.03-.34c.12-.04,.21-.11,.28-.2,.07-.09,.11-.2,.12-.33s0-.26-.05-.4c-.05-.14-.12-.26-.21-.35-.1-.09-.2-.15-.32-.18-.11-.03-.23-.03-.34,.01l-1,.33,.49,1.47Z"/>
          <path class="d" d="M43.46,53.64l-2.13-3.57,1.55-.93c.16-.1,.33-.15,.5-.16,.17-.01,.34,0,.51,.06,.16,.05,.32,.13,.45,.23,.14,.11,.25,.23,.33,.37,.09,.16,.15,.33,.18,.5,.03,.18,.02,.35-.02,.52s-.12,.32-.23,.45l1.65,.86-.63,.38-1.51-.78-.83,.49,.74,1.24-.56,.34Zm-.47-2.07l.99-.59c.1-.06,.18-.15,.22-.26,.04-.11,.06-.23,.05-.36-.01-.13-.06-.26-.13-.38-.07-.12-.17-.22-.28-.29s-.23-.11-.35-.11c-.12,0-.23,.02-.33,.08l-.95,.57,.79,1.33Z"/>
          <path class="d" d="M47.66,50.82l-2.69-3.17,.5-.42,2.69,3.17-.5,.42Z"/>
          <path class="d" d="M48.89,45.01c-.06,0-.13,.02-.21,.04-.09,.03-.18,.06-.28,.11-.1,.05-.2,.11-.29,.18-.1,.07-.19,.15-.27,.25-.18,.21-.27,.4-.28,.56,0,.17,.05,.31,.19,.42,.1,.09,.2,.13,.31,.12,.11,0,.23-.05,.36-.14,.14-.08,.3-.19,.5-.33,.23-.17,.45-.31,.65-.4,.2-.1,.4-.14,.59-.12,.19,.01,.37,.1,.56,.26,.16,.14,.27,.28,.34,.44s.09,.32,.07,.49c-.02,.17-.07,.34-.16,.51-.08,.17-.2,.33-.33,.49-.13,.16-.28,.3-.45,.43-.17,.13-.34,.24-.52,.32-.18,.09-.37,.15-.57,.19l-.23-.59c.07,0,.16-.03,.27-.06,.11-.03,.22-.08,.35-.14,.12-.06,.25-.14,.37-.23s.24-.2,.34-.31c.17-.2,.26-.38,.29-.55,.02-.16-.03-.3-.16-.41-.11-.09-.22-.13-.34-.12-.12,.01-.26,.07-.42,.16-.16,.09-.33,.21-.53,.35-.23,.16-.44,.28-.63,.36s-.36,.11-.53,.09c-.16-.02-.33-.1-.49-.24-.21-.18-.34-.38-.4-.6-.06-.22-.05-.45,.03-.69,.08-.24,.21-.46,.39-.68,.12-.14,.25-.26,.39-.37,.14-.1,.29-.18,.43-.25,.15-.07,.3-.12,.44-.15l.22,.58Z"/>
          <path class="d" d="M53.57,42.28l.51,.28-1.37,2.5-3.65-1.99,1.34-2.45,.51,.28-1.03,1.88,1.04,.57,.89-1.63,.48,.26-.89,1.63,1.11,.61,1.05-1.93Z"/>
        </g>
      </g>
      <path class="d" d="M30.31,40.29h-9.97v-14.67c0-.85,.69-1.55,1.54-1.55h4.39c.43,0,.84,.18,1.13,.49l.09,.12,.84,1.44h13.66v2.77h-1.32v-1.45h-13.1l-1.17-2.01s-.08-.04-.13-.04h-4.39c-.13,0-.23,.1-.23,.23v13.35h8.66v1.32Z"/>
      <path class="cls-1" id="folder" d="M22.71,22.45V21.16a.47.47,0,0,1,.06-.26,1,1,0,0,1,.62-.39h4.44s.39-.1.78.48.94,1.6.94,1.6H42.48a.84.84,0,0,1,.91.81c0,.85,0,11.65,0,11.65"/>
      <path class="d" d="M54.28,36.55l-1.73-.28c.18-1.08,.27-2.2,.27-3.3,0-.86-.05-1.73-.16-2.59l1.74-.22c.12,.92,.18,1.87,.18,2.81,0,1.2-.1,2.41-.29,3.59Z"/>
      <path class="d" d="M10.75,36.54c-.19-1.17-.29-2.38-.29-3.58,0-1.05,.08-2.12,.22-3.15l1.74,.25c-.14,.96-.21,1.93-.21,2.91,0,1.11,.09,2.21,.27,3.29l-1.73,.28Z"/>
      <path class="d" d="M42.02,37.3c-.17-.16-.36-.3-.56-.44,.47-.7,.74-1.53,.74-2.43,0-2.42-1.97-4.38-4.38-4.38s-4.38,1.97-4.38,4.38c0,.95,.31,1.83,.82,2.55-1.35,1.01-2.29,2.64-2.29,4.87v1.91h11.91v-1.93c0-1.86-.65-3.43-1.87-4.53Zm-4.2-5.93c1.69,0,3.07,1.37,3.07,3.07,0,.67-.23,1.29-.6,1.8-.31,.43-.73,.78-1.22,1-.38,.17-.8,.27-1.24,.27-.41,0-.8-.08-1.16-.23-.49-.2-.91-.54-1.24-.95-.41-.52-.66-1.17-.66-1.88,0-1.69,1.37-3.07,3.07-3.07Zm4.75,11.08h-9.28v-.59c0-1.88,.8-3.17,1.9-3.92,.73,.55,1.64,.88,2.63,.88,1.04,0,1.99-.36,2.74-.97,.2,.13,.39,.27,.57,.43,.94,.85,1.43,2.08,1.43,3.56v.61Z"/>
    </g>
  </g>
</svg>