<svg xmlns="http://www.w3.org/2000/svg" width="111.562" height="111.562" viewBox="0 0 111.562 111.562">
  <g id="Groupe_410" data-name="Groupe 410" transform="translate(-585.396 -436.04)">
    <circle id="Ellipse_14" data-name="Ellipse 14" cx="54.281" cy="54.281" r="54.281" transform="translate(586.896 437.54)" fill="none" stroke="#161615" stroke-miterlimit="10" stroke-width="3"/>
    <g id="Groupe_406" data-name="Groupe 406">
      <g id="Groupe_405" data-name="Groupe 405">
        <path id="Tracé_757" data-name="Tracé 757" d="M609.343,473.259l-5.524-2.662,3.083,4.3-.322.67-5.287.277,5.523,2.662-.584,1.21-7.674-3.7.626-1.3,5.916-.278-3.468-4.8.625-1.3,7.675,3.7Z" fill="#161615"/>
        <path id="Tracé_758" data-name="Tracé 758" d="M614.1,467.063a3.737,3.737,0,0,1-1.39.983,4.152,4.152,0,0,1-1.588.3,4.416,4.416,0,0,1-1.587-.318,4.514,4.514,0,0,1-1.377-.857,4.353,4.353,0,0,1-1-1.33,4.547,4.547,0,0,1-.442-1.563,4.1,4.1,0,0,1,.168-1.6,3.759,3.759,0,0,1,.841-1.449,3.646,3.646,0,0,1,1.4-.975,4.188,4.188,0,0,1,1.6-.281,4.537,4.537,0,0,1,1.581.321,4.435,4.435,0,0,1,2.365,2.171,4.239,4.239,0,0,1,.262,3.16A3.764,3.764,0,0,1,614.1,467.063Zm-5.02-.9a3.551,3.551,0,0,0,.989.643,3.168,3.168,0,0,0,1.1.267,2.669,2.669,0,0,0,1.087-.17,2.433,2.433,0,0,0,.951-.66,2.369,2.369,0,0,0,.572-1.028,2.7,2.7,0,0,0,.041-1.107,3.2,3.2,0,0,0-.38-1.062,3.623,3.623,0,0,0-.713-.892,3.529,3.529,0,0,0-.994-.645,3.1,3.1,0,0,0-1.094-.26,2.742,2.742,0,0,0-1.079.169,2.361,2.361,0,0,0-.939.648,2.4,2.4,0,0,0-.577,1.033,2.757,2.757,0,0,0-.055,1.1,3.187,3.187,0,0,0,.372,1.062A3.563,3.563,0,0,0,609.078,466.158Z" fill="#161615"/>
        <path id="Tracé_759" data-name="Tracé 759" d="M616.684,456.694l3.163,5.1-1.143.709-4.49-7.24.9-.558,7.379,2.654-3.232-5.211,1.152-.714,4.485,7.23-.949.589Z" fill="#161615"/>
        <path id="Tracé_760" data-name="Tracé 760" d="M632.309,447.417l1.156-.216,4.866,7.76-1.392.26-1.31-2.113-3.233.6-.447,2.439-1.4.262Zm2.878,4.761-2.016-3.347-.721,3.858Z" fill="#161615"/>
        <path id="Tracé_761" data-name="Tracé 761" d="M640.485,454.943l.531-8.5,3.7.231a2.361,2.361,0,0,1,1.045.306,2.719,2.719,0,0,1,.794.68,2.988,2.988,0,0,1,.49.921,2.751,2.751,0,0,1,.134,1.024,2.851,2.851,0,0,1-.171.819,2.885,2.885,0,0,1-.381.71,2.364,2.364,0,0,1-.564.547,2.123,2.123,0,0,1-.706.323l1.8,3.358-1.521-.094-1.661-3.074-1.963-.122-.184,2.958Zm1.6-4.059,2.347.145a1.074,1.074,0,0,0,.529-.092,1.255,1.255,0,0,0,.423-.323,1.737,1.737,0,0,0,.295-.493,1.872,1.872,0,0,0,.133-.6,1.642,1.642,0,0,0-.075-.619,1.748,1.748,0,0,0-.269-.521,1.446,1.446,0,0,0-.409-.368,1.089,1.089,0,0,0-.5-.157l-2.276-.142Z" fill="#161615"/>
        <path id="Tracé_762" data-name="Tracé 762" d="M657.437,450.688l-2.708-.831-2.152,7.009-1.3-.4,2.153-7.01-2.718-.834.348-1.137,6.722,2.065Z" fill="#161615"/>
        <path id="Tracé_763" data-name="Tracé 763" d="M657.379,458.827l3.91-7.57,1.193.616-3.908,7.57Z" fill="#161615"/>
        <path id="Tracé_764" data-name="Tracé 764" d="M669.27,458.84a1.913,1.913,0,0,0-.106-.436,3.417,3.417,0,0,0-.255-.548,3.955,3.955,0,0,0-.4-.579,3.338,3.338,0,0,0-.547-.521,2.027,2.027,0,0,0-1.186-.512,1.027,1.027,0,0,0-.842.444.914.914,0,0,0-.209.481,1.062,1.062,0,0,0,.1.513,2.973,2.973,0,0,0,.366.61c.163.221.358.472.584.757a10.655,10.655,0,0,1,.72.985,3.354,3.354,0,0,1,.417.907,1.887,1.887,0,0,1,.033.877,2.212,2.212,0,0,1-.435.9,2.381,2.381,0,0,1-.872.739,2.078,2.078,0,0,1-1,.2,2.916,2.916,0,0,1-1.048-.256,5.087,5.087,0,0,1-1.047-.625,5.99,5.99,0,0,1-1.316-1.373,5.379,5.379,0,0,1-.783-1.675l1.186-.545a2.825,2.825,0,0,0,.146.55,4.241,4.241,0,0,0,.33.7,6.125,6.125,0,0,0,.505.732,3.832,3.832,0,0,0,.685.666,2.273,2.273,0,0,0,1.141.522.9.9,0,0,0,.837-.386.878.878,0,0,0,.2-.528,1.4,1.4,0,0,0-.138-.58,4.17,4.17,0,0,0-.4-.678c-.175-.244-.38-.518-.615-.817a10.16,10.16,0,0,1-.668-.955,2.769,2.769,0,0,1-.351-.834,1.718,1.718,0,0,1,0-.778,2,2,0,0,1,.391-.78,2.47,2.47,0,0,1,.863-.738,2.36,2.36,0,0,1,1.016-.252,2.869,2.869,0,0,1,1.079.2,4.274,4.274,0,0,1,1.076.609,4.47,4.47,0,0,1,1.1,1.186,5.281,5.281,0,0,1,.607,1.323Z" fill="#161615"/>
        <path id="Tracé_765" data-name="Tracé 765" d="M675.911,462.793l.741.913-4.492,7.981-.894-1.1,1.23-2.159-2.074-2.552-2.356.771-.9-1.108Zm-2.808,4.8,1.978-3.369-3.734,1.209Z" fill="#161615"/>
        <path id="Tracé_766" data-name="Tracé 766" d="M679.264,472.319l-5.485,2.434-.545-1.23,7.789-3.454.428.965-3.64,6.945,5.6-2.487.551,1.24-7.778,3.45-.453-1.02Z" fill="#161615"/>
      </g>
    </g>
    <g id="Groupe_408" data-name="Groupe 408">
      <g id="Groupe_407" data-name="Groupe 407">
        <path id="Tracé_767" data-name="Tracé 767" d="M598.166,505.963l7.878-3.245,1.152,2.8a4.525,4.525,0,0,1,.378,1.8,3.763,3.763,0,0,1-.349,1.545,3.831,3.831,0,0,1-.95,1.241,5.068,5.068,0,0,1-1.424.873,5.006,5.006,0,0,1-1.739.4,3.816,3.816,0,0,1-1.56-.26,3.691,3.691,0,0,1-1.3-.88,4.59,4.59,0,0,1-.937-1.469Zm6.163,3.743a3.96,3.96,0,0,0,1.072-.643,2.682,2.682,0,0,0,.685-.873,2.53,2.53,0,0,0,.248-1.049,2.861,2.861,0,0,0-.235-1.174l-.642-1.554-5.681,2.34.641,1.554a2.888,2.888,0,0,0,.671,1.014,2.466,2.466,0,0,0,.933.564,2.8,2.8,0,0,0,1.108.121A4,4,0,0,0,604.329,509.706Z" fill="#161615"/>
        <path id="Tracé_768" data-name="Tracé 768" d="M606.631,519.085a2.142,2.142,0,0,0,.9.712,2.093,2.093,0,0,0,.984.133,2.91,2.91,0,0,0,1-.3,5.582,5.582,0,0,0,.952-.607l3.389-2.675.84,1.063-3.389,2.677a6.47,6.47,0,0,1-1.422.862,3.787,3.787,0,0,1-1.466.331,3.079,3.079,0,0,1-1.431-.33,3.869,3.869,0,0,1-1.308-1.115,3.8,3.8,0,0,1-.789-1.571,3.087,3.087,0,0,1,.042-1.477,3.872,3.872,0,0,1,.681-1.335,6.6,6.6,0,0,1,1.134-1.139l3.392-2.677.833,1.055-3.392,2.677a5.443,5.443,0,0,0-.818.792,2.908,2.908,0,0,0-.527.9,2.046,2.046,0,0,0-.09.99A2.2,2.2,0,0,0,606.631,519.085Z" fill="#161615"/>
        <path id="Tracé_769" data-name="Tracé 769" d="M623.288,531.042a1.993,1.993,0,0,1-.636.7,2.119,2.119,0,0,1-.829.325,2.537,2.537,0,0,1-.939-.033,3.352,3.352,0,0,1-.962-.369l-3.547-1.994,4.177-7.426,3.828,2.152a1.675,1.675,0,0,1,.6.562,1.974,1.974,0,0,1,.29.734,2.3,2.3,0,0,1,0,.8,2.319,2.319,0,0,1-1.116,1.616,1.941,1.941,0,0,1-1.186.263,2.174,2.174,0,0,1,.624,1.252A2.256,2.256,0,0,1,623.288,531.042Zm-1.079-.9a1.419,1.419,0,0,0,.169-.484,1.5,1.5,0,0,0,0-.483,1.13,1.13,0,0,0-.179-.431,1.039,1.039,0,0,0-.354-.323l-2.448-1.376-1.277,2.269,2.374,1.335a1.185,1.185,0,0,0,.48.153,1.265,1.265,0,0,0,.48-.046,1.282,1.282,0,0,0,.43-.227A1.3,1.3,0,0,0,622.209,530.146Zm-1.057-6.225-1.228,2.186,2.154,1.212a1.107,1.107,0,0,0,.449.143,1.272,1.272,0,0,0,.452-.042,1.144,1.144,0,0,0,.41-.217,1.36,1.36,0,0,0,.326-.4,1.31,1.31,0,0,0,.171-.943,1.008,1.008,0,0,0-.516-.7Z" fill="#161615"/>
        <path id="Tracé_770" data-name="Tracé 770" d="M631.229,527.087l1.135.3,1.065,9.1-1.368-.362-.278-2.47-3.177-.842-1.453,2.01-1.38-.365Zm.554,5.535-.383-3.888-2.306,3.174Zm-1.315-7.115,1.5-.781.917.242.914,1.422-.771.143-.792-.992-1.179.469Z" fill="#161615"/>
        <path id="Tracé_771" data-name="Tracé 771" d="M643.433,529.734l-2.831-.091-.237,7.329-1.355-.044.236-7.328-2.843-.092.039-1.189,7.029.228Z" fill="#161615"/>
        <path id="Tracé_772" data-name="Tracé 772" d="M647.268,536.562l-1.278-8.423,1.328-.2,1.278,8.422Z" fill="#161615"/>
        <path id="Tracé_773" data-name="Tracé 773" d="M660.415,532.771l-2.242-5.707-.658,5.249-.693.272-4.066-3.393L655,534.9l-1.252.492-3.115-7.931,1.341-.526,4.528,3.816.72-5.879,1.342-.526,3.114,7.929Z" fill="#161615"/>
        <path id="Tracé_774" data-name="Tracé 774" d="M670.393,524.834l.72.945-4.645,3.546-5.169-6.772,4.557-3.481.722.945-3.491,2.665,1.471,1.926,3.024-2.308.677.887-3.024,2.308,1.58,2.07Z" fill="#161615"/>
        <path id="Tracé_775" data-name="Tracé 775" d="M670.768,517.562l4.753,3.661-.821,1.064-6.75-5.2.645-.837,7.841-.11-4.858-3.742.826-1.075,6.742,5.193-.682.882Z" fill="#161615"/>
        <path id="Tracé_776" data-name="Tracé 776" d="M677.446,503.115l-1.091,2.614,6.766,2.825-.522,1.252-6.767-2.827-1.1,2.625-1.1-.458,2.71-6.489Z" fill="#161615"/>
      </g>
    </g>
    <g id="Groupe_409" data-name="Groupe 409">
      <path id="Tracé_777" data-name="Tracé 777" d="M623.893,505.97v4.072h34.566V505.9C658.459,482.4,623.893,482.462,623.893,505.97Z" fill="none" stroke="#161615" stroke-miterlimit="10" stroke-width="3"/>
      <circle id="Ellipse_15" data-name="Ellipse 15" cx="12.15" cy="12.15" r="12.15" transform="translate(628.674 469.6)" fill="#fff" stroke="#161615" stroke-miterlimit="10" stroke-width="3"/>
    </g>
    <path id="Tracé_778" data-name="Tracé 778" d="M599.907,494.638a39.952,39.952,0,0,1-.27-6.569" fill="none" stroke="#161615" stroke-miterlimit="10" stroke-width="3"/>
    <path id="Tracé_779" data-name="Tracé 779" d="M683.137,494.638a39.827,39.827,0,0,0-.27-6.569" fill="none" stroke="#161615" stroke-miterlimit="10" stroke-width="3"/>
  </g>
</svg>
