<?xml version="1.0" encoding="utf-8"?>
<!-- Generator: Adobe Illustrator 24.3.0, SVG Export Plug-In . SVG Version: 6.00 Build 0)  -->
<svg version="1.1" id="serrurier" xmlns="http://www.w3.org/2000/svg" xmlns:xlink="http://www.w3.org/1999/xlink" x="0px" y="0px"
	 viewBox="0 0 111.6 111.6" style="enable-background:new 0 0 111.6 111.6;" xml:space="preserve">
<g id="Groupe_452" transform="translate(-546.937 -284.436)">
	<g id="Tracé_867">
		<path style="fill:#161615;" d="M564.6,350.3c-2.9-11.6-0.5-23.7,6.6-33.3l0.3-0.5l2.4,1.8l-0.3,0.4c-6.6,8.8-8.8,20-6.1,30.7
			L564.6,350.3z"/>
	</g>
	<g id="Tracé_868">
		<path style="fill:#161615;" d="M641.6,349.8l-2.9-0.7c2.5-10.6,0.2-21.7-6.3-30.4l2.4-1.8C641.8,326.4,644.3,338.3,641.6,349.8z"
			/>
	</g>
	<g id="Groupe_447">
		<g id="Groupe_446">
			<g id="Tracé_869">
				<path style="fill:#161615;" d="M586.4,311.5l-3.5-5l0.6,5.3l-0.6,0.4l-4.7-2.4l3.5,5l-1.1,0.8l-4.9-7l1.2-0.8l5.3,2.7l-0.7-5.9
					l1.2-0.8l4.9,7L586.4,311.5z"/>
			</g>
			<g id="Tracé_870">
				<path style="fill:#161615;" d="M595.6,306.7l0.4,1.1l-5.6,1.8l-2.6-8.1l5.5-1.7l0.4,1.1l-4.2,1.3l0.7,2.3l3.6-1.1l0.3,1.1
					l-3.6,1.1l0.8,2.5L595.6,306.7z M590.7,299.6l-0.9,0l0.3-1.5l1.2-0.4L590.7,299.6z"/>
			</g>
			<g id="Tracé_871">
				<path style="fill:#161615;" d="M604.5,299.8l-2.8,0.1l0.4,7.3l-1.4,0.1l-0.4-7.3l-2.8,0.1l-0.1-1.2l7-0.4L604.5,299.8z"/>
			</g>
			<g id="Tracé_872">
				<path style="fill:#161615;" d="M607.4,307.5l1.3-8.4l1.3,0.2l-1.3,8.4L607.4,307.5z"/>
			</g>
			<g id="Tracé_873">
				<path style="fill:#161615;" d="M617.9,309.2l-0.4,1.1l-5.5-2l2.9-8l5.4,2l-0.4,1.1l-4.1-1.5l-0.8,2.3l3.6,1.3l-0.4,1l-3.6-1.3
					l-0.9,2.4L617.9,309.2z"/>
			</g>
			<g id="Tracé_874">
				<path style="fill:#161615;" d="M619.9,311.6l4.9-7l3,2.1c0.3,0.2,0.6,0.5,0.7,0.8c0.2,0.3,0.3,0.6,0.3,1c0,0.3,0,0.7-0.1,1
					c-0.1,0.3-0.2,0.7-0.4,0.9c-0.2,0.2-0.4,0.4-0.6,0.6c-0.2,0.2-0.4,0.3-0.7,0.4c-0.2,0.1-0.5,0.2-0.8,0.2c-0.3,0-0.5,0-0.8-0.1
					l-0.2,3.8l-1.2-0.9l0.2-3.5l-1.6-1.1l-1.7,2.4L619.9,311.6z M623.4,309l1.9,1.4c0.1,0.1,0.3,0.2,0.5,0.2c0.2,0,0.4,0,0.5-0.1
					c0.2-0.1,0.4-0.1,0.5-0.3c0.2-0.1,0.3-0.3,0.4-0.4c0.1-0.2,0.2-0.4,0.3-0.6c0-0.2,0.1-0.4,0-0.6c0-0.2-0.1-0.4-0.2-0.5
					c-0.1-0.2-0.2-0.3-0.3-0.4l-1.9-1.3L623.4,309z"/>
			</g>
		</g>
	</g>
	<g id="Groupe_449">
		<g id="Groupe_448">
			<g id="Tracé_875">
				<path style="fill:#161615;" d="M572.9,359.6c0-0.1,0.1-0.3,0.1-0.4c0-0.2,0-0.4,0-0.6c0-0.2-0.1-0.5-0.1-0.7
					c-0.1-0.2-0.2-0.5-0.3-0.7c-0.2-0.4-0.5-0.7-0.9-1c-0.3-0.1-0.7-0.1-1,0.1c-0.2,0.1-0.3,0.2-0.4,0.4c-0.1,0.2-0.1,0.3-0.1,0.5
					c0,0.2,0,0.5,0.1,0.7c0.1,0.3,0.1,0.6,0.2,0.9c0.1,0.4,0.2,0.8,0.2,1.2c0.1,0.3,0.1,0.7,0,1c0,0.3-0.2,0.6-0.3,0.8
					c-0.2,0.3-0.5,0.5-0.8,0.6c-0.3,0.2-0.7,0.3-1.1,0.3c-0.3,0-0.7-0.1-1-0.2c-0.3-0.2-0.6-0.4-0.9-0.7c-0.3-0.3-0.5-0.6-0.7-1
					c-0.3-0.6-0.5-1.2-0.6-1.8c-0.1-0.6-0.1-1.2,0-1.8l1.3,0c-0.1,0.2-0.1,0.4-0.1,0.6c0,0.3,0,0.5,0,0.8c0,0.3,0.1,0.6,0.2,0.9
					c0.1,0.3,0.2,0.6,0.3,0.9c0.2,0.4,0.5,0.7,0.8,0.9c0.3,0.2,0.6,0.2,0.9,0c0.2-0.1,0.3-0.2,0.4-0.4c0.1-0.2,0.1-0.4,0.1-0.6
					c0-0.3,0-0.5-0.1-0.8c-0.1-0.3-0.1-0.6-0.2-1c-0.1-0.4-0.2-0.8-0.2-1.1c0-0.3,0-0.6,0-0.9c0.1-0.3,0.2-0.5,0.3-0.7
					c0.2-0.2,0.4-0.4,0.7-0.5c0.3-0.2,0.7-0.3,1.1-0.3c0.4,0,0.7,0.1,1,0.2c0.3,0.1,0.6,0.4,0.9,0.6c0.3,0.3,0.5,0.6,0.7,1
					c0.3,0.5,0.4,1,0.5,1.5c0.1,0.5,0.1,1,0,1.5L572.9,359.6z"/>
			</g>
			<g id="Tracé_876">
				<path style="fill:#161615;" d="M575.6,371.1l-0.9,0.8l-4-4.2l6.2-5.9l4,4.2l-0.9,0.8l-3-3.2l-1.8,1.7l2.6,2.8l-0.8,0.8l-2.6-2.8
					l-1.9,1.8L575.6,371.1z"/>
			</g>
			<g id="Tracé_877">
				<path style="fill:#161615;" d="M578.9,375.2l4.4-7.3l3.2,1.9c0.3,0.2,0.6,0.4,0.8,0.8c0.2,0.3,0.3,0.6,0.4,1
					c0.1,0.3,0.1,0.7,0,1c-0.1,0.3-0.2,0.7-0.4,1c-0.1,0.2-0.3,0.5-0.5,0.6c-0.2,0.2-0.4,0.3-0.7,0.5c-0.2,0.1-0.5,0.2-0.8,0.2
					c-0.3,0-0.5,0-0.8,0l0.1,3.8l-1.3-0.8l-0.1-3.5l-1.7-1l-1.5,2.5L578.9,375.2z M582.2,372.3l2,1.2c0.2,0.1,0.3,0.2,0.5,0.2
					c0.2,0,0.4,0,0.5-0.1c0.2-0.1,0.3-0.2,0.5-0.3c0.2-0.1,0.3-0.3,0.4-0.5c0.1-0.2,0.2-0.4,0.2-0.6c0-0.2,0-0.4,0-0.6
					c0-0.2-0.1-0.4-0.2-0.5c-0.1-0.2-0.2-0.3-0.4-0.4l-2-1.2L582.2,372.3z"/>
			</g>
			<g id="Tracé_878">
				<path style="fill:#161615;" d="M589.6,380.5l2.1-8.2l3.6,0.9c0.4,0.1,0.7,0.3,1,0.5c0.3,0.2,0.5,0.5,0.7,0.8
					c0.2,0.3,0.3,0.7,0.3,1c0,0.3,0,0.7-0.1,1c-0.1,0.3-0.2,0.5-0.3,0.8c-0.1,0.2-0.3,0.4-0.5,0.6c-0.2,0.2-0.4,0.3-0.7,0.4
					c-0.2,0.1-0.5,0.2-0.8,0.2l1.1,3.6l-1.5-0.4l-1-3.3l-1.9-0.5l-0.7,2.9L589.6,380.5z M591.9,376.9l2.3,0.6c0.2,0,0.4,0.1,0.5,0
					c0.2,0,0.3-0.1,0.5-0.2c0.1-0.1,0.3-0.3,0.4-0.4c0.1-0.2,0.2-0.4,0.2-0.6c0.1-0.2,0.1-0.4,0-0.6c0-0.2-0.1-0.4-0.2-0.6
					c-0.1-0.2-0.2-0.3-0.3-0.4c-0.1-0.1-0.3-0.2-0.5-0.3l-2.2-0.6L591.9,376.9z"/>
			</g>
			<g id="Tracé_879">
				<path style="fill:#161615;" d="M604.9,381.4c0.4,0,0.8-0.1,1.1-0.3c0.3-0.2,0.5-0.4,0.7-0.7c0.2-0.3,0.3-0.6,0.3-1
					c0.1-0.4,0.1-0.8,0.1-1.1l-0.2-4.3l1.4-0.1l0.2,4.3c0,0.6,0,1.1-0.1,1.7c-0.1,0.5-0.3,1-0.6,1.4c-0.3,0.4-0.7,0.7-1.1,1
					c-0.5,0.3-1.1,0.4-1.7,0.4c-0.6,0-1.2,0-1.7-0.3c-0.5-0.2-0.9-0.5-1.2-0.9c-0.3-0.4-0.5-0.8-0.7-1.3c-0.2-0.5-0.2-1-0.3-1.6
					l-0.2-4.3l1.3-0.1l0.2,4.3c0,0.4,0.1,0.8,0.2,1.1c0.1,0.3,0.2,0.7,0.4,1c0.2,0.3,0.4,0.5,0.8,0.7
					C604.1,381.4,604.5,381.5,604.9,381.4z"/>
			</g>
			<g id="Tracé_880">
				<path style="fill:#161615;" d="M614.4,381.2l-2.9-8l3.5-1.3c0.3-0.1,0.7-0.2,1.1-0.1c0.4,0,0.7,0.1,1,0.3
					c0.3,0.2,0.6,0.4,0.8,0.7c0.2,0.3,0.4,0.6,0.5,0.9c0.2,0.5,0.2,1.1,0.1,1.6c-0.1,0.3-0.2,0.5-0.3,0.7c-0.1,0.2-0.3,0.4-0.5,0.6
					l3,2.4l-1.4,0.5l-2.7-2.2l-1.9,0.7l1,2.8L614.4,381.2z M614.3,376.8l2.2-0.8c0.2-0.1,0.3-0.2,0.4-0.3c0.1-0.1,0.2-0.3,0.3-0.5
					c0.1-0.2,0.1-0.4,0.1-0.6c0-0.2,0-0.4-0.1-0.6c-0.1-0.2-0.2-0.4-0.3-0.5c-0.1-0.1-0.3-0.3-0.5-0.4c-0.2-0.1-0.3-0.2-0.5-0.2
					c-0.2,0-0.4,0-0.5,0.1l-2.1,0.8L614.3,376.8z"/>
			</g>
			<g id="Tracé_881">
				<path style="fill:#161615;" d="M624.8,376.6l-4.5-7.2l1.1-0.7l4.5,7.2L624.8,376.6z"/>
			</g>
			<g id="Tracé_882">
				<path style="fill:#161615;" d="M633.6,367.9l0.8,0.9l-4.2,4.1l-5.9-6.1l4.1-4l0.8,0.9l-3.2,3l1.7,1.7l2.7-2.6l0.8,0.8l-2.7,2.6
					l1.8,1.9L633.6,367.9z"/>
			</g>
			<g id="Tracé_883">
				<path style="fill:#161615;" d="M637.7,364.5l-7.3-4.3l1.9-3.2c0.2-0.3,0.4-0.6,0.7-0.8c0.3-0.2,0.6-0.3,1-0.4
					c0.3-0.1,0.7-0.1,1,0c0.3,0.1,0.7,0.2,1,0.3c0.2,0.1,0.5,0.3,0.7,0.5c0.2,0.2,0.3,0.4,0.5,0.7c0.1,0.2,0.2,0.5,0.2,0.8
					c0,0.3,0,0.5,0,0.8l3.8-0.1l-0.8,1.3l-3.5,0.1l-1,1.7l2.6,1.5L637.7,364.5z M634.8,361.3l1.2-2c0.1-0.2,0.1-0.3,0.2-0.5
					c0-0.2,0-0.4-0.1-0.5c-0.1-0.2-0.2-0.3-0.3-0.5c-0.1-0.2-0.3-0.3-0.5-0.4c-0.2-0.1-0.4-0.2-0.6-0.2c-0.2,0-0.4,0-0.6,0
					c-0.2,0-0.4,0.1-0.5,0.2c-0.2,0.1-0.3,0.2-0.4,0.4l-1.2,2L634.8,361.3z"/>
			</g>
		</g>
	</g>
	<g id="Tracé_884">
		<path style="fill:none;stroke:#161615;stroke-width:3;stroke-miterlimit:10;" d="M567.5,340.3"/>
	</g>
	<g id="Groupe_451">
		<g id="Groupe_450">
			<g id="Tracé_885">
				<path style="fill:#040506;" d="M579.6,351.3l3.2,1.1c0.1,0.3,0.2,0.5,0.3,0.8l-1.4,3.1c-0.1,0.3-0.1,0.6,0.1,0.8l2.1,2.1
					c0.2,0.2,0.5,0.3,0.8,0.1l3.1-1.4c0.2,0.1,0.5,0.2,0.8,0.3l1.1,3.2c0.1,0.3,0.4,0.4,0.6,0.4h3c0.3,0,0.5-0.2,0.6-0.4l1.1-3.2
					c0.3-0.1,0.5-0.2,0.8-0.3l3.1,1.4c0.3,0.1,0.6,0.1,0.8-0.1l2.1-2.1c0.2-0.2,0.3-0.5,0.1-0.8l-1.4-3.1c0.1-0.2,0.2-0.5,0.3-0.8
					l3.2-1.1c0.3-0.1,0.5-0.4,0.4-0.6v-3c0-0.3-0.2-0.5-0.4-0.6l-3.2-1.1c-0.1-0.3-0.2-0.5-0.3-0.8l1.4-3.1c0.1-0.3,0.1-0.6-0.1-0.8
					l-2.1-2.1c-0.2-0.2-0.5-0.3-0.8-0.1l-3.1,1.4c-0.2-0.1-0.5-0.2-0.8-0.3l-1.1-3.2c-0.1-0.3-0.4-0.4-0.6-0.4h-3
					c-0.3,0-0.5,0.2-0.6,0.4l-1.1,3.2c-0.3,0.1-0.5,0.2-0.8,0.3l-3.1-1.4c-0.3-0.1-0.6-0.1-0.8,0.1l-2.1,2.1
					c-0.2,0.2-0.3,0.5-0.1,0.8l1.4,3.1c-0.1,0.2-0.2,0.5-0.3,0.8l-3.2,1.1c-0.3,0.1-0.4,0.4-0.4,0.6v3
					C579.2,350.9,579.3,351.2,579.6,351.3z M580.5,348.1l3.1-1.1c0.2-0.1,0.4-0.2,0.4-0.4c0.1-0.4,0.3-0.8,0.5-1.2
					c0.1-0.2,0.1-0.4,0-0.6l-1.4-2.9l1.4-1.4l2.9,1.4c0.2,0.1,0.4,0.1,0.6,0c0.4-0.2,0.8-0.4,1.2-0.5c0.2-0.1,0.4-0.2,0.4-0.4
					l1.1-3.1h2l1.1,3.1c0.1,0.2,0.2,0.4,0.4,0.4c0.4,0.1,0.8,0.3,1.2,0.5c0.2,0.1,0.4,0.1,0.6,0l2.9-1.4l1.4,1.4l-1.4,2.9
					c-0.1,0.2-0.1,0.4,0,0.6c0.2,0.4,0.4,0.8,0.5,1.2c0.1,0.2,0.2,0.4,0.4,0.4l3.1,1.1v2l-3.1,1.1c-0.2,0.1-0.4,0.2-0.4,0.4
					c-0.1,0.4-0.3,0.8-0.5,1.2c-0.1,0.2-0.1,0.4,0,0.6l1.4,2.9l-1.4,1.4l-2.9-1.4c-0.2-0.1-0.4-0.1-0.6,0c-0.4,0.2-0.8,0.4-1.2,0.5
					c-0.2,0.1-0.4,0.2-0.4,0.4l-1.1,3.1h-2l-1.1-3.1c-0.1-0.2-0.2-0.4-0.4-0.4c-0.4-0.1-0.8-0.3-1.2-0.5c-0.2-0.1-0.4-0.1-0.6,0
					l-2.9,1.4l-1.4-1.4l1.4-2.9c0.1-0.2,0.1-0.4,0-0.6c-0.2-0.4-0.4-0.7-0.5-1.1c-0.1-0.2-0.2-0.4-0.4-0.4l-3.1-1.1V348.1z"/>
				<path style="fill:#040405;" d="M590.3,362.3c-0.4,0-0.9-0.3-1-0.8l-1-2.9c-0.1,0-0.3-0.1-0.4-0.2l-2.8,1.3
					c-0.4,0.2-1,0.1-1.4-0.3l-2.1-2.1c-0.4-0.3-0.5-0.9-0.2-1.4l1.3-2.9c0-0.1,0-0.1-0.1-0.2c0-0.1-0.1-0.1-0.1-0.2l-3-1.1
					c-0.4-0.2-0.7-0.6-0.7-1.1v-3c0-0.5,0.3-0.9,0.7-1.1l3-1.1c0-0.1,0.1-0.3,0.2-0.4l-1.3-2.8c-0.2-0.4-0.1-1,0.3-1.4l2.1-2.1
					c0.3-0.4,0.9-0.5,1.4-0.2l2.9,1.3c0.1,0,0.1,0,0.2-0.1c0.1,0,0.1-0.1,0.2-0.1l1.1-3c0.2-0.5,0.6-0.7,1.1-0.8h3
					c0.5,0,1,0.3,1.1,0.8l1,2.9c0.1,0,0.3,0.1,0.4,0.2l2.8-1.3c0.4-0.2,1-0.1,1.4,0.3l2.1,2.1c0.4,0.3,0.5,0.9,0.2,1.4l-1.3,2.9
					c0,0.1,0,0.1,0.1,0.2c0,0.1,0.1,0.1,0.1,0.2l3,1.1c0.5,0.2,0.7,0.6,0.8,1.1v3c0,0.5-0.3,1-0.8,1.1l-2.9,1c0,0.1-0.1,0.3-0.2,0.4
					l1.3,2.8c0.2,0.4,0.1,1-0.3,1.4l-2.1,2.1c-0.3,0.4-0.9,0.5-1.4,0.2l-2.9-1.3c-0.1,0-0.1,0-0.2,0.1c-0.1,0-0.1,0.1-0.2,0.1
					l-1.1,3c-0.2,0.5-0.6,0.7-1.1,0.8L590.3,362.3C590.3,362.3,590.3,362.3,590.3,362.3z M587.8,357.3l0.2,0.1
					c0.2,0.1,0.4,0.2,0.6,0.2l0.3,0.1l1.2,3.5c0,0.1,0.1,0.1,0.1,0.1l3,0c0.1,0,0.1-0.1,0.2-0.1l1.2-3.4l0.3-0.1
					c0.1,0,0.2-0.1,0.3-0.1c0.1-0.1,0.3-0.1,0.5-0.2l0.2,0l3.2,1.5c0.1,0,0.2,0,0.2,0l2.2-2.2c0.1-0.1,0.1-0.1,0.1-0.2l-1.5-3.3
					l0.1-0.2c0.1-0.2,0.2-0.4,0.2-0.6l0.1-0.3l3.5-1.2c0.1,0,0.1-0.1,0.1-0.1l0-3c0-0.1-0.1-0.2-0.1-0.2l-3.4-1.2l-0.1-0.3
					c0-0.1-0.1-0.2-0.1-0.3c-0.1-0.1-0.1-0.3-0.2-0.5l0-0.2l1.5-3.2c0-0.1,0-0.2,0-0.2l-2.2-2.2c-0.1-0.1-0.1-0.1-0.2-0.1l-3.3,1.5
					l-0.2-0.1c-0.2-0.1-0.4-0.2-0.6-0.2l-0.3-0.1l-1.2-3.5c0-0.1-0.1-0.1-0.1-0.1l-3,0c-0.1,0-0.1,0.1-0.2,0.1l-1.2,3.4l-0.3,0.1
					c-0.1,0-0.2,0.1-0.3,0.1c-0.1,0.1-0.3,0.1-0.5,0.2l-0.2,0l-3.2-1.5c-0.1,0-0.2,0-0.2,0l-2.2,2.2c-0.1,0.1-0.1,0.1-0.1,0.2
					l1.5,3.3l-0.1,0.2c-0.1,0.2-0.2,0.4-0.2,0.6l-0.1,0.3l-3.5,1.2c0,0-0.1,0.1-0.1,0.2v3c0,0.1,0,0.1,0.1,0.2l3.4,1.2l0.1,0.3
					c0,0.1,0.1,0.2,0.1,0.3c0.1,0.1,0.1,0.3,0.2,0.5l0,0.2l-1.5,3.2c0,0.1,0,0.2,0,0.2l2.2,2.2c0.1,0.1,0.1,0.1,0.2,0.1L587.8,357.3
					z M593.2,361h-2.7l-1.2-3.4c0-0.1-0.1-0.1-0.1-0.1c-0.4-0.1-0.9-0.3-1.3-0.5c0,0-0.2,0-0.3,0l-3.2,1.5l-1.9-1.9l1.5-3.2
					c0-0.1,0-0.2,0-0.3c-0.2-0.3-0.4-0.7-0.5-1.1c0-0.1-0.1-0.1-0.1-0.1l-3.4-1.2v-2.8l3.4-1.2c0.1,0,0.1-0.1,0.1-0.1
					c0.1-0.5,0.3-0.9,0.5-1.3c0,0,0-0.2,0-0.3l-1.5-3.2l1.9-1.9l3.2,1.5c0.1,0,0.2,0,0.3,0c0.3-0.2,0.8-0.4,1.2-0.5
					c0,0,0.1,0,0.1-0.1l1.2-3.4h2.7l1.2,3.4c0,0.1,0.1,0.1,0.1,0.1c0.4,0.1,0.9,0.3,1.3,0.5c0,0,0.2,0,0.3,0l3.2-1.5l1.9,1.9
					l-1.5,3.2c0,0.1,0,0.2,0,0.3c0.2,0.3,0.4,0.8,0.5,1.2c0,0,0,0.1,0.1,0.1l3.4,1.2v2.7l-3.4,1.2c-0.1,0-0.1,0.1-0.1,0.1
					c-0.1,0.5-0.3,0.9-0.5,1.3c0,0,0,0.2,0,0.3l1.5,3.2l-1.9,1.9l-3.2-1.5c-0.1,0-0.2,0-0.3,0c-0.3,0.2-0.8,0.4-1.2,0.5
					c0,0-0.1,0-0.1,0.1L593.2,361z M591.2,360h1.3l1-2.7c0.1-0.3,0.4-0.6,0.8-0.7c0.4-0.1,0.8-0.3,1.1-0.5c0.4-0.1,0.7-0.1,1,0
					l2.7,1.2l0.9-0.9l-1.2-2.6c-0.1-0.4-0.1-0.7,0-1c0.2-0.4,0.4-0.8,0.5-1.2c0.1-0.4,0.4-0.6,0.8-0.8l2.7-0.9v-1.3l-2.7-1
					c-0.3-0.1-0.6-0.4-0.7-0.8c-0.1-0.4-0.3-0.8-0.5-1.1c-0.1-0.4-0.1-0.7,0-1l1.2-2.6l-0.9-0.9l-2.6,1.2c-0.4,0.1-0.7,0.1-1,0
					c-0.4-0.2-0.8-0.4-1.2-0.5c-0.4-0.1-0.6-0.4-0.8-0.8l-0.9-2.7h-1.3l-1,2.7c-0.1,0.3-0.4,0.6-0.8,0.7c-0.4,0.1-0.8,0.3-1.1,0.5
					c-0.4,0.1-0.7,0.1-1,0l-2.7-1.2l-0.9,0.9l1.2,2.6c0.1,0.4,0.1,0.7,0,1c-0.2,0.4-0.4,0.8-0.5,1.2c-0.1,0.4-0.4,0.6-0.8,0.8
					l-2.7,0.9v1.4l2.7,1c0.3,0.1,0.6,0.4,0.7,0.8c0.1,0.4,0.3,0.7,0.5,1.1c0.1,0.4,0.1,0.7,0,1l-1.2,2.7l0.9,0.9l2.6-1.2
					c0.4-0.1,0.7-0.1,1,0c0.4,0.2,0.8,0.4,1.2,0.5c0.4,0.1,0.6,0.4,0.8,0.8L591.2,360z"/>
			</g>
			<g id="Tracé_886">
				<path style="fill:#040506;" d="M591.9,354.3c2.8,0,5.1-2.3,5.1-5.1s-2.3-5.1-5.1-5.1c-2.8,0-5.1,2.3-5.1,5.1c0,0,0,0,0,0
					C586.7,352,589,354.3,591.9,354.3z M591.9,345.4c2,0,3.7,1.7,3.7,3.7c0,2-1.7,3.7-3.7,3.7s-3.7-1.7-3.7-3.7
					C588.1,347.1,589.8,345.4,591.9,345.4C591.8,345.4,591.8,345.4,591.9,345.4z"/>
				<path style="fill:#040405;" d="M591.9,354.8L591.9,354.8c-3.1,0-5.6-2.5-5.6-5.6c0-3.1,2.5-5.6,5.6-5.6s5.6,2.5,5.6,5.6
					S595,354.8,591.9,354.8z M591.9,344.5c-2.6,0-4.6,2.1-4.6,4.6c0,2.5,2.1,4.6,4.6,4.6c2.6,0,4.6-2.1,4.6-4.6
					S594.4,344.5,591.9,344.5z M591.9,353.3c-2.3,0-4.2-1.9-4.2-4.2c0-1.1,0.4-2.2,1.2-3c0.8-0.8,1.8-1.2,2.9-1.2h0
					c2.3,0,4.2,1.9,4.2,4.2S594.2,353.3,591.9,353.3z M591.8,345.9c-0.8,0-1.6,0.3-2.2,0.9c-0.6,0.6-0.9,1.4-0.9,2.3
					c0,1.8,1.4,3.2,3.2,3.2s3.2-1.4,3.2-3.2S593.6,345.9,591.8,345.9L591.8,345.9z"/>
			</g>
		</g>
		<g id="Tracé_887">
			<path style="fill:#040506;" d="M597.4,335.3c0.2,0.3,0.6,0.5,1,0.3l5.4-2.7c0.3-0.2,0.5-0.5,0.3-0.9l-0.4-0.8l2.8-1.4l4,7.9
				l0.1,0.2l-0.1,0.3l-0.2,0.1c-0.3,0.2-0.5,0.6-0.3,0.9l7.2,14.4c1.1,2,3.5,2.8,5.6,1.8c2-1,2.9-3.5,1.8-5.6l-7.3-14.4
				c-0.2-0.3-0.6-0.5-1-0.3l-0.4,0.2l-4.2-8.3l8.8-4.4c0.3-0.2,0.5-0.6,0.3-0.9c-0.1-0.1-0.2-0.2-0.3-0.3c-1.9-1.4-4-2.5-6.1-3.3
				c-1.6-0.5-3.3-0.7-5-0.5c-0.1,0-0.2,0-0.2,0.1l-9.9,5l-0.4-0.8c-0.2-0.3-0.6-0.5-1-0.3l-5.4,2.7c-0.3,0.2-0.5,0.6-0.3,0.9
				C592.3,325.3,592.3,325.3,597.4,335.3z M611.5,339.3l4.9-2.5l6.9,13.7c0.6,1.4,0,3-1.3,3.6c-1.3,0.6-2.9,0.1-3.6-1.2L611.5,339.3
				z M607.6,329.2l2.9-1.4l4.2,8.3l-2.8,1.4L607.6,329.2z M593.9,325.3l4.1-2.1l0.7,1.4l11-5.5l0.2,0c1.6-0.2,3.3,0.1,4.8,0.7
				c1.2,0.5,2.4,1.1,3.5,1.8l0.7,0.4l-7.7,3.9l0,0l-5.4,2.7v0l-4,2l0.7,1.4l-4.1,2.1L593.9,325.3z"/>
			<path style="fill:#040405;" d="M620.9,356.3c-1.7,0-3.3-0.9-4.1-2.5l-7.2-14.4c-0.3-0.5-0.1-1.2,0.5-1.4l0-0.1l-3.8-7.6l-2.1,1.1
				l0.3,0.5c0.2,0.6,0,1.1-0.5,1.4l-5.4,2.7c-0.5,0.3-1.2,0-1.4-0.5l0,0c-4.4-8.8-5-9.9-5.1-10c-0.3-0.6,0-1.2,0.5-1.5l5.4-2.7
				c0.5-0.3,1.2,0,1.4,0.5l0.2,0.4l9.6-4.8c0.1-0.1,0.2-0.1,0.3-0.1c1.7-0.2,3.5,0,5.1,0.5c2.2,0.8,4.3,2,6.2,3.3
				c0.2,0.1,0.3,0.2,0.4,0.4c0.3,0.5,0.1,1.2-0.5,1.5l-8.4,4.2l3.9,7.7l0.1,0c0.5-0.3,1.2,0,1.5,0.5l7.3,14.4c1.1,2.2,0.2,5-2,6.1
				C622.2,356.2,621.6,356.3,620.9,356.3z M606.6,329.4l4.3,8.6l-0.2,0.6l-0.3,0.2c-0.2,0.1-0.2,0.3-0.1,0.4l7.2,14.4
				c1,1.8,3.2,2.6,5.1,1.7c1.9-0.9,2.6-3.2,1.7-5.1l-7.3-14.4c-0.1-0.2-0.3-0.2-0.4-0.1l-0.7,0.4l-4.5-9l9.1-4.6
				c0.2-0.1,0.2-0.3,0.1-0.4c0-0.1-0.1-0.1-0.1-0.1c-1.9-1.3-3.9-2.4-6.1-3.2c-1.5-0.5-3.2-0.7-4.8-0.5c0,0-0.1,0-0.1,0l-10.2,5.2
				l-0.6-1.1c-0.1-0.2-0.3-0.2-0.5-0.1l-5.3,2.7c-0.2,0.1-0.2,0.3-0.2,0.4l0,0c0.2,0.4,1,2,5.1,10c0.1,0.2,0.3,0.2,0.5,0.1l5.4-2.7
				c0.2-0.1,0.2-0.3,0.2-0.4l-0.6-1.1L606.6,329.4z M620.8,354.9c-1.1,0-2.2-0.6-2.7-1.6l-7.1-14.1l5.6-2.8l7.1,14.1
				c0.4,0.8,0.4,1.6,0.1,2.4c-0.3,0.8-0.9,1.4-1.6,1.8C621.7,354.8,621.2,354.9,620.8,354.9z M612,339.5l6.8,13.4
				c0.6,1.1,1.9,1.5,3.1,1c0.6-0.3,1-0.7,1.2-1.3s0.2-1.2-0.1-1.8l-6.8-13.4L612,339.5z M611.7,338.1l-4.5-9l3.5-1.8l4.5,9
				L611.7,338.1z M608.2,329.4l3.9,7.7l2.2-1.1l-3.9-7.7L608.2,329.4z M598.2,334.6l-4.8-9.4l4.8-2.4l0.7,1.4l10.9-5.4
				c1.8-0.2,3.5,0.1,5.1,0.7c1.2,0.5,2.4,1.1,3.5,1.8l1.2,0.8l-8.6,4.3l0,0l-8.8,4.4l0.7,1.4L598.2,334.6z M594.4,325.5l4.1,8.1
				l3.4-1.7l-0.7-1.4l10-5.1l0,0l6.8-3.4l-0.1-0.1c-1.1-0.7-2.2-1.3-3.4-1.8c-1.5-0.6-3.1-0.8-4.6-0.7l-0.1,0l-11.2,5.7l-0.7-1.4
				L594.4,325.5z"/>
		</g>
	</g>
	<g id="Ellipse_20">
		<path style="fill:#161615;" d="M602.7,396c-30.8,0-55.8-25-55.8-55.8c0-30.8,25-55.8,55.8-55.8c30.8,0,55.8,25,55.8,55.8
			C658.5,371,633.5,396,602.7,396z M602.7,287.4c-29.1,0-52.8,23.7-52.8,52.8c0,29.1,23.7,52.8,52.8,52.8
			c29.1,0,52.8-23.7,52.8-52.8C655.5,311.1,631.8,287.4,602.7,287.4z"/>
	</g>
</g>
</svg>
