<!-- Generator: Adobe Illustrator 24.3.0, SVG Export Plug-In . SVG Version: 6.00 Build 0) -->
<svg id="tailler" version="1.1" xmlns="http://www.w3.org/2000/svg" xmlns:xlink="http://www.w3.org/1999/xlink" x="0px" y="0px" viewBox="0 0 200 200" style="enable-background:new 0 0 200 200;" xml:space="preserve">
	<g id="Groupe_275" transform="translate(-346.316 85.371)">
		<g id="Groupe_276" transform="translate(346.316 -85.371)">
			<path id="Tracé_625" d="M100,200C44.8,199.9,0.1,155.2,0,100C0,44.8,44.8,0,100,0s100,44.8,100,100
			C199.9,155.2,155.2,199.9,100,200z M100,5.4C47.8,5.4,5.4,47.8,5.4,100c0,52.3,42.4,94.6,94.7,94.6c52.2,0,94.6-42.4,94.6-94.6
			C194.6,47.8,152.2,5.4,100,5.4z" />
		</g>
		<g id="Groupe_277" transform="translate(378.97 -37.736)">
			<path id="Tracé_626" d="M4.9,23.2L0,20.9C3.6,13.1,8.6,6.1,14.6,0l3.8,3.8C12.8,9.4,8.2,16,4.9,23.2z" />
		</g>
		<g id="Groupe_278" transform="translate(494.37 -37.735)">
			<path id="Tracé_627" d="M13.6,23.2C10.2,16,5.6,9.4,0,3.8L3.8,0c6,6.1,11,13.1,14.6,20.9L13.6,23.2z" />
		</g>
		<g id="Groupe_279" transform="translate(402.407 -67.216)">
			<path id="Tracé_628" d="M16.9,21.8L12.2,13v8.7l-1.1,0.6l-7.3-4.7l4.8,8.8l-1.9,1L0,15.1L2.1,14l8.1,5.3V9.6l2.1-1.1l6.6,12.3
			L16.9,21.8z" />
			<path id="Tracé_629" d="M32.8,15l0.5,1.9L24,19.2L20.6,5.6l9.1-2.3l0.5,1.9l-7,1.7l1,3.8l6-1.5l0.4,1.8l-6,1.5l1,4.1L32.8,15z
			 M25.5,2.9L24,2.8l0.6-2.4l2-0.5L25.5,2.9z" />
			<path id="Tracé_630" d="M47.7,4.1l-4.6,0.1l0.3,12l-2.2,0.1l-0.3-12l-4.7,0.1l-0.1-1.9l11.5-0.3L47.7,4.1z" />
			<path id="Tracé_631" d="M52.2,16.7l2-13.8l2.2,0.3l-2,13.8L52.2,16.7z" />
			<path id="Tracé_632" d="M69.6,19.1L69,21l-9.1-3l4.3-13.3l8.9,2.9l-0.6,1.8l-6.8-2.2L64.5,11l5.9,1.9l-0.6,1.7l-5.9-1.9l-1.3,4.1
			L69.6,19.1z" />
			<path id="Tracé_633" d="M73.1,22.9l7.1-12l5.2,3.1c0.5,0.3,1,0.7,1.3,1.2s0.5,1,0.6,1.6c0.1,0.6,0.1,1.1,0,1.7s-0.3,1.1-0.6,1.6
			c-0.2,0.4-0.5,0.8-0.9,1.1c-0.3,0.3-0.7,0.6-1.1,0.7c-0.4,0.2-0.8,0.3-1.2,0.4c-0.4,0.1-0.9,0-1.3-0.1l0.1,6.2l-2.1-1.3l-0.1-5.7
			l-2.8-1.6L75,24L73.1,22.9z M78.5,18.1l3.3,2c0.3,0.2,0.5,0.2,0.8,0.3c0.3,0,0.6,0,0.9-0.2c0.3-0.1,0.6-0.3,0.8-0.5
			c0.3-0.2,0.5-0.5,0.6-0.8c0.2-0.3,0.3-0.6,0.4-1c0.1-0.3,0.1-0.6,0-1c-0.1-0.3-0.2-0.6-0.3-0.8c-0.2-0.2-0.4-0.5-0.6-0.6l-3.2-1.9
			L78.5,18.1z" />
		</g>
		<g id="Groupe_280" transform="translate(367.078 -3.659)">
			<path id="Tracé_634" d="M12.2,11.3l0.9-4.6L1.3,4.5l0.4-2.2l11.8,2.3L14.4,0l1.9,0.4l-2.2,11.3L12.2,11.3z" />
			<path id="Tracé_635" d="M14.1,18.9v1.9L0.3,26.7l-0.1-2.3L4,22.8l-0.1-5.4L0.1,16L0,13.7L14.1,18.9z M5.6,22.3l5.9-2.4l-6-2.2
			L5.6,22.3z" />
			<path id="Tracé_636" d="M1.6,33.6l13.6-2.9l0.5,2.2L2.1,35.7L1.6,33.6z" />
			<path id="Tracé_637" d="M4.2,43.7l13-5.1l0.8,2L6.8,45l2.8,7l-1.8,0.7L4.2,43.7z" />
			<path id="Tracé_638" d="M11.4,59.2L23,51.4l1.2,1.8l-9.9,6.7l4.2,6.2l-1.6,1.1L11.4,59.2z" />
			<path id="Tracé_639" d="M30.1,78l-1.3,1.4l-7-6.6l9.6-10.2l6.8,6.4l-1.3,1.4l-5.2-4.9L29,68.4l4.5,4.3L32.2,74l-4.5-4.3l-2.9,3.1
			L30.1,78z" />
			<path id="Tracé_640" d="M41.3,85.6c0.5,0.3,1.2,0.5,1.8,0.5c0.5,0,1.1-0.1,1.6-0.4s1-0.6,1.3-1.1c0.4-0.5,0.8-1,1.1-1.5l3.5-6.2
			l1.9,1.1L49,84.2c-0.4,0.8-1,1.5-1.6,2.2c-0.6,0.6-1.3,1.1-2,1.4s-1.6,0.5-2.4,0.4c-0.9-0.1-1.9-0.4-2.7-0.9
			c-0.9-0.5-1.6-1.1-2.2-1.9c-0.5-0.7-0.8-1.5-0.9-2.3c-0.1-0.8,0-1.7,0.2-2.4c0.2-0.8,0.6-1.7,1-2.4l3.5-6.2l1.9,1.1l-3.5,6.2
			c-0.3,0.5-0.6,1.1-0.7,1.7c-0.2,0.5-0.3,1.1-0.2,1.7c0,0.5,0.2,1.1,0.5,1.6C40.3,84.8,40.8,85.3,41.3,85.6z" />
			<path id="Tracé_641" d="M54.2,93.5L57.7,80l5.9,1.6c0.6,0.1,1.1,0.4,1.6,0.8c0.4,0.4,0.8,0.8,1.1,1.3c0.3,0.5,0.4,1.1,0.5,1.6
			c0.1,0.6,0,1.1-0.1,1.7c-0.1,0.4-0.3,0.9-0.5,1.3s-0.5,0.7-0.8,1s-0.7,0.5-1.1,0.7s-0.8,0.3-1.2,0.3l1.8,6l-2.4-0.6l-1.7-5.5
			l-3.1-0.8L56.3,94L54.2,93.5z M58,87.5l3.7,1c0.3,0.1,0.6,0.1,0.9,0c0.3-0.1,0.6-0.2,0.8-0.4c0.2-0.2,0.5-0.4,0.6-0.7
			c0.2-0.3,0.3-0.6,0.4-0.9s0.1-0.7,0.1-1s-0.1-0.6-0.3-0.9c-0.1-0.3-0.3-0.5-0.5-0.7s-0.5-0.3-0.8-0.4l-3.6-1L58,87.5z" />
			<path id="Tracé_642" d="M82,97.5l-1.4-13.9l4.9-0.5c1-0.1,2,0,3,0.2c0.8,0.3,1.6,0.7,2.3,1.3c0.6,0.6,1.2,1.3,1.5,2.1
			c0.4,0.8,0.6,1.7,0.7,2.6c0.1,1,0.1,2-0.2,2.9c-0.2,0.8-0.6,1.6-1.1,2.3c-0.5,0.7-1.2,1.2-2,1.6c-0.9,0.4-1.8,0.7-2.7,0.8L82,97.5
			z M90.7,89.6c-0.1-0.7-0.2-1.4-0.5-2c-0.2-0.6-0.6-1.1-1.1-1.5c-0.4-0.4-1-0.7-1.5-0.9C87,85,86.3,85,85.6,85l-2.7,0.3l1,10
			l2.7-0.3c0.7-0.1,1.3-0.3,1.9-0.6c0.5-0.3,1-0.7,1.3-1.2s0.6-1.1,0.7-1.7C90.8,90.9,90.8,90.3,90.7,89.6z" />
			<path id="Tracé_643" d="M110.1,89.2l0.7,1.8l-9,3.2L97,81.1l8.8-3.2l0.7,1.8l-6.8,2.4l1.3,3.7l5.9-2.1l0.6,1.7l-5.9,2.1l1.4,4
			L110.1,89.2z" />
			<path id="Tracé_644" d="M125.7,82.5l-8.8-10.8l4.5-3.7c0.5-0.4,1-0.7,1.6-0.8c0.6-0.1,1.1-0.2,1.7-0.1s1.1,0.3,1.6,0.6
			c0.5,0.3,0.9,0.6,1.3,1.1c0.4,0.4,0.7,1,0.8,1.5c0.2,0.5,0.3,1.1,0.3,1.7s-0.1,1.1-0.4,1.6c-0.3,0.5-0.6,1-1.1,1.4l-2.9,2.4
			l3.1,3.8L125.7,82.5z M123.1,75.8l2.8-2.3c0.2-0.2,0.4-0.4,0.5-0.7c0.1-0.3,0.2-0.6,0.2-0.8c0-0.3-0.1-0.6-0.2-0.9
			s-0.3-0.6-0.5-0.9s-0.5-0.5-0.8-0.7s-0.6-0.3-0.9-0.3s-0.6,0-0.9,0c-0.3,0.1-0.5,0.2-0.8,0.4l-2.7,2.2L123.1,75.8z" />
			<path id="Tracé_645" d="M138.5,70.6l-10.5-9l1.4-1.7L140,69L138.5,70.6z" />
			<path id="Tracé_646" d="M148.2,53.3l1.7,1l-4.9,8.2l-12-7.1l4.8-8.1l1.7,1l-3.7,6.2l3.4,2l3.2-5.3l1.6,0.9l-3.2,5.3l3.7,2.2
			L148.2,53.3z" />
			<path id="Tracé_647" d="M153.2,46.8l-13.3-4.2l1.8-5.8c0.2-0.6,0.5-1.1,0.9-1.5s0.9-0.8,1.4-1s1.1-0.4,1.7-0.4
			c0.6,0,1.1,0,1.7,0.2c0.4,0.1,0.9,0.3,1.2,0.6c0.4,0.2,0.7,0.5,1,0.9c0.3,0.3,0.5,0.7,0.6,1.1c0.2,0.4,0.2,0.8,0.2,1.2l6-1.5
			l-0.8,2.4l-5.5,1.4l-1,3.1l4.6,1.5L153.2,46.8z M147.4,42.7l1.2-3.7c0.1-0.3,0.1-0.6,0.1-0.9c-0.1-0.3-0.2-0.6-0.3-0.8
			c-0.2-0.3-0.4-0.5-0.7-0.7s-0.6-0.4-0.9-0.5c-0.3-0.1-0.7-0.1-1-0.1s-0.6,0.1-0.9,0.2c-0.3,0.1-0.5,0.3-0.7,0.5s-0.4,0.5-0.4,0.7
			l-1.1,3.6L147.4,42.7z" />
			<path id="Tracé_648" d="M157.8,28.5l-13.9-0.9l0.4-6.1c0-0.6,0.2-1.2,0.5-1.7s0.7-0.9,1.1-1.3c0.5-0.4,1-0.6,1.5-0.8
			c0.5-0.2,1.1-0.2,1.7-0.2c0.5,0,0.9,0.1,1.3,0.3c0.4,0.2,0.8,0.4,1.2,0.6c0.3,0.3,0.7,0.6,0.9,0.9c0.2,0.4,0.4,0.7,0.5,1.2
			l5.5-2.9l-0.2,2.5l-5,2.7l-0.2,3.2l4.8,0.3L157.8,28.5z M151.2,25.8l0.3-3.8c0-0.3,0-0.6-0.1-0.9s-0.3-0.5-0.5-0.7
			s-0.5-0.4-0.8-0.5s-0.7-0.2-1-0.2s-0.7,0-1,0.1s-0.6,0.2-0.9,0.4c-0.2,0.2-0.4,0.4-0.6,0.7c-0.2,0.2-0.2,0.5-0.3,0.8l-0.2,3.7
			L151.2,25.8z" />
			<path id="Tracé_649" d="M154.5,0.6l1.9-0.3l1.6,9.4L144.2,12l-1.5-9.3l1.9-0.3l1.2,7.1l3.9-0.6l-1-6.1l1.8-0.3l1,6.1l4.2-0.7
			L154.5,0.6z" />
		</g>
		<g id="Groupe_282" transform="translate(405.975 13.346)">
			<g id="Groupe_281">
				<path id="Tracé_650" style="fill-rule:evenodd;clip-rule:evenodd;" d="M26.1,23.1l1.8-3.3l9.8-3.9l0.6,0.7l2,11.8l-7,10.6
				l-18.6,2.4l-7.9-8.2l-1.9-4.9l7.5,2.9l8-8.3L26.1,23.1z M30.1,7l5.7,6.7L26,17.6l-1.5,2.6L19.2,20l-7.6,7.9l-8.1-3.1l0.9-8
				l3.1-2.5L7.1,9.8l8.1-5.9l9.3,4.6L30.1,7z M31,3.9l-6.3,1.7l-9.9-4.9L4.2,8.5l0.4,4.6l-2.8,2.3l-1.1,9.7l3.7,9.6l9.3,9.6
				l21.2-2.7l8.3-12.5l-2.3-13.7L31,3.9z" />
				<path id="Tracé_651" d="M13.6,45c-0.2,0-0.4-0.1-0.5-0.2l-9.3-9.6c0-0.1,0-0.2-0.1-0.2L0,25.4c0-0.1-0.1-0.2,0-0.3l1.1-9.7
				c0-0.2,0.1-0.3,0.2-0.4l2.6-2.1L3.6,8.6c0-0.2,0.1-0.5,0.3-0.6l10.7-7.8C14.7,0,15,0,15.2,0.1l9.6,4.8l6-1.6
				c0.3-0.1,0.5,0,0.7,0.2L41.4,15c0.1,0.1,0.1,0.2,0.2,0.3L43.8,29c0,0.2,0,0.3-0.1,0.5L35.4,42c-0.1,0.2-0.3,0.3-0.5,0.3L13.6,45
				C13.7,45,13.7,45,13.6,45z M5,34.3l8.9,9.2L34.4,41l8-12.1l-2.2-13.2l-9.4-11L25,6.2c-0.2,0-0.3,0-0.5,0L15,1.5L4.9,8.8L5.3,13
				c0,0.2-0.1,0.4-0.2,0.6l-2.6,2.1L1.4,25L5,34.3z M14.7,42.1c-0.2,0-0.4-0.1-0.5-0.2l-7.9-8.2c-0.1-0.1-0.1-0.1-0.1-0.2l-1.9-4.9
				c-0.1-0.2,0-0.5,0.2-0.7s0.5-0.2,0.7-0.2l7.1,2.7l7.7-8c0.1-0.1,0.3-0.2,0.5-0.2l5.4,0.2l1.6-2.9c0.1-0.1,0.2-0.2,0.3-0.3
				l9.8-3.9c0.3-0.1,0.6,0,0.8,0.2l0.6,0.7c0.1,0.1,0.1,0.2,0.2,0.3l2,11.8c0,0.2,0,0.3-0.1,0.5l-7,10.6c-0.1,0.2-0.3,0.3-0.5,0.3
				L14.7,42.1L14.7,42.1L14.7,42.1z M7.3,32.8l7.6,7.9l17.9-2.3l6.7-10.1l-1.9-11.4l-0.1-0.2l-9.2,3.6l-1.7,3
				c-0.1,0.2-0.4,0.4-0.6,0.3l-5.5-0.2l-7.8,8.1c-0.2,0.2-0.5,0.3-0.7,0.2l-6-2.3L7.3,32.8z M11.6,28.6c-0.1,0-0.2,0-0.2,0l-8.1-3.1
				C3,25.3,2.8,25,2.8,24.7l0.9-8c0-0.2,0.1-0.3,0.2-0.4L6.8,14L6.4,9.9c0-0.2,0.1-0.5,0.3-0.6l8.1-5.9c0.2-0.2,0.5-0.2,0.7-0.1
				l9.1,4.5l5.3-1.5c0.3-0.1,0.5,0,0.7,0.2l5.7,6.7c0.1,0.2,0.2,0.4,0.1,0.6c-0.1,0.2-0.2,0.4-0.4,0.5l-9.6,3.8l-1.3,2.4
				c-0.1,0.2-0.4,0.4-0.6,0.3l-5-0.2l-7.4,7.6C11.9,28.5,11.8,28.6,11.6,28.6L11.6,28.6z M4.2,24.4l7.2,2.8l7.3-7.5
				c0.1-0.1,0.3-0.2,0.5-0.2l4.9,0.2l1.3-2.3c0.1-0.1,0.2-0.2,0.3-0.3l9-3.6l-4.9-5.7l-5.2,1.4c-0.2,0-0.3,0-0.5,0l-8.9-4.5
				l-7.4,5.4l0.4,4.2c0,0.2-0.1,0.4-0.2,0.6l-3,2.3L4.2,24.4z" />
			</g>
		</g>
		<g id="Groupe_896">
			<g id="Groupe_285" transform="translate(409.776 -28.382)">
				<g id="Groupe_284">
					<g id="Groupe_283">
						<path id="Tracé_652" d="M69.7,4.7l-1.5,3.9c0,0-23.3-1.4-23,4.7c0.5,1.3,0.3,2.7-0.6,3.8l-7.8,3.4c-0.3,0.1-0.5,0.1-0.8,0
						c-1.3-0.5-2.6-3-2.6-3s-4.5,1.5-9.3,3.6c-4.6,2-8.9,4.5-13,7.3c3.4-9.8,18.1-13.9,19.1-14.8c0.7-1.1,1.7-2.2,2.7-3
						c1.3-0.7,7.2-3.1,7.2-3.1c0.3,0.2,0.7,0.3,1,0.5c0.4,0.2,0.8,0.3,1.3,0.2C51.3,1,69.7,4.7,69.7,4.7 M71.3,0.5
						c-0.3-0.1-0.5-0.2-0.8-0.2c-3.7-0.7-7.4-1-11.1-1c-7.4,0-13.3,1.3-17.7,3.9c-1.1-0.4-2.2-0.4-3.3,0.1c-1.9,0.8-6.3,2.6-7.7,3.4
						c-1.4,0.9-2.6,2-3.5,3.3c-0.2,0.1-0.4,0.2-0.6,0.2c-4.9,2-16.4,6.8-19.8,16.7c-0.6,1.9,0,4,1.6,5.1c0.3,0.2,0.7,0.4,1,0.6
						c1.4,0.6,3.1,0.4,4.3-0.5c3.8-2.7,7.9-5,12.1-6.8c2.1-0.9,4.2-1.7,5.8-2.3c0.7,0.8,1.6,1.4,2.6,1.8c1.4,0.6,2.9,0.5,4.3,0
						l7.8-3.4c0.6-0.3,1.1-0.6,1.5-1.1c1.4-1.6,2.2-3.7,2.1-5.9c2.9-1,10.7-1.6,17.9-1.1c2,0.1,3.8-1,4.5-2.9l1.5-3.9
						c0.5-1.3,0.4-2.7-0.2-3.9C73.2,1.6,72.3,0.9,71.3,0.5L71.3,0.5z" />
						<path id="Tracé_653" d="M11.1,33.1c-0.6,0-1.2-0.1-1.8-0.3c-0.4-0.2-0.8-0.4-1.1-0.6c-1.7-1.2-2.4-3.4-1.7-5.4
						c3.4-10,15-14.8,20-16.8L27,9.8c1-1.3,2.2-2.5,3.6-3.4C31.9,5.6,36,4,38.3,3c1.1-0.4,2.2-0.5,3.3-0.1C46,0.3,51.9-1,59.1-1
						c0.1,0,0.2,0,0.3,0c3.8,0,7.5,0.4,11.2,1c0.3,0.1,0.5,0.1,0.8,0.2l0,0c1,0.4,1.9,1.2,2.4,2.2c0.7,1.2,0.8,2.7,0.2,4l-1.5,3.9
						c-0.8,1.9-2.7,3.1-4.7,3c-6.9-0.3-14.5,0.2-17.6,1.2c0,2.2-0.7,4.3-2.2,5.9c-0.5,0.5-1,0.9-1.6,1.1l-7.8,3.4
						c-1.4,0.6-3,0.6-4.4,0c-1-0.4-1.9-1-2.6-1.8c-2,0.7-3.9,1.5-5.6,2.3c-4.2,1.9-8.3,4.2-12.1,6.8C13.1,32.8,12.1,33.1,11.1,33.1z
						 M40.1,3.1c-0.6,0-1.1,0.1-1.6,0.3c-1.9,0.8-6.3,2.6-7.7,3.4c-1.4,0.9-2.5,2-3.5,3.3l-0.1,0.1l-0.6,0.2
						C21.8,12.4,10.3,17.1,7,27c-0.6,1.8,0,3.8,1.5,4.9c0.3,0.2,0.6,0.4,1,0.6c1.4,0.5,2.9,0.4,4.1-0.5c3.8-2.7,7.9-5,12.1-6.9
						c1.8-0.8,3.7-1.6,5.8-2.3c0.1,0,0.2,0,0.2,0.1c0.7,0.8,1.6,1.4,2.5,1.8c1.3,0.5,2.8,0.5,4.1,0l7.8-3.4c0.6-0.2,1.1-0.6,1.5-1
						c1.4-1.6,2.1-3.6,2.1-5.7c0-0.1,0.1-0.2,0.1-0.2c3-1.1,10.9-1.6,18-1.2c1.9,0.1,3.6-1,4.3-2.7l1.5-3.9c0.5-1.2,0.4-2.5-0.2-3.7
						c-0.5-0.9-1.3-1.6-2.2-2l0,0c-0.2-0.1-0.5-0.2-0.7-0.2c-3.7-0.7-7.4-1-11.1-1c-0.1,0-0.2,0-0.3,0c-7.2,0-13,1.3-17.3,3.9
						c-0.1,0-0.1,0-0.2,0C41.1,3.2,40.6,3.1,40.1,3.1L40.1,3.1z M11.1,28.6H11c-0.1-0.1-0.1-0.2-0.1-0.3c2.7-8.1,13-12.3,17.4-14.1
						c0.6-0.2,1.2-0.5,1.8-0.8c0.7-1.2,1.7-2.2,2.8-3c1.3-0.7,7-3,7.2-3.1c0.1,0,0.1,0,0.2,0c0,0,0.5,0.3,1,0.5C42,8,42.3,8,42.4,8
						c8.8-7.1,27.1-3.5,27.3-3.5c0.1,0,0.1,0.1,0.2,0.1c0,0.1,0,0.1,0,0.2l-1.6,3.9c0,0.1-0.1,0.2-0.2,0.1c-0.2,0-18.1-1.1-22,2.8
						c-0.5,0.4-0.7,1-0.7,1.7c0.5,1.4,0.3,2.9-0.7,4c0,0,0,0-0.1,0.1l-7.8,3.4c-0.3,0.1-0.6,0.1-1,0c-1.2-0.5-2.3-2.4-2.6-3
						c-0.9,0.3-4.9,1.7-9.1,3.5C19.6,23.3,15.2,25.7,11.1,28.6C11.2,28.6,11.1,28.6,11.1,28.6z M40.1,7.7c-0.8,0.3-5.9,2.4-7,3.1
						c-1.1,0.8-2,1.8-2.7,2.9l0,0c-0.6,0.4-1.3,0.7-1.9,0.9c-4.2,1.7-13.9,5.7-16.9,13.1c3.9-2.7,8.1-5,12.4-6.9
						c4.8-2.1,9.3-3.6,9.4-3.6s0.2,0,0.3,0.1c0,0,1.3,2.5,2.4,2.9c0.2,0.1,0.4,0.1,0.6,0l7.7-3.4c0.8-1,1-2.3,0.6-3.5v-0.1
						c0-0.8,0.3-1.5,0.8-2c3.9-3.9,20.3-3,22.2-2.9l1.3-3.4C67,4.5,50.7,1.8,42.6,8.3c0,0,0,0-0.1,0C42.3,8.4,42,8.4,41,8.1
						C40.7,8,40.3,7.8,40.1,7.7z" />
					</g>
				</g>
			</g>
			<g id="Groupe_286" transform="translate(440.457 -10.552)">
				<path id="Tracé_654" d="M35.6,56.7c-0.2,0-0.4,0-0.6,0c-1.6-0.1-2.9-1-3.6-2.4L6.3,5.9L9.9,4l25.2,48.6c0.8,0.1,1.6-0.1,2.4-0.4
				c0.8-0.3,1.5-0.7,2-1.4C14,1.1,13.8,0.6,13.8,0.4l3.9-1.2l-2,0.6L17.5-1c0.6,1.4,18.7,36.8,25.6,50.3l0.1,0.2
				c1,2.5-0.8,5.2-4.3,6.6C37.9,56.5,36.8,56.7,35.6,56.7z" />
			</g>
		</g>
	</g>
</svg>
